{"glyphs":{"0":{"ha":1086,"x_min":42,"x_max":1044,"o":"m 260 631 q 231 638 256 632 q 218 639 226 639 q 200 628 200 639 q 215 601 200 619 l 233 583 l 250 599 q 260 631 276 622 m 246 772 q 267 738 246 765 q 289 706 289 711 q 299 713 289 700 q 326 735 307 726 q 343 761 343 743 q 322 790 343 790 q 310 788 318 790 q 289 790 296 782 q 271 799 281 799 q 253 791 261 799 q 246 772 246 783 m 671 790 q 614 804 651 804 q 544 789 574 804 q 428 676 481 757 q 349 489 375 596 q 332 325 332 422 q 340 225 332 263 q 401 98 358 147 q 494 49 443 49 q 513 50 507 49 q 651 164 585 64 q 743 401 717 264 q 753 535 753 456 q 742 669 753 625 q 671 790 718 757 m 421 942 q 394 954 404 954 q 378 949 388 954 q 358 917 358 936 q 392 861 358 889 q 419 822 414 843 l 424 803 l 442 825 q 478 857 457 846 q 502 874 497 867 q 507 901 507 882 q 497 932 507 921 q 474 943 488 943 q 450 935 463 943 q 421 942 439 926 m 619 1032 q 585 1047 604 1047 q 551 1032 565 1047 q 538 993 538 1017 q 569 942 538 971 q 615 867 615 899 q 622 860 615 853 q 638 882 626 865 q 688 928 660 915 q 721 953 715 942 q 725 976 725 964 q 713 1018 725 1003 q 683 1033 700 1033 q 653 1025 669 1033 q 635 1020 640 1019 q 619 1032 631 1021 m 556 1085 q 579 1086 561 1086 q 694 1074 642 1086 q 825 1008 757 1058 q 933 899 893 958 q 1044 506 1044 731 q 997 217 1044 358 q 852 -53 944 57 q 639 -208 760 -162 q 585 -225 604 -222 q 513 -228 565 -228 q 389 -211 439 -228 q 135 1 229 -158 q 42 360 42 160 q 74 581 42 468 q 276 938 135 794 q 406 1036 343 1003 q 556 1085 469 1069 z "},"1":{"ha":653,"x_min":42,"x_max":610,"o":"m 322 -81 q 303 -81 315 -68 q 296 -94 296 -87 q 313 -118 296 -103 l 328 -133 l 346 -119 q 358 -92 364 -106 q 340 -82 354 -78 q 322 -81 324 -85 m 322 71 q 308 78 319 78 q 290 71 297 78 q 283 56 283 64 q 307 13 283 39 q 328 -8 324 -6 q 339 -3 332 -10 q 364 19 350 11 q 381 46 381 31 q 354 69 381 69 q 344 68 349 69 q 322 71 326 65 m 336 289 q 307 301 322 301 q 281 290 292 301 q 271 261 271 279 q 301 214 271 243 q 332 175 332 183 q 353 176 332 147 q 383 204 369 199 q 422 249 422 222 q 413 276 422 263 q 379 289 404 289 q 357 282 364 289 q 336 289 351 276 m 350 553 q 328 561 333 561 q 310 554 321 561 q 283 506 283 539 q 289 480 283 489 q 315 450 294 471 q 361 379 361 406 q 371 379 361 368 q 379 390 374 383 q 438 440 414 440 q 459 459 447 440 q 471 493 471 478 q 458 529 471 514 q 426 544 444 544 q 393 535 408 544 q 383 528 386 529 q 377 528 379 526 q 372 535 375 529 q 350 553 367 546 m 374 1064 q 488 1083 447 1083 q 543 1071 519 1083 q 610 950 610 1038 q 589 838 610 900 q 511 442 546 704 q 476 -10 476 179 q 470 -142 476 -115 q 436 -196 464 -169 q 344 -229 399 -229 q 219 -162 260 -229 q 193 -15 193 -117 q 194 58 193 31 q 220 363 197 179 q 271 672 243 546 l 283 729 q 238 715 263 724 q 167 701 197 701 q 117 713 142 701 q 42 838 42 747 l 42 850 q 85 950 44 914 q 229 1021 125 986 q 374 1064 306 1046 z "},"2":{"ha":1103,"x_min":42,"x_max":1060,"o":"m 710 881 q 692 883 694 878 q 681 889 689 889 q 669 885 674 889 q 665 875 665 881 q 681 846 665 865 l 696 829 l 714 844 q 729 869 729 857 q 715 881 729 881 l 710 881 m 235 922 q 199 938 215 938 q 157 907 169 938 q 153 886 153 897 q 193 824 153 864 q 224 790 217 800 q 231 764 231 779 l 231 740 l 240 756 q 275 797 256 776 q 300 817 294 817 q 325 831 308 817 q 342 869 342 844 q 326 910 342 892 q 297 925 311 925 q 269 917 286 925 q 235 922 253 907 m 583 968 q 569 974 581 975 q 551 967 558 974 q 544 950 544 960 q 565 914 544 933 q 588 886 588 892 q 614 904 588 881 q 642 946 642 932 q 636 961 642 950 q 610 965 631 969 q 583 968 589 961 m 410 1028 q 383 1040 397 1040 q 347 1003 358 1040 q 346 994 346 1000 q 374 954 346 983 q 410 904 401 925 l 415 888 l 429 910 q 460 939 443 931 q 496 986 496 957 q 464 1026 496 1026 q 439 1021 450 1026 q 410 1028 424 1015 m 393 1088 q 485 1094 446 1094 q 736 1022 625 1094 q 942 724 903 911 q 951 624 951 675 q 942 529 951 571 q 867 374 919 447 q 568 129 788 265 l 529 106 l 654 92 q 905 56 840 72 q 1006 0 969 39 q 1043 -55 1026 -21 q 1060 -110 1060 -89 q 1033 -178 1060 -143 q 971 -229 1007 -214 q 924 -237 953 -237 q 815 -222 885 -237 q 413 -174 632 -183 q 342 -171 349 -171 q 246 -186 306 -171 q 164 -200 189 -200 q 156 -199 161 -200 q 149 -199 151 -199 q 95 -174 121 -194 q 56 -128 69 -154 q 42 -64 42 -100 q 65 38 42 -14 q 181 197 104 122 q 410 375 258 272 q 578 501 526 453 q 651 596 629 549 q 665 656 665 624 q 615 767 665 719 q 494 815 565 815 q 475 814 482 815 q 369 772 410 807 q 331 725 363 767 q 229 657 281 657 q 194 661 214 657 q 106 718 139 675 q 72 815 72 761 q 93 899 72 857 q 213 1020 126 967 q 393 1088 299 1074 z "},"3":{"ha":1028,"x_min":43,"x_max":985,"o":"m 728 872 q 715 876 722 878 q 706 867 708 874 q 718 838 703 857 l 733 818 l 751 831 q 767 854 767 842 q 749 868 767 868 q 728 872 732 868 m 271 910 q 232 925 254 925 q 189 885 197 925 q 188 879 189 882 q 188 875 188 876 q 231 810 188 847 q 265 756 263 779 l 268 729 l 288 760 q 333 804 308 792 q 369 828 361 818 q 376 860 376 838 q 363 899 376 883 q 329 914 349 914 q 303 904 314 914 q 289 899 293 897 q 271 910 285 900 m 625 956 q 608 962 622 961 q 590 957 594 963 q 585 944 585 951 q 610 896 585 925 q 639 879 635 869 q 663 900 640 886 q 683 931 683 913 q 657 954 683 954 q 647 953 651 954 q 625 956 629 950 m 450 1015 q 422 1028 436 1028 q 399 1017 410 1028 q 386 988 386 1004 q 414 938 386 961 q 444 896 442 913 q 448 883 446 890 q 450 875 450 876 q 458 883 450 872 q 465 893 461 888 q 506 931 481 915 q 536 971 536 949 q 532 992 536 979 q 503 1014 522 1014 q 483 1010 494 1014 q 450 1015 467 1001 m 404 1075 q 503 1082 442 1082 q 614 1074 572 1082 q 822 974 729 1050 q 951 799 914 899 q 976 669 976 733 q 894 463 976 551 l 864 429 l 892 397 q 983 165 975 301 q 984 151 983 160 q 985 139 985 143 q 883 -110 985 -10 q 615 -225 782 -211 q 563 -228 579 -228 q 322 -182 439 -228 q 128 -56 206 -136 q 47 94 60 15 q 43 129 43 117 q 56 171 43 142 q 151 240 86 236 q 178 242 161 242 q 240 223 214 242 q 326 140 267 204 q 407 81 361 103 q 458 60 440 64 q 519 54 475 56 l 544 54 q 669 90 633 54 q 699 167 699 119 q 664 251 699 221 q 619 278 643 271 q 542 288 596 285 q 447 299 476 290 q 394 333 418 308 q 344 442 344 383 q 383 531 344 492 q 431 560 406 553 q 507 568 456 568 l 528 568 l 564 568 q 628 583 599 568 q 694 674 694 618 q 690 703 694 689 q 635 771 678 743 q 536 803 593 799 q 525 803 533 803 q 514 804 517 804 q 429 785 464 804 q 365 719 394 765 q 315 665 340 681 q 250 650 290 650 q 148 694 193 650 q 103 801 103 738 q 121 876 103 839 q 231 999 154 946 q 404 1075 307 1053 z "},"4":{"ha":1104,"x_min":42,"x_max":1061,"o":"m 181 447 q 169 453 178 453 q 157 449 161 453 q 153 439 153 444 q 169 408 153 428 l 185 390 l 203 408 q 218 435 218 424 q 206 446 218 446 l 203 444 q 199 444 200 444 q 181 447 182 442 m 228 607 q 199 613 204 607 q 183 617 193 618 q 167 610 172 615 q 160 593 160 603 q 181 557 160 575 q 201 528 201 536 q 217 538 201 519 q 244 558 232 556 q 256 585 257 563 q 251 604 254 601 q 228 607 247 607 m 271 797 q 253 804 257 804 q 232 792 244 804 q 219 764 219 779 q 247 713 219 740 q 279 665 274 686 l 283 644 l 300 671 q 339 706 318 696 q 371 749 371 722 q 365 767 371 756 q 335 792 351 792 q 314 785 328 792 q 289 782 293 775 q 271 797 283 789 m 403 976 q 368 990 388 990 q 336 976 350 990 q 322 940 322 963 q 360 881 322 918 q 393 843 386 854 q 403 808 400 832 q 424 828 404 796 q 467 868 442 856 q 503 891 494 881 q 511 924 511 901 q 496 965 511 950 q 469 981 481 981 q 440 971 463 981 q 420 965 425 964 q 403 976 415 965 m 756 1079 q 806 1089 774 1089 q 872 1074 846 1089 q 928 954 928 1040 q 915 857 928 914 q 884 681 906 815 q 863 531 863 546 q 872 522 863 524 q 914 519 881 519 q 1060 394 1047 519 q 1060 385 1060 392 q 1061 375 1061 378 q 1029 285 1061 321 q 978 249 1007 260 q 892 236 949 239 l 826 233 l 822 196 q 817 14 817 157 q 814 -115 817 -90 q 800 -161 811 -139 q 689 -222 768 -222 q 579 -174 621 -222 q 531 -39 538 -126 q 530 -26 531 -36 q 529 -10 529 -17 q 544 210 529 124 l 549 231 l 374 226 q 242 224 249 224 q 167 232 192 224 q 104 271 135 243 q 58 331 74 299 q 42 404 42 364 q 65 531 42 449 q 208 867 121 721 q 375 1053 294 1014 q 440 1065 400 1065 q 519 1047 490 1065 q 576 944 576 1013 q 571 910 576 925 q 528 847 564 889 q 426 693 469 782 q 353 510 353 535 q 399 504 353 504 q 470 506 428 504 q 542 510 513 508 q 574 514 571 513 q 597 593 586 519 q 665 935 629 811 q 703 1031 683 999 q 756 1079 724 1063 z "},"5":{"ha":1049,"x_min":43,"x_max":1007,"o":"m 894 972 q 875 975 878 969 q 865 980 872 981 q 853 975 857 979 q 863 938 840 964 l 876 921 l 893 933 q 908 961 908 946 q 906 972 908 971 q 894 972 904 974 m 333 964 q 294 979 317 979 q 251 942 260 979 q 251 936 251 939 q 250 931 250 933 q 293 865 250 903 q 326 811 324 838 l 331 785 l 350 814 q 399 860 372 846 q 440 913 440 881 q 439 924 440 919 q 422 956 435 944 q 393 968 410 968 q 365 958 382 968 q 351 953 356 951 q 333 964 347 954 m 742 985 q 725 991 729 992 q 713 982 721 990 q 704 964 704 974 q 724 931 704 951 q 746 900 746 903 q 757 904 747 894 q 783 928 769 919 q 799 957 800 939 q 794 974 797 971 q 776 976 790 976 q 742 985 756 976 m 558 1004 q 532 1015 543 1015 q 510 1004 521 1015 q 497 976 497 992 q 525 925 497 953 q 557 876 551 899 l 561 857 l 576 881 q 615 917 590 904 q 647 960 647 933 q 643 979 647 969 q 614 1003 632 1003 q 594 999 606 1003 q 558 1004 575 992 m 579 1082 q 776 1088 665 1088 q 918 1078 896 1088 q 985 986 968 1054 q 992 939 992 958 q 950 843 992 886 q 887 812 926 819 q 717 801 847 804 q 424 779 435 794 q 414 733 421 772 q 407 679 407 694 l 408 674 l 413 674 q 453 678 425 674 q 518 682 478 682 q 651 668 604 682 q 878 526 781 632 q 1000 289 976 419 q 1007 194 1007 247 q 997 86 1007 128 q 688 -204 939 -139 q 536 -221 626 -221 q 419 -214 460 -221 q 315 -182 378 -207 q 165 -92 239 -153 q 64 26 92 -31 q 43 118 43 71 q 99 239 43 203 q 167 256 125 256 q 285 196 242 256 q 350 121 314 154 q 415 76 386 88 q 525 63 454 63 q 625 75 599 63 q 672 109 649 86 q 707 156 696 132 q 718 225 718 176 q 704 306 718 279 q 651 372 681 351 q 571 399 622 392 q 533 401 558 401 q 403 374 486 401 q 281 347 325 347 q 249 350 258 347 q 147 433 179 367 q 134 471 136 456 q 132 539 132 486 l 132 581 q 276 1047 135 983 q 579 1082 315 1064 z "},"6":{"ha":1042,"x_min":42,"x_max":1000,"o":"m 617 358 q 540 368 581 368 q 461 357 492 368 q 351 293 399 333 l 328 274 l 336 236 q 394 114 353 158 q 533 57 447 57 q 610 69 583 57 q 685 128 656 90 q 714 207 714 167 q 688 303 714 263 q 617 358 661 344 m 879 857 q 860 860 863 854 q 849 865 857 865 q 838 861 842 865 q 833 851 833 857 q 847 822 833 838 l 861 806 l 878 818 q 894 844 894 831 q 892 857 894 854 q 879 857 889 860 m 363 908 q 329 925 344 925 q 299 910 314 925 q 282 871 282 892 q 288 847 282 856 q 315 815 293 838 q 363 742 357 775 q 385 760 364 732 q 426 800 404 789 q 462 824 453 813 q 471 856 471 835 q 426 907 471 907 q 394 899 406 907 q 381 894 385 893 q 363 908 376 896 m 739 972 q 724 979 726 979 q 711 974 722 979 q 700 956 700 967 q 721 917 700 938 q 743 888 743 892 q 754 893 743 879 q 781 915 765 906 q 796 946 797 925 q 791 963 794 960 q 774 965 788 965 q 739 972 750 965 m 553 1008 q 522 1022 539 1022 q 499 1010 508 1022 q 489 979 489 999 q 513 936 489 957 q 546 893 539 915 l 553 869 l 567 892 q 603 925 578 911 q 631 944 629 939 q 635 968 635 950 q 628 1001 635 992 q 600 1010 619 1010 q 575 1003 582 1010 q 553 1008 568 996 m 556 1089 q 617 1094 611 1094 q 669 1089 625 1094 q 834 1033 754 1075 q 953 940 914 992 q 992 831 992 892 q 967 752 992 786 q 901 708 943 718 q 871 706 890 706 q 733 767 807 706 q 618 811 678 811 q 610 810 615 811 q 600 810 604 810 q 522 786 556 807 q 418 674 467 753 q 399 632 399 639 q 404 628 399 628 q 426 633 411 628 q 532 643 454 643 q 658 632 614 643 q 904 467 808 592 q 1000 186 1000 342 q 986 81 1000 128 q 867 -101 954 -19 q 675 -211 781 -183 q 560 -224 629 -224 q 489 -219 519 -224 q 165 -31 289 -189 q 42 351 42 126 q 44 422 42 399 q 212 878 71 694 q 556 1089 353 1063 z "},"7":{"ha":1042,"x_min":43,"x_max":999,"o":"m 822 896 q 806 899 817 896 q 789 903 794 903 q 779 890 779 903 q 794 863 779 881 l 810 846 l 825 860 q 839 885 839 872 q 826 896 839 896 l 822 896 m 678 976 q 657 986 665 986 q 640 975 647 986 q 635 958 635 965 q 656 928 635 949 q 676 897 676 907 q 694 904 676 886 q 725 932 711 921 q 736 950 736 939 q 728 970 736 961 q 710 979 719 979 q 697 974 706 979 q 678 976 688 967 m 479 1004 q 449 1019 463 1019 q 425 1008 436 1019 q 410 979 410 993 q 435 936 410 958 q 471 890 461 910 l 481 869 l 493 890 q 524 919 507 913 q 561 965 561 939 q 550 996 561 983 q 524 1008 539 1008 q 503 1001 511 1008 q 479 1004 493 993 m 228 1031 q 194 1046 208 1046 q 165 1032 179 1046 q 150 993 150 1018 q 155 967 150 976 q 181 939 160 957 q 228 864 228 893 q 246 876 228 850 l 249 881 q 297 924 269 911 q 338 975 338 942 q 331 1006 338 992 q 294 1031 318 1031 q 271 1025 288 1031 q 250 1018 253 1018 q 228 1031 244 1018 m 108 1083 q 290 1092 128 1092 l 515 1092 q 910 1085 899 1089 q 974 1034 950 1069 q 999 957 999 999 q 996 929 999 949 q 939 815 990 903 q 729 392 824 619 q 588 -31 635 165 q 557 -139 568 -110 q 525 -187 546 -168 q 432 -225 488 -225 q 423 -224 429 -225 q 414 -224 417 -224 q 274 -47 274 -211 q 285 40 274 -3 q 335 183 297 83 q 576 732 443 474 q 615 806 615 804 q 390 811 615 808 q 143 824 168 813 q 69 888 96 844 q 43 976 43 931 q 108 1083 43 1054 z "},"8":{"ha":1150,"x_min":43,"x_max":1107,"o":"m 592 -76 q 579 -74 590 -76 q 561 -71 568 -72 q 556 -70 558 -71 q 551 -69 553 -69 q 535 -81 535 -69 q 549 -107 535 -92 l 565 -128 l 582 -112 q 599 -85 599 -96 q 592 -76 599 -79 m 675 4 q 661 11 672 11 q 643 4 650 11 q 636 -11 636 -3 q 657 -47 636 -24 q 678 -79 678 -71 q 696 -68 681 -85 q 719 -50 714 -50 q 735 -24 735 -50 q 732 -10 735 -18 q 724 3 728 1 q 703 1 719 4 q 675 4 681 -3 m 796 168 q 765 182 783 182 q 732 158 740 182 q 728 142 728 150 q 760 92 728 124 q 790 47 788 67 l 794 29 l 811 53 q 853 88 828 76 q 872 101 868 94 q 876 128 875 107 q 876 152 878 146 q 863 165 874 158 q 847 173 851 172 q 826 167 842 174 q 808 160 813 160 q 796 168 803 160 m 536 299 q 479 332 485 332 q 433 302 471 332 q 378 251 396 272 q 333 150 333 199 q 338 119 333 129 q 358 93 342 110 q 485 47 403 47 q 497 48 489 47 q 510 49 506 49 q 647 106 604 56 q 667 151 667 129 q 536 299 667 211 m 678 401 q 653 408 664 408 q 623 392 635 408 q 611 353 611 376 q 617 328 611 339 q 647 296 624 318 q 688 238 682 261 l 693 214 l 704 232 q 734 269 713 249 q 765 289 756 289 q 787 307 775 289 q 799 340 799 325 q 785 377 799 361 q 754 393 772 393 q 721 383 736 393 q 713 378 715 379 q 708 376 711 376 q 705 378 706 376 q 701 383 704 379 q 678 401 696 393 m 328 635 q 297 639 326 635 q 281 640 285 642 q 278 629 278 639 q 292 599 278 615 l 306 582 l 322 596 q 339 624 339 611 q 328 635 339 635 m 668 788 q 569 804 633 804 q 499 793 524 804 q 442 728 442 767 q 450 688 442 714 q 467 661 458 661 q 585 715 474 661 q 696 772 696 768 q 668 788 696 775 m 285 796 q 251 790 268 817 q 246 774 246 783 q 268 739 246 760 q 285 713 285 722 q 296 713 285 703 l 304 721 q 335 749 324 740 q 346 768 346 757 q 317 790 346 790 l 310 790 q 285 796 292 786 m 379 956 q 350 968 364 968 q 324 956 335 968 q 314 926 314 944 q 342 881 314 906 q 375 835 371 853 l 378 814 l 393 835 q 435 874 411 858 q 465 917 465 894 q 457 942 465 929 q 429 956 449 956 q 404 949 418 956 q 379 956 394 943 m 557 1043 q 535 1052 540 1051 q 518 1046 531 1053 q 490 996 490 1031 q 497 970 490 981 q 526 938 503 960 q 565 886 560 906 q 571 863 571 867 q 585 875 571 860 l 593 888 q 635 926 611 914 q 678 981 678 947 q 664 1019 678 1004 q 631 1035 650 1035 q 600 1025 614 1035 q 579 1025 585 1014 q 557 1043 574 1036 m 425 1071 q 544 1083 471 1083 q 664 1071 617 1083 q 947 886 832 1029 q 994 856 971 858 q 1036 843 1022 850 q 1088 788 1068 826 q 1107 703 1107 749 q 1101 657 1107 675 q 1049 590 1092 618 q 961 563 1007 563 q 899 553 933 563 q 813 522 871 546 q 740 486 756 497 q 734 480 735 482 q 737 474 733 478 q 750 461 740 469 q 835 379 783 435 q 901 299 886 324 q 950 126 950 217 q 936 28 950 67 q 819 -131 903 -67 q 615 -222 736 -196 q 524 -231 578 -231 q 375 -212 439 -231 q 201 -125 279 -186 q 85 13 122 -64 q 43 183 43 97 q 90 351 43 275 q 211 483 128 414 l 243 511 l 224 540 q 153 758 153 642 q 157 804 153 781 q 246 972 175 901 q 425 1071 317 1043 z "},"9":{"ha":1011,"x_min":40,"x_max":969,"o":"m 175 649 q 156 646 167 657 q 150 633 149 639 q 165 611 151 626 l 181 592 l 199 606 q 215 631 215 618 q 196 644 215 644 q 175 649 179 644 m 589 788 q 510 803 561 801 l 497 803 q 399 783 436 803 q 339 715 361 763 q 325 667 325 686 q 326 644 325 653 q 382 532 332 574 q 499 490 432 490 q 663 578 601 490 q 681 618 681 606 q 679 636 681 629 q 589 788 664 750 m 188 806 q 156 803 172 819 q 149 788 149 796 q 169 751 149 775 q 192 724 192 726 q 199 727 192 722 q 218 742 206 732 q 244 779 244 763 q 240 798 244 794 q 217 801 235 801 q 188 806 192 801 m 331 938 q 301 943 314 931 q 274 956 289 956 q 246 940 258 956 q 235 915 235 928 q 264 868 235 899 q 300 819 296 833 l 304 801 l 318 824 q 357 860 329 843 q 383 892 382 874 l 383 901 q 353 943 383 943 q 331 938 342 943 m 501 1022 q 469 1039 483 1039 q 439 1022 456 1039 q 421 986 421 1004 q 465 919 421 958 q 499 871 493 893 l 503 847 l 525 875 q 572 917 543 900 q 604 938 600 931 q 610 965 610 949 q 600 1008 610 994 q 563 1022 589 1022 q 533 1014 544 1022 q 520 1010 525 1008 q 501 1022 515 1011 m 369 1074 q 472 1082 408 1082 q 594 1071 546 1082 q 832 931 738 1035 q 958 678 926 826 q 969 517 969 629 q 958 347 969 403 q 758 -72 911 89 q 585 -194 676 -158 q 392 -232 490 -232 q 233 -201 301 -232 q 142 -117 164 -171 q 128 -51 128 -79 q 192 58 128 26 q 246 71 217 71 q 329 58 275 71 q 388 49 369 49 q 418 53 401 49 q 551 139 492 69 q 608 218 608 204 q 597 220 608 221 q 572 217 586 219 q 518 213 551 213 q 394 226 442 213 q 206 326 294 253 q 79 493 118 400 q 40 686 40 583 q 49 761 40 728 q 165 965 81 882 q 369 1074 250 1047 z "},"\u0000":{"ha":278,"x_min":0,"x_max":0,"o":""},"\r":{"ha":278,"x_min":0,"x_max":0,"o":""}," ":{"ha":278,"x_min":0,"x_max":0,"o":""},"!":{"ha":479,"x_min":42,"x_max":438,"o":"m 181 369 q 164 369 171 379 q 172 332 153 358 l 186 314 l 203 328 q 219 353 219 340 q 201 365 219 365 q 181 369 185 365 m 207 542 q 193 550 200 550 q 172 519 172 550 q 189 489 172 506 q 210 465 207 474 q 213 464 210 464 q 246 483 222 464 q 269 513 269 503 q 246 538 269 538 q 236 536 240 538 q 207 542 217 532 m 246 725 q 217 738 236 738 q 188 725 196 738 q 178 700 178 711 q 206 657 178 682 q 239 611 232 631 l 246 592 l 260 611 q 290 640 274 633 q 329 688 329 660 q 319 717 329 701 q 297 732 308 732 q 272 722 294 732 q 256 716 260 715 q 246 725 251 717 m 286 964 q 249 979 269 979 q 208 947 219 979 q 204 928 204 936 q 247 864 204 907 q 281 811 281 831 q 286 793 281 793 q 307 819 290 793 q 350 858 325 847 q 383 881 375 869 q 392 914 392 892 q 378 953 392 938 q 344 968 364 968 q 318 958 329 968 q 304 953 308 951 q 286 964 300 954 m 265 1078 q 314 1088 285 1088 q 386 1067 357 1088 q 438 951 438 1029 q 424 836 438 915 q 380 561 403 728 q 354 326 357 394 q 342 230 350 254 q 311 185 335 206 q 232 158 281 158 q 150 178 189 158 q 72 268 89 208 q 63 354 63 304 q 108 701 63 472 q 181 974 149 897 q 265 1078 213 1051 m 142 111 q 210 119 163 119 q 274 113 246 119 q 336 71 301 106 q 385 -7 372 35 q 396 -72 396 -43 q 338 -203 396 -147 q 224 -249 289 -249 q 90 -187 143 -249 q 52 -128 63 -157 q 42 -53 42 -100 q 60 35 42 3 q 142 111 90 93 z "},"\"":{"ha":806,"x_min":40,"x_max":767,"o":"m 204 944 q 171 964 185 964 q 150 958 161 964 q 130 943 135 953 q 125 910 125 933 q 160 853 125 886 q 201 796 197 817 l 204 774 l 224 801 q 268 842 240 826 q 311 894 311 864 q 310 899 311 896 q 310 904 310 903 q 296 938 304 929 q 264 950 283 950 q 235 940 246 950 q 220 934 225 933 q 204 944 215 935 m 158 1075 q 207 1081 174 1081 q 285 1068 260 1081 q 390 890 374 1026 q 393 840 393 874 q 342 620 393 726 q 225 496 292 514 q 189 490 200 490 q 103 524 139 490 q 65 613 68 558 l 65 626 q 101 717 65 671 l 117 735 l 93 761 q 40 889 44 815 l 40 908 q 44 956 40 942 q 88 1026 56 993 q 158 1075 121 1060 m 551 960 q 530 967 533 967 q 515 961 526 967 q 488 911 488 946 q 493 887 488 896 q 521 857 499 878 q 567 786 567 813 q 579 788 567 772 q 585 796 581 790 q 643 847 621 847 q 664 865 653 847 q 675 899 675 883 q 662 935 675 919 q 631 950 649 950 q 597 940 611 950 q 590 935 592 936 q 585 933 588 933 q 581 935 582 933 q 578 940 581 936 q 551 960 568 954 m 524 1075 q 575 1083 547 1083 q 649 1068 615 1083 q 706 1023 678 1054 q 749 957 735 992 q 767 840 767 910 q 756 740 767 792 q 693 591 738 661 q 606 501 649 521 q 556 490 579 490 q 469 529 506 490 q 433 625 433 568 q 450 690 433 664 q 478 725 471 719 q 483 736 485 732 q 467 756 482 740 q 410 900 410 814 q 440 1008 410 960 q 524 1075 469 1056 z "},"“":{"ha":806,"x_min":40,"x_max":767,"o":"m 204 944 q 171 964 185 964 q 150 958 161 964 q 130 943 135 953 q 125 910 125 933 q 160 853 125 886 q 201 796 197 817 l 204 774 l 224 801 q 268 842 240 826 q 311 894 311 864 q 310 899 311 896 q 310 904 310 903 q 296 938 304 929 q 264 950 283 950 q 235 940 246 950 q 220 934 225 933 q 204 944 215 935 m 158 1075 q 207 1081 174 1081 q 285 1068 260 1081 q 390 890 374 1026 q 393 840 393 874 q 342 620 393 726 q 225 496 292 514 q 189 490 200 490 q 103 524 139 490 q 65 613 68 558 l 65 626 q 101 717 65 671 l 117 735 l 93 761 q 40 889 44 815 l 40 908 q 44 956 40 942 q 88 1026 56 993 q 158 1075 121 1060 m 551 960 q 530 967 533 967 q 515 961 526 967 q 488 911 488 946 q 493 887 488 896 q 521 857 499 878 q 567 786 567 813 q 579 788 567 772 q 585 796 581 790 q 643 847 621 847 q 664 865 653 847 q 675 899 675 883 q 662 935 675 919 q 631 950 649 950 q 597 940 611 950 q 590 935 592 936 q 585 933 588 933 q 581 935 582 933 q 578 940 581 936 q 551 960 568 954 m 524 1075 q 575 1083 547 1083 q 649 1068 615 1083 q 706 1023 678 1054 q 749 957 735 992 q 767 840 767 910 q 756 740 767 792 q 693 591 738 661 q 606 501 649 521 q 556 490 579 490 q 469 529 506 490 q 433 625 433 568 q 450 690 433 664 q 478 725 471 719 q 483 736 485 732 q 467 756 482 740 q 410 900 410 814 q 440 1008 410 960 q 524 1075 469 1056 z "},"”":{"ha":806,"x_min":40,"x_max":767,"o":"m 204 944 q 171 964 185 964 q 150 958 161 964 q 130 943 135 953 q 125 910 125 933 q 160 853 125 886 q 201 796 197 817 l 204 774 l 224 801 q 268 842 240 826 q 311 894 311 864 q 310 899 311 896 q 310 904 310 903 q 296 938 304 929 q 264 950 283 950 q 235 940 246 950 q 220 934 225 933 q 204 944 215 935 m 158 1075 q 207 1081 174 1081 q 285 1068 260 1081 q 390 890 374 1026 q 393 840 393 874 q 342 620 393 726 q 225 496 292 514 q 189 490 200 490 q 103 524 139 490 q 65 613 68 558 l 65 626 q 101 717 65 671 l 117 735 l 93 761 q 40 889 44 815 l 40 908 q 44 956 40 942 q 88 1026 56 993 q 158 1075 121 1060 m 551 960 q 530 967 533 967 q 515 961 526 967 q 488 911 488 946 q 493 887 488 896 q 521 857 499 878 q 567 786 567 813 q 579 788 567 772 q 585 796 581 790 q 643 847 621 847 q 664 865 653 847 q 675 899 675 883 q 662 935 675 919 q 631 950 649 950 q 597 940 611 950 q 590 935 592 936 q 585 933 588 933 q 581 935 582 933 q 578 940 581 936 q 551 960 568 954 m 524 1075 q 575 1083 547 1083 q 649 1068 615 1083 q 706 1023 678 1054 q 749 957 735 992 q 767 840 767 910 q 756 740 767 792 q 693 591 738 661 q 606 501 649 521 q 556 490 579 490 q 469 529 506 490 q 433 625 433 568 q 450 690 433 664 q 478 725 471 719 q 483 736 485 732 q 467 756 482 740 q 410 900 410 814 q 440 1008 410 960 q 524 1075 469 1056 z "},"„":{"ha":806,"x_min":40,"x_max":767,"o":"m 204 944 q 171 964 185 964 q 150 958 161 964 q 130 943 135 953 q 125 910 125 933 q 160 853 125 886 q 201 796 197 817 l 204 774 l 224 801 q 268 842 240 826 q 311 894 311 864 q 310 899 311 896 q 310 904 310 903 q 296 938 304 929 q 264 950 283 950 q 235 940 246 950 q 220 934 225 933 q 204 944 215 935 m 158 1075 q 207 1081 174 1081 q 285 1068 260 1081 q 390 890 374 1026 q 393 840 393 874 q 342 620 393 726 q 225 496 292 514 q 189 490 200 490 q 103 524 139 490 q 65 613 68 558 l 65 626 q 101 717 65 671 l 117 735 l 93 761 q 40 889 44 815 l 40 908 q 44 956 40 942 q 88 1026 56 993 q 158 1075 121 1060 m 551 960 q 530 967 533 967 q 515 961 526 967 q 488 911 488 946 q 493 887 488 896 q 521 857 499 878 q 567 786 567 813 q 579 788 567 772 q 585 796 581 790 q 643 847 621 847 q 664 865 653 847 q 675 899 675 883 q 662 935 675 919 q 631 950 649 950 q 597 940 611 950 q 590 935 592 936 q 585 933 588 933 q 581 935 582 933 q 578 940 581 936 q 551 960 568 954 m 524 1075 q 575 1083 547 1083 q 649 1068 615 1083 q 706 1023 678 1054 q 749 957 735 992 q 767 840 767 910 q 756 740 767 792 q 693 591 738 661 q 606 501 649 521 q 556 490 579 490 q 469 529 506 490 q 433 625 433 568 q 450 690 433 664 q 478 725 471 719 q 483 736 485 732 q 467 756 482 740 q 410 900 410 814 q 440 1008 410 960 q 524 1075 469 1056 z "},"%":{"ha":1257,"x_min":42,"x_max":1214,"o":"m 196 742 q 178 744 181 739 q 166 749 175 750 q 154 743 157 749 q 153 735 153 740 q 171 703 153 721 l 185 689 l 201 707 q 215 732 215 721 q 203 742 215 742 l 196 742 m 357 835 q 328 847 344 847 q 293 831 308 847 q 272 772 272 810 q 288 715 272 740 q 325 690 303 690 q 347 697 339 690 q 381 771 381 719 q 357 835 381 811 m 224 903 q 200 904 210 894 q 181 914 190 914 q 163 901 169 914 q 157 885 157 892 q 178 853 157 874 q 199 822 199 829 q 217 832 199 814 q 247 861 240 856 q 259 876 258 871 q 249 896 260 882 q 224 903 236 911 m 390 1028 q 372 1024 383 1028 q 354 1019 360 1019 q 335 1028 344 1019 q 308 1040 319 1040 q 285 1026 297 1040 q 272 999 272 1014 q 301 950 272 979 q 332 900 329 919 l 336 881 l 353 907 q 386 939 371 932 q 424 985 424 956 q 413 1014 424 1000 q 390 1028 403 1028 m 265 1074 q 336 1081 296 1081 l 354 1081 q 524 1008 447 1078 q 615 807 615 922 q 593 682 615 747 q 521 554 569 614 q 418 469 472 494 q 374 453 390 456 q 314 450 358 450 q 253 453 269 450 q 210 469 238 456 q 86 583 131 507 q 42 749 42 658 q 78 903 42 831 q 265 1074 146 1040 m 969 1057 q 1013 1063 989 1063 l 1022 1063 q 1108 1019 1072 1061 q 1143 926 1143 976 q 1132 878 1143 899 q 1049 769 1119 853 q 479 -65 701 361 q 394 -197 426 -165 q 311 -228 363 -228 q 196 -162 236 -228 q 178 -90 178 -132 q 203 4 178 -47 q 471 441 271 147 q 825 919 671 735 q 969 1057 929 1043 m 790 96 q 765 100 786 96 q 757 101 763 101 q 744 89 744 101 q 758 60 744 75 l 772 43 l 792 60 q 807 85 807 75 q 790 96 807 96 m 940 163 q 918 165 924 169 q 908 161 917 165 q 874 92 874 143 l 874 79 q 925 11 878 11 q 943 14 936 11 q 979 85 979 26 q 940 163 979 147 m 794 246 q 778 252 782 253 q 767 243 775 251 q 757 224 757 235 q 769 201 757 211 q 792 174 781 192 l 803 157 l 831 183 q 856 215 856 204 q 854 224 856 221 q 828 238 849 238 q 794 246 808 238 m 931 356 q 900 368 918 368 q 875 356 883 368 q 865 331 865 340 q 893 283 865 311 q 926 236 918 258 l 933 215 l 947 236 q 988 272 961 256 q 1010 289 1006 282 q 1015 315 1015 296 q 1005 345 1015 333 q 979 357 994 357 q 956 350 969 357 q 931 356 942 344 m 858 393 q 926 403 883 403 l 951 403 q 1047 382 1007 401 q 1200 208 1164 324 q 1214 99 1214 167 q 1201 -4 1214 36 q 1116 -151 1174 -93 q 982 -225 1058 -210 q 922 -231 956 -231 q 808 -208 854 -231 q 709 -130 753 -182 q 650 -17 665 -78 q 642 71 642 15 q 650 158 642 125 q 733 311 672 243 q 858 393 789 371 z "},"&":{"ha":1322,"x_min":42,"x_max":1278,"o":"m 469 256 l 429 306 l 419 300 q 395 282 408 293 q 372 263 382 271 q 326 169 326 218 q 372 78 326 111 q 460 50 411 50 q 558 71 504 50 q 600 96 600 88 q 558 151 600 106 q 469 256 486 235 m 454 544 q 425 560 453 558 q 401 559 406 561 q 396 549 396 557 q 410 519 396 536 l 424 503 l 440 518 q 454 544 456 532 m 378 717 q 344 711 361 738 q 339 694 339 704 q 361 660 339 681 q 378 633 378 643 q 396 639 378 621 l 399 642 q 428 669 422 665 q 439 689 439 678 q 410 711 439 711 l 403 711 q 378 717 385 707 m 614 803 l 607 803 q 533 774 557 803 q 522 728 522 760 q 529 686 522 704 l 535 671 l 571 696 q 649 782 649 751 q 643 799 649 796 q 614 803 638 801 m 440 913 q 418 918 431 906 q 388 931 406 931 q 353 903 356 931 l 353 894 q 378 846 353 869 q 410 801 401 828 l 418 779 l 431 800 q 469 836 443 821 q 503 879 503 856 q 497 900 503 890 q 469 918 490 917 q 440 913 449 921 m 589 1038 q 556 1053 571 1053 q 526 1038 540 1053 q 511 1004 511 1022 q 547 939 511 972 q 589 874 581 910 l 593 857 l 606 878 q 674 939 621 906 q 697 978 696 953 l 697 988 q 658 1036 697 1036 q 632 1031 644 1036 q 611 1025 619 1025 q 589 1038 606 1025 m 507 1074 q 592 1082 550 1082 q 836 976 729 1082 q 931 767 931 885 q 903 647 931 703 q 733 478 863 565 q 674 433 674 440 q 734 357 674 425 q 801 289 794 289 q 833 341 807 289 q 871 432 858 393 q 915 509 889 486 q 989 532 942 532 q 1069 508 1032 532 q 1126 443 1107 483 q 1140 394 1140 414 q 1139 372 1140 381 q 1054 174 1132 296 q 1014 106 1014 111 q 1052 85 1014 99 q 1137 59 1090 72 q 1193 42 1183 46 q 1255 -20 1232 21 q 1278 -107 1278 -61 q 1240 -200 1278 -168 q 1156 -231 1208 -231 q 1129 -229 1139 -231 q 875 -131 1015 -221 l 825 -99 l 796 -121 q 706 -171 768 -142 q 601 -212 644 -200 q 469 -229 543 -229 q 394 -222 429 -229 q 186 -112 281 -194 q 58 74 92 -29 q 42 185 42 128 q 58 289 42 243 q 249 515 104 422 q 286 544 286 540 q 271 593 286 547 q 238 756 238 686 q 272 894 238 826 q 369 1011 307 963 q 507 1074 432 1060 z "},"'":{"ha":443,"x_min":40,"x_max":403,"o":"m 200 957 q 168 974 181 974 q 144 964 158 974 q 122 925 122 947 q 163 860 122 893 q 199 810 193 833 l 206 786 l 224 811 q 271 851 244 838 q 311 907 311 872 q 310 912 311 908 q 310 917 310 915 q 267 957 303 957 q 235 947 254 957 q 219 943 224 942 q 200 957 215 944 m 168 1078 q 203 1082 181 1082 q 286 1067 258 1082 q 372 978 340 1039 q 403 842 403 917 q 402 829 403 838 q 401 817 401 821 q 347 625 394 721 q 246 501 299 529 q 193 489 221 489 q 103 527 142 489 q 65 621 65 565 q 103 713 65 669 l 119 732 l 93 763 q 40 903 40 819 q 50 964 40 936 q 97 1033 63 1000 q 168 1078 131 1065 z "},"‘":{"ha":443,"x_min":40,"x_max":403,"o":"m 200 957 q 168 974 181 974 q 144 964 158 974 q 122 925 122 947 q 163 860 122 893 q 199 810 193 833 l 206 786 l 224 811 q 271 851 244 838 q 311 907 311 872 q 310 912 311 908 q 310 917 310 915 q 267 957 303 957 q 235 947 254 957 q 219 943 224 942 q 200 957 215 944 m 168 1078 q 203 1082 181 1082 q 286 1067 258 1082 q 372 978 340 1039 q 403 842 403 917 q 402 829 403 838 q 401 817 401 821 q 347 625 394 721 q 246 501 299 529 q 193 489 221 489 q 103 527 142 489 q 65 621 65 565 q 103 713 65 669 l 119 732 l 93 763 q 40 903 40 819 q 50 964 40 936 q 97 1033 63 1000 q 168 1078 131 1065 z "},"’":{"ha":443,"x_min":40,"x_max":403,"o":"m 200 957 q 168 974 181 974 q 144 964 158 974 q 122 925 122 947 q 163 860 122 893 q 199 810 193 833 l 206 786 l 224 811 q 271 851 244 838 q 311 907 311 872 q 310 912 311 908 q 310 917 310 915 q 267 957 303 957 q 235 947 254 957 q 219 943 224 942 q 200 957 215 944 m 168 1078 q 203 1082 181 1082 q 286 1067 258 1082 q 372 978 340 1039 q 403 842 403 917 q 402 829 403 838 q 401 817 401 821 q 347 625 394 721 q 246 501 299 529 q 193 489 221 489 q 103 527 142 489 q 65 621 65 565 q 103 713 65 669 l 119 732 l 93 763 q 40 903 40 819 q 50 964 40 936 q 97 1033 63 1000 q 168 1078 131 1065 z "},"‚":{"ha":443,"x_min":40,"x_max":403,"o":"m 200 957 q 168 974 181 974 q 144 964 158 974 q 122 925 122 947 q 163 860 122 893 q 199 810 193 833 l 206 786 l 224 811 q 271 851 244 838 q 311 907 311 872 q 310 912 311 908 q 310 917 310 915 q 267 957 303 957 q 235 947 254 957 q 219 943 224 942 q 200 957 215 944 m 168 1078 q 203 1082 181 1082 q 286 1067 258 1082 q 372 978 340 1039 q 403 842 403 917 q 402 829 403 838 q 401 817 401 821 q 347 625 394 721 q 246 501 299 529 q 193 489 221 489 q 103 527 142 489 q 65 621 65 565 q 103 713 65 669 l 119 732 l 93 763 q 40 903 40 819 q 50 964 40 936 q 97 1033 63 1000 q 168 1078 131 1065 z "},"(":{"ha":806,"x_min":42,"x_max":763,"o":"m 249 710 q 234 715 244 710 q 218 719 224 719 q 208 715 213 719 q 204 707 204 711 q 219 676 204 696 l 233 660 l 250 672 q 264 696 264 682 q 249 710 264 710 m 325 861 q 301 866 314 861 q 283 871 288 871 q 264 860 274 871 q 254 842 254 847 q 274 815 254 831 q 296 788 296 796 q 322 803 296 781 q 349 839 349 824 q 345 858 349 854 q 325 861 342 861 m 403 1038 q 379 1053 385 1053 q 355 1034 372 1053 q 338 1006 338 1015 q 368 963 338 993 q 401 917 396 935 l 406 901 l 424 925 q 454 953 440 949 q 489 999 489 965 q 479 1029 489 1018 q 456 1040 469 1040 q 432 1032 444 1040 q 403 1038 419 1024 m 563 1193 q 521 1213 543 1213 q 483 1158 483 1213 q 490 1135 483 1144 q 519 1101 496 1125 q 560 1043 556 1065 l 564 1021 l 582 1050 q 629 1093 600 1079 q 665 1119 658 1107 q 669 1142 669 1128 q 656 1186 669 1172 q 624 1199 643 1199 q 593 1189 604 1199 q 578 1183 583 1182 q 563 1193 574 1183 m 563 1263 q 621 1271 594 1271 q 729 1228 686 1271 q 763 1140 763 1193 q 742 1067 763 1093 q 661 1013 721 1040 q 531 904 601 985 q 422 740 460 824 q 346 507 372 633 q 336 338 336 467 q 351 161 336 219 q 521 -144 399 -10 q 589 -233 576 -207 q 604 -293 604 -267 q 568 -374 604 -342 q 474 -407 532 -407 q 350 -356 418 -407 q 174 -137 257 -285 q 63 156 92 10 q 42 386 42 260 q 58 578 42 497 q 192 917 97 760 q 306 1069 235 988 q 432 1189 378 1150 q 465 1215 464 1213 q 505 1240 469 1222 q 563 1263 540 1257 z "},")":{"ha":810,"x_min":43,"x_max":769,"o":"m 213 -192 q 178 -176 197 -176 q 147 -191 160 -176 q 133 -229 133 -206 q 138 -254 133 -246 q 160 -276 142 -262 q 213 -356 213 -324 q 221 -356 213 -369 q 283 -294 250 -308 q 321 -242 321 -279 q 320 -237 321 -240 q 319 -232 319 -235 q 276 -190 314 -190 q 246 -199 263 -190 q 228 -204 232 -206 q 213 -192 225 -203 m 378 -68 q 353 -56 364 -56 q 329 -69 342 -56 q 315 -99 315 -86 q 343 -143 315 -118 q 376 -187 369 -169 l 383 -208 l 397 -186 q 438 -151 411 -167 q 460 -135 454 -142 q 465 -112 465 -128 q 456 -82 465 -96 q 436 -68 447 -68 q 410 -75 424 -68 q 378 -68 394 -82 m 488 53 q 471 60 485 58 q 453 56 457 61 q 449 43 449 51 q 474 -7 449 22 q 501 -24 497 -33 q 525 -1 504 -15 q 546 29 546 11 q 519 51 546 51 q 510 50 514 51 q 488 53 492 47 m 590 172 q 551 185 582 185 q 529 176 529 185 q 541 150 529 168 q 558 132 553 132 q 579 147 561 132 q 590 172 597 163 m 346 1267 l 353 1267 q 467 1209 399 1267 q 596 1063 536 1151 q 769 476 769 803 q 754 301 769 390 q 667 32 733 175 q 496 -224 601 -108 q 289 -385 390 -340 q 178 -411 233 -411 q 160 -410 165 -411 q 76 -362 108 -400 q 43 -276 43 -324 q 51 -232 43 -254 q 79 -192 61 -207 q 140 -156 97 -178 q 297 -22 226 -110 q 438 258 386 88 q 479 522 479 396 q 276 1022 479 803 q 219 1093 232 1069 q 207 1150 207 1117 q 240 1229 207 1201 q 346 1267 274 1257 z "},"+":{"ha":950,"x_min":40,"x_max":910,"o":"m 476 322 q 458 326 472 321 q 440 325 443 331 q 433 313 433 318 q 450 288 433 304 l 467 271 l 483 288 q 500 307 500 301 q 491 319 500 314 q 476 322 482 325 m 457 518 q 432 519 446 528 q 421 500 421 513 q 439 468 421 483 q 461 440 456 451 q 463 436 461 439 q 468 433 465 429 q 474 439 469 435 l 474 440 q 500 463 481 451 q 517 492 518 472 q 511 508 515 506 q 489 511 507 511 q 457 518 464 511 m 481 754 q 453 768 464 768 q 428 753 440 768 q 415 728 415 739 q 444 682 415 714 q 479 633 478 646 l 483 615 l 497 638 q 538 672 511 657 q 561 690 557 683 q 565 715 565 697 q 533 756 565 756 q 508 749 525 756 q 481 754 493 743 m 615 275 q 622 169 615 264 q 628 63 628 75 q 565 -22 628 14 q 490 -40 532 -40 q 354 44 392 -40 q 331 231 331 100 l 331 283 l 311 283 q 228 276 286 283 q 175 272 197 272 q 93 303 124 272 q 56 363 71 325 q 40 436 40 401 q 42 457 40 450 q 66 499 44 475 q 107 535 88 524 q 181 553 125 544 q 278 563 236 563 q 335 567 328 563 q 349 647 342 571 q 372 819 364 797 q 436 890 392 869 q 492 901 463 901 q 561 888 528 901 q 610 853 594 875 q 628 769 628 829 q 626 728 628 743 q 622 625 622 685 l 621 574 l 713 574 q 820 565 790 574 q 875 528 850 557 q 910 428 910 488 q 882 343 910 375 q 828 308 860 317 q 714 297 797 300 l 615 294 l 615 275 z "},",":{"ha":443,"x_min":40,"x_max":403,"o":"m 219 -9 q 217 -9 219 -9 q 204 3 215 -8 q 169 21 193 14 q 135 8 149 25 q 118 -25 118 -8 q 153 -85 118 -50 q 199 -160 199 -135 q 217 -147 199 -174 q 219 -143 218 -146 q 267 -100 240 -111 q 307 -47 307 -81 q 286 0 307 -12 q 265 6 278 6 q 231 -4 243 6 q 219 -9 224 -10 m 171 150 q 208 154 186 154 q 282 142 258 154 q 372 50 340 111 q 403 -90 403 -11 q 371 -253 403 -165 q 290 -392 336 -343 q 193 -442 243 -442 q 114 -408 153 -442 q 67 -310 67 -367 q 104 -214 67 -260 l 121 -194 l 93 -164 q 40 -26 40 -104 q 47 24 40 -4 q 95 100 58 63 q 171 150 132 138 z "},"-":{"ha":726,"x_min":40,"x_max":688,"o":"m 386 467 q 371 471 379 471 q 347 460 353 471 q 343 447 343 453 q 368 411 343 433 q 383 389 383 396 q 407 399 383 379 l 411 403 q 438 440 438 424 q 433 459 438 456 q 413 463 429 463 q 386 467 390 463 m 556 472 q 542 477 551 479 q 532 465 532 475 q 544 440 532 456 q 563 424 556 424 q 583 438 569 424 q 594 458 594 451 q 581 469 594 469 l 574 469 q 556 472 558 467 m 150 476 q 124 489 135 489 q 100 475 113 489 q 86 446 86 461 q 114 403 86 428 q 149 357 142 375 l 154 338 l 165 354 q 213 394 189 389 q 236 431 236 401 q 235 444 236 440 q 204 475 231 475 q 185 471 194 475 q 150 476 167 464 m 404 586 q 503 589 482 589 q 647 549 611 589 q 688 429 688 506 q 665 343 688 375 q 615 305 644 314 q 496 293 585 296 q 303 279 432 290 q 193 272 224 272 q 106 292 135 272 q 63 345 82 308 q 40 418 43 382 l 40 431 q 69 513 40 478 q 139 560 99 549 q 404 586 186 575 z "},".":{"ha":435,"x_min":40,"x_max":397,"o":"m 192 36 q 161 51 175 51 q 133 38 147 51 q 118 -1 118 22 q 124 -28 118 -19 q 151 -58 129 -37 q 193 -112 186 -92 l 200 -135 l 219 -107 q 265 -67 238 -81 q 304 -14 304 -50 q 289 25 304 6 q 261 35 281 35 q 228 26 242 35 q 212 22 217 21 q 192 36 207 24 m 165 147 q 213 156 189 156 q 303 128 260 156 q 372 53 346 100 q 396 -35 394 14 q 397 -49 396 -40 q 397 -60 397 -57 q 383 -117 397 -87 q 236 -224 338 -218 q 211 -225 226 -225 q 160 -212 186 -225 q 64 -119 94 -183 q 40 -28 40 -72 q 74 76 40 26 q 165 147 107 125 z "},"/":{"ha":939,"x_min":42,"x_max":896,"o":"m 364 394 q 349 394 356 403 q 357 356 338 383 l 369 339 l 388 351 q 403 375 403 363 q 385 389 403 389 q 364 394 369 389 m 435 553 q 410 556 424 564 q 399 539 399 549 q 419 501 399 526 q 440 469 440 476 q 450 476 440 464 q 478 499 458 490 q 496 521 496 508 q 474 549 496 549 q 463 547 467 549 q 435 553 442 543 m 553 756 q 525 767 540 767 q 501 756 513 767 q 489 729 489 743 q 519 676 489 707 q 550 629 550 646 q 553 618 550 617 q 569 636 556 619 q 611 672 588 658 q 640 710 640 686 q 635 732 640 715 q 606 754 625 754 q 586 750 597 754 q 553 756 569 742 m 700 982 q 665 997 683 997 q 632 974 644 997 q 622 944 622 954 q 658 889 622 924 q 692 851 683 864 q 703 814 700 838 q 724 832 704 801 q 765 874 742 864 q 801 897 793 888 q 810 929 810 907 q 794 971 810 956 q 772 985 781 985 q 743 976 764 985 q 722 969 725 969 q 700 982 717 969 m 657 1058 q 743 1092 694 1092 q 828 1064 789 1092 q 886 990 868 1036 q 896 947 896 964 q 877 890 896 921 q 807 796 858 860 q 590 468 699 663 q 317 -117 461 236 q 183 -219 274 -219 q 102 -190 139 -219 q 51 -115 65 -161 q 42 -62 42 -81 q 58 13 42 -36 q 181 294 90 104 q 340 601 272 485 q 519 883 421 740 q 657 1058 618 1025 z "},":":{"ha":474,"x_min":42,"x_max":432,"o":"m 232 771 q 196 786 217 786 q 165 773 178 786 q 153 736 153 760 q 159 710 153 721 q 189 678 165 700 q 229 619 225 644 l 233 597 l 253 625 q 297 665 269 650 q 340 719 340 685 q 340 725 340 722 q 339 731 339 728 q 296 774 331 774 q 267 765 283 774 q 249 759 254 758 q 232 771 243 760 m 197 878 q 250 888 222 888 q 374 831 319 888 q 431 693 428 775 q 431 680 431 688 q 432 669 432 672 q 414 607 432 647 q 257 507 364 507 q 165 536 208 507 q 99 613 121 565 q 75 706 75 660 q 106 806 75 756 q 197 878 140 858 m 190 219 q 156 235 175 235 q 119 211 131 235 q 111 182 111 194 q 150 124 111 163 q 190 65 189 88 l 193 44 l 213 71 q 254 111 233 103 q 291 135 283 125 q 299 167 299 144 q 283 208 299 193 q 263 222 269 222 q 232 213 258 222 q 211 207 219 207 q 190 219 206 207 m 154 335 q 213 343 175 343 q 274 335 253 343 q 393 193 367 296 q 399 144 399 171 q 351 19 399 71 q 229 -33 303 -33 l 226 -33 q 113 8 164 -33 q 61 78 81 35 q 42 164 42 121 q 44 194 42 175 q 83 278 53 240 q 154 335 114 317 z "},";":{"ha":474,"x_min":44,"x_max":432,"o":"m 239 771 q 204 786 224 786 q 158 747 167 786 q 158 741 158 744 q 157 736 157 738 q 203 668 157 714 q 235 617 235 636 q 239 600 235 600 q 260 626 243 600 q 304 665 278 654 q 336 688 328 675 q 344 725 344 700 q 331 761 344 747 q 304 774 318 774 q 274 764 296 774 q 254 758 258 757 q 239 771 250 760 m 207 881 q 250 888 231 888 q 345 857 300 888 q 415 775 390 826 q 432 686 432 739 q 422 613 432 639 q 382 557 411 586 q 261 507 332 507 q 197 521 225 507 q 142 556 171 533 q 99 616 118 576 q 79 689 81 656 l 79 701 q 114 813 79 764 q 207 881 149 863 m 214 208 q 179 224 199 224 q 146 209 160 224 q 132 171 132 194 q 168 115 132 149 q 207 63 201 83 q 213 39 213 43 q 226 51 213 36 l 235 64 q 282 106 253 89 q 314 126 308 119 q 319 151 319 133 q 307 194 319 181 q 278 210 294 210 q 247 201 264 210 q 230 197 235 196 q 214 208 225 197 m 156 335 q 219 344 181 344 q 272 338 251 344 q 363 265 324 321 q 407 106 407 200 q 356 -104 407 3 q 197 -250 286 -250 q 108 -211 146 -250 q 71 -119 71 -172 q 104 -28 71 -69 l 125 -3 l 106 17 q 44 158 44 78 q 50 204 44 183 q 156 335 74 299 z "},"=":{"ha":914,"x_min":43,"x_max":872,"o":"m 639 614 q 607 626 631 624 l 599 626 q 578 615 578 626 q 592 592 578 606 l 608 574 l 626 589 q 639 614 643 604 m 483 639 q 457 640 461 633 q 439 647 453 647 q 422 638 425 646 q 419 622 419 632 q 439 589 419 613 q 460 560 460 565 q 471 565 460 551 q 499 588 481 576 q 515 617 515 597 q 510 635 515 624 q 483 639 504 643 m 276 639 q 250 653 260 653 q 225 638 238 653 q 213 613 213 622 q 242 567 213 597 q 275 518 272 533 l 281 501 l 294 522 q 335 557 308 542 q 358 575 354 568 q 363 600 363 582 q 331 640 363 640 q 306 633 322 640 q 276 639 290 626 m 354 731 q 607 738 504 738 q 735 736 711 738 q 779 725 760 735 q 854 586 854 689 q 838 519 854 543 q 782 476 822 494 q 578 458 756 463 q 200 436 340 453 q 174 435 189 435 q 129 446 150 435 q 54 543 75 474 q 43 597 43 583 q 51 633 43 613 q 131 705 75 686 q 354 731 188 724 m 626 314 q 616 319 624 319 q 604 315 608 319 q 614 278 592 304 l 628 261 l 647 278 q 663 304 663 292 q 651 313 663 313 l 644 313 q 626 314 628 310 m 485 329 q 450 331 468 349 q 443 313 443 324 q 460 281 443 297 q 479 256 479 261 q 482 249 479 249 q 513 269 486 249 q 538 304 538 290 q 530 324 538 317 q 514 332 522 332 q 503 328 508 332 q 485 329 492 321 m 300 329 q 272 343 285 343 q 250 331 263 343 q 236 301 236 317 q 267 251 236 282 q 297 207 297 221 q 314 206 297 183 q 319 214 317 210 q 356 246 333 236 q 385 272 378 257 q 388 290 388 279 q 377 319 388 307 q 353 331 367 331 q 333 325 343 331 q 317 319 322 318 q 300 329 311 319 m 421 422 q 661 428 610 428 q 778 422 750 428 q 827 390 801 417 q 863 335 853 363 q 872 278 872 307 q 847 201 872 233 q 778 157 822 168 q 597 147 764 153 q 364 138 482 146 q 190 126 211 126 q 140 138 163 126 q 85 199 108 154 q 61 285 61 243 q 62 292 61 286 q 63 299 63 297 q 92 360 65 332 q 157 399 118 389 q 421 422 211 414 z "},"?":{"ha":950,"x_min":43,"x_max":906,"o":"m 188 896 q 156 913 169 913 q 128 899 143 913 q 111 858 111 885 q 116 833 111 842 q 143 806 121 825 q 188 735 188 765 q 192 721 188 721 q 214 749 196 721 q 261 790 232 776 q 301 843 301 810 q 300 856 301 851 q 256 896 292 896 q 224 886 243 896 q 208 882 213 881 q 188 896 203 883 m 699 939 q 682 939 689 949 q 692 901 669 928 l 706 885 l 722 897 q 738 921 738 910 q 718 935 738 935 q 699 939 703 935 m 396 992 q 368 1004 383 1004 q 342 992 353 1004 q 332 960 332 981 q 363 914 332 943 q 393 868 393 885 q 396 857 393 857 q 422 882 401 857 q 461 914 451 914 q 482 949 482 914 q 474 979 482 967 q 447 992 465 992 q 422 985 436 992 q 396 992 411 978 m 610 1011 q 601 1010 607 1010 q 582 1015 594 1010 q 564 1021 569 1021 q 551 1015 557 1021 q 544 999 544 1008 q 565 961 544 985 q 586 931 586 935 q 596 936 586 924 q 624 958 604 950 q 642 985 642 967 q 621 1014 642 1014 q 610 1011 618 1014 m 439 1078 q 571 1097 513 1097 q 817 981 710 1097 q 906 782 906 886 q 897 719 906 750 q 819 578 876 650 q 706 459 763 506 q 604 375 649 413 q 560 326 560 338 q 562 305 560 325 q 564 272 564 285 q 464 169 564 181 l 450 169 q 308 286 356 169 q 279 408 279 354 q 306 494 279 460 q 415 589 317 513 q 553 701 499 650 q 625 811 625 769 q 597 835 625 835 q 458 796 542 835 q 306 699 375 757 q 186 643 238 643 q 181 644 185 643 q 176 644 178 644 q 82 694 121 654 q 43 781 43 735 q 44 797 43 792 q 172 955 60 875 q 439 1078 283 1035 m 396 136 q 438 142 411 142 q 515 128 481 142 q 592 53 563 106 q 622 -57 622 1 q 581 -172 622 -125 q 456 -232 529 -232 q 376 -212 418 -232 q 297 -140 326 -187 q 268 -37 268 -92 q 290 51 268 11 q 396 136 322 111 z "},"@":{"ha":1369,"x_min":42,"x_max":1328,"o":"m 649 -114 q 614 -99 633 -99 q 582 -113 596 -99 q 568 -151 568 -128 q 596 -201 568 -175 q 647 -279 647 -249 q 656 -281 647 -292 q 669 -262 660 -276 q 718 -218 690 -229 q 748 -197 740 -208 q 756 -161 756 -185 q 742 -125 756 -139 q 713 -110 726 -110 q 683 -119 703 -110 q 665 -126 669 -126 q 649 -114 661 -125 m 863 -50 q 835 -37 850 -37 q 809 -49 819 -37 q 799 -79 799 -61 q 829 -128 799 -97 q 860 -175 860 -158 l 860 -192 l 882 -165 q 924 -131 908 -136 q 950 -92 950 -121 q 931 -54 950 -68 q 914 -46 919 -46 q 894 -53 908 -46 q 876 -59 879 -60 q 863 -50 872 -58 m 1007 22 q 989 28 1003 29 q 972 19 975 28 q 969 4 969 14 q 989 -32 969 -8 q 1011 -62 1011 -60 q 1014 -62 1011 -65 q 1025 -50 1017 -60 q 1053 -28 1042 -31 q 1065 -8 1065 -24 q 1039 21 1065 21 q 1035 20 1038 21 q 1029 19 1032 19 q 1007 22 1011 17 m 1110 78 q 1099 83 1107 83 q 1088 79 1092 83 q 1083 69 1083 75 q 1099 39 1083 58 l 1115 21 l 1132 39 q 1147 65 1147 54 q 1133 76 1147 76 l 1128 76 q 1110 78 1111 74 m 467 382 q 438 389 463 383 q 424 390 432 390 q 407 381 407 390 q 421 354 407 369 l 438 332 l 454 349 q 467 382 482 374 m 465 549 q 433 553 446 544 q 417 558 426 558 q 399 536 399 558 q 417 499 399 515 q 435 474 435 481 q 442 465 435 465 q 451 474 449 465 q 475 494 454 482 q 497 526 497 507 q 474 550 497 550 q 469 549 472 550 q 465 549 467 549 m 694 554 l 694 582 q 693 617 694 617 l 665 597 q 571 429 589 539 q 568 413 568 418 q 570 406 568 407 q 578 404 572 404 q 618 418 590 404 q 658 443 646 432 q 685 483 678 461 q 694 554 692 506 m 590 725 q 569 722 581 725 q 556 718 558 718 q 539 726 547 718 q 507 738 524 738 q 481 725 489 738 q 471 700 471 711 q 501 649 471 679 q 532 601 532 618 q 536 588 532 588 q 557 610 540 588 q 596 644 578 636 q 616 658 611 651 q 622 678 621 664 l 622 688 q 590 725 622 725 m 694 865 q 665 876 675 876 q 638 863 653 876 q 619 822 619 849 q 624 797 619 806 q 647 772 629 789 q 696 700 696 725 q 701 683 696 683 q 724 710 707 683 q 767 750 740 736 q 811 808 811 771 q 798 845 811 832 q 764 858 785 858 q 732 850 749 858 q 714 847 714 842 q 694 865 714 851 m 617 1183 q 746 1192 665 1192 q 875 1183 825 1192 q 1151 1069 1036 1156 q 1313 857 1267 983 q 1328 719 1328 813 q 1318 588 1328 622 q 1083 239 1264 396 q 960 147 1006 172 q 874 121 915 121 l 863 121 q 760 164 807 125 l 742 179 l 707 163 q 635 135 674 144 q 575 128 610 128 q 456 159 513 128 q 363 246 399 190 q 318 410 318 315 q 422 719 318 560 q 499 810 447 760 q 581 876 550 860 q 725 913 649 913 q 828 892 782 913 q 894 843 860 876 q 944 778 928 810 q 961 697 961 747 q 947 601 961 651 q 932 506 932 540 l 932 469 l 947 483 q 1006 553 971 506 q 1056 632 1042 601 q 1085 728 1085 693 q 1050 814 1085 767 q 750 968 939 968 q 524 899 628 968 q 363 710 419 829 q 290 369 290 557 q 349 85 290 201 q 579 -60 418 -60 q 629 -56 604 -60 q 722 -31 679 -49 q 892 50 764 -14 q 1186 161 1099 156 q 1210 163 1196 163 q 1243 149 1229 163 q 1258 114 1258 133 q 1244 67 1258 94 q 1086 -122 1203 -22 q 846 -274 969 -221 q 724 -315 774 -306 q 596 -325 675 -325 q 457 -311 506 -325 q 189 -131 293 -264 q 50 213 85 3 q 42 332 42 263 q 72 613 42 479 q 270 997 126 846 q 617 1183 414 1147 z "},"A":{"ha":1039,"x_min":40,"x_max":1003,"o":"m 875 383 q 858 388 867 383 q 846 392 849 392 q 833 381 839 392 q 846 349 829 369 l 863 329 l 879 344 q 893 369 893 357 q 875 383 893 383 m 267 474 q 255 478 263 478 q 244 474 247 478 q 240 464 240 469 q 256 433 240 451 l 271 417 l 289 431 q 306 456 306 443 q 288 468 306 468 q 267 474 272 468 m 846 597 q 835 603 839 603 q 821 597 831 603 q 810 578 810 590 q 831 538 810 558 q 851 508 851 511 q 879 529 851 504 q 906 568 906 556 q 901 585 906 582 q 878 589 896 589 q 846 597 854 589 m 358 656 q 321 664 335 656 q 294 658 308 672 q 283 642 283 647 q 304 611 283 633 q 325 581 325 588 q 333 575 325 571 l 340 583 q 365 604 343 592 q 385 636 386 615 q 380 653 383 650 q 358 656 376 656 m 672 767 q 650 781 665 781 q 581 735 625 781 q 503 629 538 690 q 469 563 469 571 q 482 556 469 556 q 514 558 486 556 q 638 576 558 563 l 710 590 l 708 619 q 694 702 707 650 q 672 767 681 754 m 819 839 q 792 853 803 853 q 768 838 781 853 q 756 808 756 821 q 785 763 756 792 q 819 714 818 729 l 822 696 l 840 719 q 879 753 858 744 q 913 794 913 765 q 900 825 913 811 q 876 840 888 840 q 851 832 867 840 q 819 839 836 824 m 419 886 q 390 900 404 900 q 368 888 381 900 q 356 858 356 872 q 382 814 356 839 q 418 769 411 788 l 426 749 l 443 771 q 481 801 461 794 q 513 842 513 814 q 500 874 513 857 q 472 889 488 889 q 449 881 461 889 q 419 886 436 872 m 628 1036 q 593 1051 610 1051 q 562 1036 575 1051 q 549 999 549 1021 q 554 973 549 982 q 582 943 560 964 q 629 869 624 903 q 651 888 631 860 q 700 931 674 918 q 742 986 742 954 q 741 991 742 988 q 740 996 740 994 q 723 1026 738 1011 q 697 1040 708 1040 q 668 1031 688 1040 q 649 1024 651 1024 q 628 1036 644 1024 m 571 1079 q 635 1086 596 1086 q 799 1043 729 1086 q 989 683 942 954 q 1003 351 1003 600 q 997 175 1003 256 q 960 -121 976 -54 q 913 -194 949 -167 q 831 -222 878 -222 q 741 -192 781 -222 q 685 -114 701 -162 q 678 -53 678 -94 q 694 90 678 7 q 713 257 713 176 q 706 296 713 296 q 468 236 689 296 q 392 222 415 222 q 351 210 360 222 q 336 144 342 199 q 332 83 332 111 q 338 -11 332 69 q 340 -43 339 -25 q 342 -72 342 -61 q 343 -89 343 -82 q 335 -132 343 -111 q 285 -199 318 -175 q 214 -222 253 -222 q 124 -185 163 -222 q 40 83 40 -106 q 57 251 40 171 q 119 471 74 331 q 392 968 231 807 q 571 1079 479 1056 z "},"a":{"ha":1039,"x_min":40,"x_max":1003,"o":"m 875 383 q 858 388 867 383 q 846 392 849 392 q 833 381 839 392 q 846 349 829 369 l 863 329 l 879 344 q 893 369 893 357 q 875 383 893 383 m 267 474 q 255 478 263 478 q 244 474 247 478 q 240 464 240 469 q 256 433 240 451 l 271 417 l 289 431 q 306 456 306 443 q 288 468 306 468 q 267 474 272 468 m 846 597 q 835 603 839 603 q 821 597 831 603 q 810 578 810 590 q 831 538 810 558 q 851 508 851 511 q 879 529 851 504 q 906 568 906 556 q 901 585 906 582 q 878 589 896 589 q 846 597 854 589 m 358 656 q 321 664 335 656 q 294 658 308 672 q 283 642 283 647 q 304 611 283 633 q 325 581 325 588 q 333 575 325 571 l 340 583 q 365 604 343 592 q 385 636 386 615 q 380 653 383 650 q 358 656 376 656 m 672 767 q 650 781 665 781 q 581 735 625 781 q 503 629 538 690 q 469 563 469 571 q 482 556 469 556 q 514 558 486 556 q 638 576 558 563 l 710 590 l 708 619 q 694 702 707 650 q 672 767 681 754 m 819 839 q 792 853 803 853 q 768 838 781 853 q 756 808 756 821 q 785 763 756 792 q 819 714 818 729 l 822 696 l 840 719 q 879 753 858 744 q 913 794 913 765 q 900 825 913 811 q 876 840 888 840 q 851 832 867 840 q 819 839 836 824 m 419 886 q 390 900 404 900 q 368 888 381 900 q 356 858 356 872 q 382 814 356 839 q 418 769 411 788 l 426 749 l 443 771 q 481 801 461 794 q 513 842 513 814 q 500 874 513 857 q 472 889 488 889 q 449 881 461 889 q 419 886 436 872 m 628 1036 q 593 1051 610 1051 q 562 1036 575 1051 q 549 999 549 1021 q 554 973 549 982 q 582 943 560 964 q 629 869 624 903 q 651 888 631 860 q 700 931 674 918 q 742 986 742 954 q 741 991 742 988 q 740 996 740 994 q 723 1026 738 1011 q 697 1040 708 1040 q 668 1031 688 1040 q 649 1024 651 1024 q 628 1036 644 1024 m 571 1079 q 635 1086 596 1086 q 799 1043 729 1086 q 989 683 942 954 q 1003 351 1003 600 q 997 175 1003 256 q 960 -121 976 -54 q 913 -194 949 -167 q 831 -222 878 -222 q 741 -192 781 -222 q 685 -114 701 -162 q 678 -53 678 -94 q 694 90 678 7 q 713 257 713 176 q 706 296 713 296 q 468 236 689 296 q 392 222 415 222 q 351 210 360 222 q 336 144 342 199 q 332 83 332 111 q 338 -11 332 69 q 340 -43 339 -25 q 342 -72 342 -61 q 343 -89 343 -82 q 335 -132 343 -111 q 285 -199 318 -175 q 214 -222 253 -222 q 124 -185 163 -222 q 40 83 40 -106 q 57 251 40 171 q 119 471 74 331 q 392 968 231 807 q 571 1079 479 1056 z "},"B":{"ha":946,"x_min":40,"x_max":904,"o":"m 453 265 q 357 281 367 279 l 340 285 l 344 182 q 350 72 347 82 q 367 65 353 65 q 451 87 394 65 q 556 138 507 108 q 614 186 606 167 q 615 218 625 207 q 453 265 592 243 m 200 517 q 161 524 179 524 q 143 513 143 524 q 157 488 143 503 l 175 467 l 192 481 q 208 506 208 493 q 200 517 208 514 m 574 599 q 563 604 571 604 q 551 600 556 604 q 547 589 547 596 q 564 560 547 575 l 581 544 l 597 561 q 610 586 610 575 q 596 597 610 597 l 590 597 q 574 599 575 594 m 194 671 q 174 672 188 671 q 154 674 160 674 q 129 653 129 674 q 153 619 129 640 q 178 589 178 597 q 184 591 178 586 q 204 608 190 596 q 231 651 231 633 q 197 671 231 671 l 194 671 m 681 722 q 660 732 668 732 q 642 717 649 732 q 639 706 639 708 q 660 675 639 696 q 686 640 686 649 q 700 647 686 633 q 726 671 711 664 q 740 696 740 676 q 725 721 740 714 q 701 719 710 726 q 681 722 692 711 m 553 801 q 504 800 513 801 q 432 780 478 796 q 371 753 386 764 l 349 739 l 344 681 q 342 632 342 642 l 343 618 l 344 618 q 472 688 356 618 q 588 786 588 754 q 582 799 588 796 q 553 801 576 801 m 192 883 q 160 894 181 894 q 136 888 143 894 q 129 857 129 881 q 157 813 129 835 q 194 768 183 792 l 206 749 l 218 768 q 253 800 231 788 q 273 816 269 810 q 276 840 276 822 q 261 879 276 868 q 244 888 250 888 q 225 881 239 888 q 206 874 210 874 q 192 883 201 875 m 665 942 q 636 956 651 956 q 611 942 621 956 q 601 917 601 928 q 635 868 601 897 q 672 821 667 840 l 678 803 l 692 826 q 729 860 707 850 q 757 897 757 872 q 756 910 757 906 q 715 943 747 943 q 692 936 703 943 q 665 942 679 929 m 406 997 q 363 1018 385 1018 q 326 997 342 1018 q 318 971 318 985 q 360 908 318 938 q 407 843 407 872 q 411 829 407 829 q 425 846 417 829 q 483 901 439 882 q 513 949 513 914 q 494 993 513 974 q 464 1004 483 1004 q 433 994 444 1004 q 419 988 422 988 q 406 997 415 989 m 465 1081 q 544 1086 494 1086 q 664 1074 617 1086 q 803 997 747 1051 q 876 864 858 943 q 885 797 885 831 q 699 514 885 635 l 649 481 l 669 474 q 796 406 743 449 q 897 253 871 349 q 904 182 904 231 q 893 92 904 124 q 834 -11 875 35 q 713 -110 793 -57 q 389 -225 533 -225 q 297 -206 335 -225 q 247 -189 264 -189 q 225 -190 233 -189 q 197 -193 206 -193 q 65 -76 92 -193 q 60 58 60 -53 q 61 219 60 151 q 63 374 63 282 q 50 656 63 510 q 40 843 40 799 q 72 975 40 944 q 150 1001 101 1001 q 160 1001 153 1001 q 171 1000 167 1000 q 179 999 174 1000 q 188 999 185 999 q 283 1028 208 999 q 465 1081 383 1067 z "},"b":{"ha":946,"x_min":40,"x_max":904,"o":"m 453 265 q 357 281 367 279 l 340 285 l 344 182 q 350 72 347 82 q 367 65 353 65 q 451 87 394 65 q 556 138 507 108 q 614 186 606 167 q 615 218 625 207 q 453 265 592 243 m 200 517 q 161 524 179 524 q 143 513 143 524 q 157 488 143 503 l 175 467 l 192 481 q 208 506 208 493 q 200 517 208 514 m 574 599 q 563 604 571 604 q 551 600 556 604 q 547 589 547 596 q 564 560 547 575 l 581 544 l 597 561 q 610 586 610 575 q 596 597 610 597 l 590 597 q 574 599 575 594 m 194 671 q 174 672 188 671 q 154 674 160 674 q 129 653 129 674 q 153 619 129 640 q 178 589 178 597 q 184 591 178 586 q 204 608 190 596 q 231 651 231 633 q 197 671 231 671 l 194 671 m 681 722 q 660 732 668 732 q 642 717 649 732 q 639 706 639 708 q 660 675 639 696 q 686 640 686 649 q 700 647 686 633 q 726 671 711 664 q 740 696 740 676 q 725 721 740 714 q 701 719 710 726 q 681 722 692 711 m 553 801 q 504 800 513 801 q 432 780 478 796 q 371 753 386 764 l 349 739 l 344 681 q 342 632 342 642 l 343 618 l 344 618 q 472 688 356 618 q 588 786 588 754 q 582 799 588 796 q 553 801 576 801 m 192 883 q 160 894 181 894 q 136 888 143 894 q 129 857 129 881 q 157 813 129 835 q 194 768 183 792 l 206 749 l 218 768 q 253 800 231 788 q 273 816 269 810 q 276 840 276 822 q 261 879 276 868 q 244 888 250 888 q 225 881 239 888 q 206 874 210 874 q 192 883 201 875 m 665 942 q 636 956 651 956 q 611 942 621 956 q 601 917 601 928 q 635 868 601 897 q 672 821 667 840 l 678 803 l 692 826 q 729 860 707 850 q 757 897 757 872 q 756 910 757 906 q 715 943 747 943 q 692 936 703 943 q 665 942 679 929 m 406 997 q 363 1018 385 1018 q 326 997 342 1018 q 318 971 318 985 q 360 908 318 938 q 407 843 407 872 q 411 829 407 829 q 425 846 417 829 q 483 901 439 882 q 513 949 513 914 q 494 993 513 974 q 464 1004 483 1004 q 433 994 444 1004 q 419 988 422 988 q 406 997 415 989 m 465 1081 q 544 1086 494 1086 q 664 1074 617 1086 q 803 997 747 1051 q 876 864 858 943 q 885 797 885 831 q 699 514 885 635 l 649 481 l 669 474 q 796 406 743 449 q 897 253 871 349 q 904 182 904 231 q 893 92 904 124 q 834 -11 875 35 q 713 -110 793 -57 q 389 -225 533 -225 q 297 -206 335 -225 q 247 -189 264 -189 q 225 -190 233 -189 q 197 -193 206 -193 q 65 -76 92 -193 q 60 58 60 -53 q 61 219 60 151 q 63 374 63 282 q 50 656 63 510 q 40 843 40 799 q 72 975 40 944 q 150 1001 101 1001 q 160 1001 153 1001 q 171 1000 167 1000 q 179 999 174 1000 q 188 999 185 999 q 283 1028 208 999 q 465 1081 383 1067 z "},"C":{"ha":989,"x_min":42,"x_max":950,"o":"m 260 568 q 252 569 257 568 q 240 571 247 569 q 231 572 233 572 q 221 574 228 574 q 207 563 207 574 q 221 535 207 553 l 238 515 l 254 528 q 271 556 271 540 q 260 568 271 568 m 342 725 q 335 724 339 724 q 315 730 328 724 q 297 736 303 736 q 285 731 290 736 q 278 713 278 724 q 299 671 278 694 q 319 640 319 644 q 335 653 319 635 q 363 674 350 671 q 375 699 375 678 q 353 728 375 728 q 342 725 350 728 m 442 904 q 413 918 428 918 q 388 906 397 918 q 378 874 378 894 q 407 824 378 853 q 440 774 436 794 l 444 753 l 458 776 q 490 810 471 799 q 532 858 532 832 q 525 886 532 868 q 496 906 514 906 q 474 900 483 906 q 456 894 461 893 q 442 904 451 894 m 672 974 q 636 990 656 990 q 593 953 606 990 q 589 933 589 942 q 632 867 589 910 q 668 810 665 836 l 674 785 l 690 813 q 720 849 703 833 q 747 865 738 865 q 767 879 756 865 q 781 921 781 893 q 768 961 781 947 q 733 974 756 974 q 703 965 715 974 q 689 960 693 958 q 672 974 685 961 m 511 1058 q 610 1081 579 1081 l 619 1081 q 768 1004 696 1076 q 857 843 836 935 q 864 788 864 808 q 846 721 864 749 q 754 678 818 678 q 711 686 732 678 q 671 715 693 693 q 640 756 649 736 q 626 774 632 774 q 519 692 599 774 q 326 274 326 486 q 332 211 326 253 q 381 96 346 131 q 426 83 393 83 q 597 132 504 83 q 704 204 650 161 q 763 247 750 240 q 801 253 775 253 q 906 206 863 253 q 950 96 950 160 q 932 19 950 57 q 721 -156 889 -71 q 438 -224 581 -224 l 413 -224 q 354 -219 371 -222 q 304 -199 338 -215 q 214 -132 258 -176 q 47 181 74 11 q 42 278 42 214 q 50 400 42 356 q 155 700 78 543 q 308 929 232 857 q 410 1011 368 985 q 511 1058 451 1038 z "},"c":{"ha":989,"x_min":42,"x_max":950,"o":"m 260 568 q 252 569 257 568 q 240 571 247 569 q 231 572 233 572 q 221 574 228 574 q 207 563 207 574 q 221 535 207 553 l 238 515 l 254 528 q 271 556 271 540 q 260 568 271 568 m 342 725 q 335 724 339 724 q 315 730 328 724 q 297 736 303 736 q 285 731 290 736 q 278 713 278 724 q 299 671 278 694 q 319 640 319 644 q 335 653 319 635 q 363 674 350 671 q 375 699 375 678 q 353 728 375 728 q 342 725 350 728 m 442 904 q 413 918 428 918 q 388 906 397 918 q 378 874 378 894 q 407 824 378 853 q 440 774 436 794 l 444 753 l 458 776 q 490 810 471 799 q 532 858 532 832 q 525 886 532 868 q 496 906 514 906 q 474 900 483 906 q 456 894 461 893 q 442 904 451 894 m 672 974 q 636 990 656 990 q 593 953 606 990 q 589 933 589 942 q 632 867 589 910 q 668 810 665 836 l 674 785 l 690 813 q 720 849 703 833 q 747 865 738 865 q 767 879 756 865 q 781 921 781 893 q 768 961 781 947 q 733 974 756 974 q 703 965 715 974 q 689 960 693 958 q 672 974 685 961 m 511 1058 q 610 1081 579 1081 l 619 1081 q 768 1004 696 1076 q 857 843 836 935 q 864 788 864 808 q 846 721 864 749 q 754 678 818 678 q 711 686 732 678 q 671 715 693 693 q 640 756 649 736 q 626 774 632 774 q 519 692 599 774 q 326 274 326 486 q 332 211 326 253 q 381 96 346 131 q 426 83 393 83 q 597 132 504 83 q 704 204 650 161 q 763 247 750 240 q 801 253 775 253 q 906 206 863 253 q 950 96 950 160 q 932 19 950 57 q 721 -156 889 -71 q 438 -224 581 -224 l 413 -224 q 354 -219 371 -222 q 304 -199 338 -215 q 214 -132 258 -176 q 47 181 74 11 q 42 278 42 214 q 50 400 42 356 q 155 700 78 543 q 308 929 232 857 q 410 1011 368 985 q 511 1058 451 1038 z "},"D":{"ha":1156,"x_min":43,"x_max":1117,"o":"m 336 356 q 315 358 321 356 q 307 361 310 361 q 299 350 299 361 q 311 317 299 338 l 326 297 l 344 314 q 364 338 364 331 q 355 349 364 343 q 336 356 346 356 m 369 522 q 342 528 347 522 q 323 532 336 533 q 304 525 310 531 q 297 508 297 518 q 318 471 297 489 q 340 442 340 449 q 357 450 340 436 q 389 478 376 469 q 397 506 403 486 q 389 519 393 517 q 369 522 385 522 m 356 736 q 326 749 343 749 q 299 738 311 749 q 288 711 288 726 q 289 700 288 704 q 319 658 292 686 q 351 610 347 631 l 356 590 l 369 613 q 386 634 376 625 q 411 653 396 643 q 432 667 426 663 q 442 697 442 676 q 432 728 442 719 q 401 738 422 738 q 378 731 385 738 q 356 736 371 724 m 597 754 q 536 774 546 774 q 525 767 528 774 q 494 257 507 713 l 490 131 l 507 135 q 597 174 533 140 q 696 235 660 208 q 850 471 850 351 q 847 503 850 481 q 764 644 833 574 q 597 754 694 715 m 833 782 q 811 786 819 782 q 803 789 806 789 q 789 771 789 789 q 796 754 789 761 q 810 736 806 744 q 817 731 813 729 q 836 743 821 732 q 851 772 858 760 q 833 782 844 782 m 704 879 q 685 889 694 889 q 667 878 674 889 q 661 861 661 864 q 682 829 661 850 q 703 796 703 808 q 704 788 703 788 q 715 800 707 788 q 746 826 726 815 q 764 853 764 836 q 740 881 764 881 q 726 876 733 881 q 704 879 715 869 m 538 985 q 508 997 522 997 q 483 986 493 997 q 474 956 474 975 q 501 907 474 935 q 533 858 528 881 l 536 839 l 554 864 q 588 896 572 889 q 625 943 625 913 q 615 974 625 963 q 588 986 604 986 q 563 979 576 986 q 538 985 551 972 m 294 1001 q 261 1017 279 1017 q 227 1002 242 1017 q 213 964 213 988 q 251 901 213 942 q 292 840 292 857 q 296 822 292 822 q 318 850 300 822 q 361 890 336 879 q 406 947 406 911 q 397 981 406 961 q 365 1003 385 1003 q 336 996 354 1003 q 313 989 318 989 q 294 1001 307 989 m 182 1075 q 299 1082 207 1082 q 535 1068 461 1082 q 935 863 769 1026 q 1117 449 1117 688 q 1097 293 1117 367 q 1053 183 1085 246 q 992 83 1022 121 q 532 -179 856 -82 q 264 -222 389 -222 q 140 -211 171 -222 q 70 -160 97 -197 q 43 -83 43 -124 q 83 10 43 -35 q 181 71 124 56 l 207 78 l 207 128 q 222 678 207 208 l 225 774 l 208 778 q 86 892 133 796 q 68 957 68 926 q 100 1028 68 993 q 182 1075 131 1060 z "},"d":{"ha":1156,"x_min":43,"x_max":1117,"o":"m 336 356 q 315 358 321 356 q 307 361 310 361 q 299 350 299 361 q 311 317 299 338 l 326 297 l 344 314 q 364 338 364 331 q 355 349 364 343 q 336 356 346 356 m 369 522 q 342 528 347 522 q 323 532 336 533 q 304 525 310 531 q 297 508 297 518 q 318 471 297 489 q 340 442 340 449 q 357 450 340 436 q 389 478 376 469 q 397 506 403 486 q 389 519 393 517 q 369 522 385 522 m 356 736 q 326 749 343 749 q 299 738 311 749 q 288 711 288 726 q 289 700 288 704 q 319 658 292 686 q 351 610 347 631 l 356 590 l 369 613 q 386 634 376 625 q 411 653 396 643 q 432 667 426 663 q 442 697 442 676 q 432 728 442 719 q 401 738 422 738 q 378 731 385 738 q 356 736 371 724 m 597 754 q 536 774 546 774 q 525 767 528 774 q 494 257 507 713 l 490 131 l 507 135 q 597 174 533 140 q 696 235 660 208 q 850 471 850 351 q 847 503 850 481 q 764 644 833 574 q 597 754 694 715 m 833 782 q 811 786 819 782 q 803 789 806 789 q 789 771 789 789 q 796 754 789 761 q 810 736 806 744 q 817 731 813 729 q 836 743 821 732 q 851 772 858 760 q 833 782 844 782 m 704 879 q 685 889 694 889 q 667 878 674 889 q 661 861 661 864 q 682 829 661 850 q 703 796 703 808 q 704 788 703 788 q 715 800 707 788 q 746 826 726 815 q 764 853 764 836 q 740 881 764 881 q 726 876 733 881 q 704 879 715 869 m 538 985 q 508 997 522 997 q 483 986 493 997 q 474 956 474 975 q 501 907 474 935 q 533 858 528 881 l 536 839 l 554 864 q 588 896 572 889 q 625 943 625 913 q 615 974 625 963 q 588 986 604 986 q 563 979 576 986 q 538 985 551 972 m 294 1001 q 261 1017 279 1017 q 227 1002 242 1017 q 213 964 213 988 q 251 901 213 942 q 292 840 292 857 q 296 822 292 822 q 318 850 300 822 q 361 890 336 879 q 406 947 406 911 q 397 981 406 961 q 365 1003 385 1003 q 336 996 354 1003 q 313 989 318 989 q 294 1001 307 989 m 182 1075 q 299 1082 207 1082 q 535 1068 461 1082 q 935 863 769 1026 q 1117 449 1117 688 q 1097 293 1117 367 q 1053 183 1085 246 q 992 83 1022 121 q 532 -179 856 -82 q 264 -222 389 -222 q 140 -211 171 -222 q 70 -160 97 -197 q 43 -83 43 -124 q 83 10 43 -35 q 181 71 124 56 l 207 78 l 207 128 q 222 678 207 208 l 225 774 l 208 778 q 86 892 133 796 q 68 957 68 926 q 100 1028 68 993 q 182 1075 131 1060 z "},"E":{"ha":950,"x_min":40,"x_max":910,"o":"m 649 524 q 607 544 628 544 q 579 536 588 544 q 568 506 568 521 q 611 435 568 474 q 657 358 657 390 q 660 347 657 347 q 682 369 661 347 q 731 403 708 400 q 767 442 767 410 q 754 482 767 461 q 707 507 739 507 q 690 506 696 507 q 685 505 688 506 q 681 504 682 504 q 649 524 668 504 m 176 883 q 164 890 169 890 q 151 876 151 890 q 157 863 151 869 q 186 831 179 831 q 200 838 190 831 q 215 860 215 849 q 197 876 215 874 q 176 883 181 879 m 303 932 q 284 944 294 942 q 268 939 274 946 q 264 926 264 935 q 281 893 264 908 q 307 857 300 874 q 319 850 314 839 q 346 868 325 860 q 367 892 367 875 q 356 915 367 906 q 333 924 346 924 l 328 924 q 303 932 314 919 m 482 958 q 450 972 469 972 q 425 963 433 972 q 415 942 415 953 q 449 890 415 925 q 486 839 481 860 l 489 821 l 511 843 q 544 865 531 865 q 565 872 558 865 q 572 894 572 879 q 560 935 572 918 q 536 949 547 949 q 521 947 526 949 q 482 958 496 944 m 685 971 q 640 993 663 993 q 613 979 622 993 q 603 953 603 965 q 651 879 603 928 q 684 840 676 854 q 694 801 692 826 q 714 814 696 789 q 772 853 742 853 q 793 865 783 853 q 803 892 803 878 q 785 939 803 919 q 742 958 767 958 q 725 956 736 958 q 713 953 714 953 q 685 971 703 953 m 147 1099 q 175 1103 160 1103 q 303 1046 242 1103 l 331 1021 l 401 1028 q 554 1038 488 1038 q 729 1015 642 1038 q 910 854 897 972 l 910 843 q 863 769 910 796 q 821 758 843 760 q 715 756 799 756 q 526 747 626 756 q 418 731 425 738 q 399 725 410 725 q 359 704 371 725 q 342 621 347 683 q 336 550 336 575 q 347 529 336 529 q 353 530 349 529 q 360 531 357 531 q 385 538 382 533 q 487 557 388 543 q 639 572 586 571 q 653 573 644 572 q 667 574 663 574 q 799 519 749 574 q 838 425 838 476 q 811 356 838 383 q 763 320 789 331 q 664 299 736 310 q 480 259 603 289 q 338 221 357 229 q 326 208 328 217 q 324 171 324 200 q 328 108 324 125 l 332 88 l 386 92 q 578 147 447 96 q 658 168 633 168 q 670 167 661 168 q 685 167 679 167 q 847 71 803 160 q 863 19 863 38 q 857 -15 863 3 q 761 -111 843 -68 q 543 -181 679 -154 q 399 -192 492 -192 q 224 -174 274 -192 q 131 -118 174 -156 q 67 -36 88 -81 q 40 124 40 22 q 42 211 40 176 q 51 640 46 339 q 62 935 56 871 q 90 1044 68 999 q 115 1082 104 1072 q 147 1099 125 1092 z "},"e":{"ha":950,"x_min":40,"x_max":910,"o":"m 649 524 q 607 544 628 544 q 579 536 588 544 q 568 506 568 521 q 611 435 568 474 q 657 358 657 390 q 660 347 657 347 q 682 369 661 347 q 731 403 708 400 q 767 442 767 410 q 754 482 767 461 q 707 507 739 507 q 690 506 696 507 q 685 505 688 506 q 681 504 682 504 q 649 524 668 504 m 176 883 q 164 890 169 890 q 151 876 151 890 q 157 863 151 869 q 186 831 179 831 q 200 838 190 831 q 215 860 215 849 q 197 876 215 874 q 176 883 181 879 m 303 932 q 284 944 294 942 q 268 939 274 946 q 264 926 264 935 q 281 893 264 908 q 307 857 300 874 q 319 850 314 839 q 346 868 325 860 q 367 892 367 875 q 356 915 367 906 q 333 924 346 924 l 328 924 q 303 932 314 919 m 482 958 q 450 972 469 972 q 425 963 433 972 q 415 942 415 953 q 449 890 415 925 q 486 839 481 860 l 489 821 l 511 843 q 544 865 531 865 q 565 872 558 865 q 572 894 572 879 q 560 935 572 918 q 536 949 547 949 q 521 947 526 949 q 482 958 496 944 m 685 971 q 640 993 663 993 q 613 979 622 993 q 603 953 603 965 q 651 879 603 928 q 684 840 676 854 q 694 801 692 826 q 714 814 696 789 q 772 853 742 853 q 793 865 783 853 q 803 892 803 878 q 785 939 803 919 q 742 958 767 958 q 725 956 736 958 q 713 953 714 953 q 685 971 703 953 m 147 1099 q 175 1103 160 1103 q 303 1046 242 1103 l 331 1021 l 401 1028 q 554 1038 488 1038 q 729 1015 642 1038 q 910 854 897 972 l 910 843 q 863 769 910 796 q 821 758 843 760 q 715 756 799 756 q 526 747 626 756 q 418 731 425 738 q 399 725 410 725 q 359 704 371 725 q 342 621 347 683 q 336 550 336 575 q 347 529 336 529 q 353 530 349 529 q 360 531 357 531 q 385 538 382 533 q 487 557 388 543 q 639 572 586 571 q 653 573 644 572 q 667 574 663 574 q 799 519 749 574 q 838 425 838 476 q 811 356 838 383 q 763 320 789 331 q 664 299 736 310 q 480 259 603 289 q 338 221 357 229 q 326 208 328 217 q 324 171 324 200 q 328 108 324 125 l 332 88 l 386 92 q 578 147 447 96 q 658 168 633 168 q 670 167 661 168 q 685 167 679 167 q 847 71 803 160 q 863 19 863 38 q 857 -15 863 3 q 761 -111 843 -68 q 543 -181 679 -154 q 399 -192 492 -192 q 224 -174 274 -192 q 131 -118 174 -156 q 67 -36 88 -81 q 40 124 40 22 q 42 211 40 176 q 51 640 46 339 q 62 935 56 871 q 90 1044 68 999 q 115 1082 104 1072 q 147 1099 125 1092 z "},"F":{"ha":978,"x_min":43,"x_max":938,"o":"m 619 469 q 576 489 601 489 q 536 454 536 489 q 574 386 536 422 q 618 307 618 344 q 625 301 618 296 q 640 318 629 306 q 690 351 661 343 q 732 394 732 364 q 731 407 732 403 q 708 444 725 429 q 671 460 690 460 q 650 454 660 460 q 619 469 639 449 m 251 851 q 235 856 249 851 q 217 861 222 861 q 207 850 207 861 q 224 824 207 843 q 233 811 231 814 q 240 807 236 808 q 247 807 244 806 q 257 814 250 808 q 274 832 274 824 q 265 847 274 839 q 251 851 257 854 m 328 946 q 293 949 306 961 q 286 936 286 942 q 307 901 286 926 q 328 867 328 875 q 333 858 328 858 q 340 865 340 858 q 363 881 340 871 q 388 911 388 893 q 379 928 388 919 q 356 936 368 939 q 328 946 342 936 m 511 969 q 479 985 494 985 q 460 975 468 985 q 450 951 450 965 q 479 899 450 932 q 513 847 506 869 l 517 829 l 535 850 q 574 875 553 871 q 597 884 592 878 q 601 911 601 890 q 590 944 601 932 q 560 957 579 957 q 546 956 551 957 q 511 969 531 951 m 724 996 q 681 1017 703 1017 q 653 1006 664 1017 q 643 978 643 996 q 682 907 643 944 q 722 836 722 869 q 724 825 722 825 q 744 846 725 825 q 794 879 765 871 q 836 921 836 892 q 831 944 836 925 q 783 985 815 985 q 765 982 779 985 q 749 979 751 979 q 724 996 740 979 m 185 1069 q 236 1089 206 1089 q 343 1056 297 1089 q 385 1042 361 1042 q 421 1043 404 1042 q 582 1050 564 1050 q 609 1051 592 1050 q 635 1051 626 1051 q 918 954 861 1051 q 938 885 938 918 q 906 808 938 840 q 851 781 885 788 q 738 774 818 774 q 585 767 644 774 q 473 751 539 763 q 403 735 407 739 q 381 569 397 729 l 376 532 l 467 533 q 704 494 614 533 q 815 383 794 456 q 824 340 824 354 q 818 304 824 326 q 795 262 813 282 q 760 238 778 242 l 753 238 q 679 244 731 238 q 596 251 633 251 q 397 219 510 251 l 367 211 l 363 46 q 354 -113 360 -86 q 321 -161 349 -140 q 276 -174 304 -174 q 175 -135 218 -174 q 116 -40 133 -99 q 92 135 99 18 q 85 228 89 208 q 67 275 82 247 q 43 363 43 322 q 74 443 43 408 l 96 468 l 100 547 q 131 933 115 822 q 185 1069 143 1032 z "},"f":{"ha":978,"x_min":43,"x_max":938,"o":"m 619 469 q 576 489 601 489 q 536 454 536 489 q 574 386 536 422 q 618 307 618 344 q 625 301 618 296 q 640 318 629 306 q 690 351 661 343 q 732 394 732 364 q 731 407 732 403 q 708 444 725 429 q 671 460 690 460 q 650 454 660 460 q 619 469 639 449 m 251 851 q 235 856 249 851 q 217 861 222 861 q 207 850 207 861 q 224 824 207 843 q 233 811 231 814 q 240 807 236 808 q 247 807 244 806 q 257 814 250 808 q 274 832 274 824 q 265 847 274 839 q 251 851 257 854 m 328 946 q 293 949 306 961 q 286 936 286 942 q 307 901 286 926 q 328 867 328 875 q 333 858 328 858 q 340 865 340 858 q 363 881 340 871 q 388 911 388 893 q 379 928 388 919 q 356 936 368 939 q 328 946 342 936 m 511 969 q 479 985 494 985 q 460 975 468 985 q 450 951 450 965 q 479 899 450 932 q 513 847 506 869 l 517 829 l 535 850 q 574 875 553 871 q 597 884 592 878 q 601 911 601 890 q 590 944 601 932 q 560 957 579 957 q 546 956 551 957 q 511 969 531 951 m 724 996 q 681 1017 703 1017 q 653 1006 664 1017 q 643 978 643 996 q 682 907 643 944 q 722 836 722 869 q 724 825 722 825 q 744 846 725 825 q 794 879 765 871 q 836 921 836 892 q 831 944 836 925 q 783 985 815 985 q 765 982 779 985 q 749 979 751 979 q 724 996 740 979 m 185 1069 q 236 1089 206 1089 q 343 1056 297 1089 q 385 1042 361 1042 q 421 1043 404 1042 q 582 1050 564 1050 q 609 1051 592 1050 q 635 1051 626 1051 q 918 954 861 1051 q 938 885 938 918 q 906 808 938 840 q 851 781 885 788 q 738 774 818 774 q 585 767 644 774 q 473 751 539 763 q 403 735 407 739 q 381 569 397 729 l 376 532 l 467 533 q 704 494 614 533 q 815 383 794 456 q 824 340 824 354 q 818 304 824 326 q 795 262 813 282 q 760 238 778 242 l 753 238 q 679 244 731 238 q 596 251 633 251 q 397 219 510 251 l 367 211 l 363 46 q 354 -113 360 -86 q 321 -161 349 -140 q 276 -174 304 -174 q 175 -135 218 -174 q 116 -40 133 -99 q 92 135 99 18 q 85 228 89 208 q 67 275 82 247 q 43 363 43 322 q 74 443 43 408 l 96 468 l 100 547 q 131 933 115 822 q 185 1069 143 1032 z "},"G":{"ha":1110,"x_min":42,"x_max":1069,"o":"m 886 186 l 857 190 q 853 191 856 190 q 849 192 850 192 q 833 181 833 192 q 847 154 833 172 l 864 133 l 881 147 q 897 175 897 161 q 886 186 897 186 m 879 318 q 900 284 879 311 q 921 251 921 257 q 931 258 921 246 q 958 281 939 272 q 976 307 976 289 q 956 336 976 336 q 943 333 951 336 q 921 336 928 328 q 903 344 913 344 q 886 337 893 344 q 879 318 879 329 m 581 450 q 543 465 564 465 q 510 451 524 465 q 497 413 497 436 q 526 363 497 392 q 576 286 576 317 l 576 268 l 589 283 q 653 344 621 332 q 692 394 692 361 q 682 429 692 411 q 649 451 669 451 q 621 444 633 451 q 601 438 604 438 q 581 450 594 438 m 854 496 q 832 492 844 496 q 815 488 819 488 q 799 496 807 488 q 771 507 788 507 q 744 495 756 507 q 733 465 733 483 q 764 417 733 447 q 794 376 794 386 q 817 376 794 343 q 856 413 835 400 q 877 428 872 422 q 883 449 882 435 l 883 458 q 854 496 883 496 m 324 733 q 304 731 315 742 q 297 719 297 724 q 314 694 297 714 l 329 678 l 347 690 q 364 715 364 703 q 344 729 364 729 q 324 733 328 729 m 453 839 q 442 836 450 839 q 432 833 433 833 q 413 839 425 833 q 396 844 401 844 q 383 839 389 844 q 376 818 376 832 q 390 789 376 797 q 413 764 406 782 l 419 749 l 428 761 q 456 783 436 775 q 474 810 474 792 q 453 839 474 839 m 554 961 q 525 974 539 974 q 499 958 511 974 q 486 933 486 944 q 518 883 486 917 q 551 831 551 849 q 553 819 551 819 q 569 839 556 821 q 613 876 586 864 q 643 922 643 893 q 631 951 643 939 q 604 963 619 963 q 582 956 593 963 q 554 961 568 950 m 794 983 q 757 1003 772 1003 q 728 988 743 1003 q 710 946 710 969 q 716 921 710 931 q 747 889 722 911 q 788 829 785 856 l 792 803 l 811 835 q 858 878 832 867 q 903 932 903 899 q 902 937 903 933 q 901 942 901 940 q 888 975 896 967 q 858 986 876 986 q 825 976 844 986 q 810 972 814 971 q 794 983 806 974 m 610 1079 q 686 1089 643 1089 q 853 1042 782 1089 q 908 994 892 1015 q 942 922 924 972 q 961 854 961 869 q 957 822 961 843 q 907 735 947 753 q 861 725 888 725 q 754 768 811 725 q 707 799 714 799 q 659 779 696 799 q 593 738 622 760 q 401 516 479 653 q 322 265 322 379 q 333 181 322 213 q 376 118 344 150 q 436 72 403 92 q 489 53 469 53 q 588 100 515 53 q 696 189 660 147 q 733 240 715 211 q 750 276 750 268 q 749 278 750 278 q 676 253 736 278 q 546 208 574 208 q 522 211 539 208 q 424 282 461 225 q 396 376 396 325 q 464 499 396 458 q 546 525 485 511 q 667 568 597 536 q 780 614 743 603 q 858 625 817 625 q 943 607 907 625 q 1069 388 1069 544 q 1067 340 1069 374 q 914 -3 1042 146 q 751 -131 853 -75 q 544 -210 650 -187 q 464 -219 493 -219 q 258 -144 369 -219 q 42 268 42 3 q 61 425 42 340 q 239 793 107 618 q 529 1046 371 968 q 610 1079 582 1072 z "},"g":{"ha":1110,"x_min":42,"x_max":1069,"o":"m 886 186 l 857 190 q 853 191 856 190 q 849 192 850 192 q 833 181 833 192 q 847 154 833 172 l 864 133 l 881 147 q 897 175 897 161 q 886 186 897 186 m 879 318 q 900 284 879 311 q 921 251 921 257 q 931 258 921 246 q 958 281 939 272 q 976 307 976 289 q 956 336 976 336 q 943 333 951 336 q 921 336 928 328 q 903 344 913 344 q 886 337 893 344 q 879 318 879 329 m 581 450 q 543 465 564 465 q 510 451 524 465 q 497 413 497 436 q 526 363 497 392 q 576 286 576 317 l 576 268 l 589 283 q 653 344 621 332 q 692 394 692 361 q 682 429 692 411 q 649 451 669 451 q 621 444 633 451 q 601 438 604 438 q 581 450 594 438 m 854 496 q 832 492 844 496 q 815 488 819 488 q 799 496 807 488 q 771 507 788 507 q 744 495 756 507 q 733 465 733 483 q 764 417 733 447 q 794 376 794 386 q 817 376 794 343 q 856 413 835 400 q 877 428 872 422 q 883 449 882 435 l 883 458 q 854 496 883 496 m 324 733 q 304 731 315 742 q 297 719 297 724 q 314 694 297 714 l 329 678 l 347 690 q 364 715 364 703 q 344 729 364 729 q 324 733 328 729 m 453 839 q 442 836 450 839 q 432 833 433 833 q 413 839 425 833 q 396 844 401 844 q 383 839 389 844 q 376 818 376 832 q 390 789 376 797 q 413 764 406 782 l 419 749 l 428 761 q 456 783 436 775 q 474 810 474 792 q 453 839 474 839 m 554 961 q 525 974 539 974 q 499 958 511 974 q 486 933 486 944 q 518 883 486 917 q 551 831 551 849 q 553 819 551 819 q 569 839 556 821 q 613 876 586 864 q 643 922 643 893 q 631 951 643 939 q 604 963 619 963 q 582 956 593 963 q 554 961 568 950 m 794 983 q 757 1003 772 1003 q 728 988 743 1003 q 710 946 710 969 q 716 921 710 931 q 747 889 722 911 q 788 829 785 856 l 792 803 l 811 835 q 858 878 832 867 q 903 932 903 899 q 902 937 903 933 q 901 942 901 940 q 888 975 896 967 q 858 986 876 986 q 825 976 844 986 q 810 972 814 971 q 794 983 806 974 m 610 1079 q 686 1089 643 1089 q 853 1042 782 1089 q 908 994 892 1015 q 942 922 924 972 q 961 854 961 869 q 957 822 961 843 q 907 735 947 753 q 861 725 888 725 q 754 768 811 725 q 707 799 714 799 q 659 779 696 799 q 593 738 622 760 q 401 516 479 653 q 322 265 322 379 q 333 181 322 213 q 376 118 344 150 q 436 72 403 92 q 489 53 469 53 q 588 100 515 53 q 696 189 660 147 q 733 240 715 211 q 750 276 750 268 q 749 278 750 278 q 676 253 736 278 q 546 208 574 208 q 522 211 539 208 q 424 282 461 225 q 396 376 396 325 q 464 499 396 458 q 546 525 485 511 q 667 568 597 536 q 780 614 743 603 q 858 625 817 625 q 943 607 907 625 q 1069 388 1069 544 q 1067 340 1069 374 q 914 -3 1042 146 q 751 -131 853 -75 q 544 -210 650 -187 q 464 -219 493 -219 q 258 -144 369 -219 q 42 268 42 3 q 61 425 42 340 q 239 793 107 618 q 529 1046 371 968 q 610 1079 582 1072 z "},"H":{"ha":1126,"x_min":43,"x_max":1086,"o":"m 864 44 q 829 60 846 60 q 797 44 811 60 q 783 7 783 28 q 790 -17 783 -8 q 821 -49 796 -26 q 864 -103 861 -86 l 868 -124 l 888 -96 q 936 -56 906 -69 q 974 -25 968 -42 q 976 -7 976 -19 q 954 38 976 22 q 935 47 943 47 q 910 40 931 47 q 885 33 889 33 q 864 44 876 33 m 869 240 q 840 253 856 253 q 815 242 825 253 q 804 213 804 231 q 835 168 804 194 q 865 124 865 139 l 865 106 l 888 132 q 932 167 908 154 q 954 197 953 176 l 954 207 q 921 242 954 242 q 890 233 899 242 q 869 240 885 228 m 911 400 q 901 399 908 399 q 883 404 894 399 q 867 410 872 410 q 850 401 857 410 q 842 388 842 393 q 863 357 842 381 q 883 326 883 333 q 896 326 883 313 l 900 332 q 924 351 907 344 q 943 379 943 360 q 922 403 943 403 q 911 400 919 403 m 546 408 q 511 422 531 422 q 476 408 492 422 q 461 375 461 394 q 467 351 461 363 q 501 317 476 333 q 544 250 544 286 q 564 267 544 240 q 611 307 585 293 q 644 327 636 319 q 653 347 651 335 l 653 358 q 613 411 653 411 q 579 401 601 411 q 563 397 568 396 q 546 408 557 397 m 210 419 q 171 426 185 426 q 151 415 151 426 q 165 393 151 407 l 182 375 l 200 389 q 210 419 231 413 m 915 485 q 931 510 932 497 q 901 524 929 522 l 888 524 q 865 515 865 524 q 882 490 865 510 l 897 472 l 915 485 m 201 565 q 167 564 183 581 q 158 549 158 556 q 178 519 158 539 q 199 492 199 499 q 210 486 199 476 q 215 494 213 489 q 239 515 224 508 q 258 544 258 525 q 239 567 258 567 q 226 564 235 567 q 201 565 213 558 m 246 747 q 214 750 225 738 q 185 763 203 763 q 154 749 165 763 q 144 724 144 733 q 163 692 144 708 q 210 636 204 653 q 214 626 211 626 q 235 644 219 629 q 276 678 260 669 q 300 699 297 689 q 301 710 301 701 q 282 747 301 735 q 246 747 268 757 m 242 971 q 206 988 228 988 q 172 973 186 988 q 157 938 157 958 q 193 883 157 918 q 235 826 232 849 l 239 803 l 258 832 q 306 871 274 856 q 350 925 350 890 q 338 958 350 942 q 304 974 325 974 q 272 965 289 974 q 256 960 260 958 q 242 971 251 961 m 189 1096 q 242 1107 215 1107 q 320 1085 283 1107 q 375 1028 357 1064 q 394 918 394 990 q 381 668 394 844 q 365 424 363 426 q 563 468 367 422 q 761 517 758 514 q 769 597 764 519 q 786 890 786 843 q 819 1019 786 975 q 917 1064 853 1064 l 925 1064 q 989 1050 967 1061 q 1037 1014 1013 1039 q 1074 963 1061 989 q 1086 879 1086 938 q 1068 676 1086 818 q 1053 519 1053 551 q 1058 483 1053 493 q 1074 404 1074 453 q 1072 385 1074 390 q 1047 331 1069 368 q 1030 293 1033 308 q 1026 229 1026 278 q 1031 26 1026 136 q 1035 -78 1035 -51 q 1024 -132 1035 -110 q 968 -191 1004 -169 q 892 -212 932 -212 q 838 -201 860 -212 q 793 -167 817 -192 q 760 -121 769 -142 q 745 -62 749 -96 q 738 78 742 -28 q 731 214 732 213 l 729 214 q 496 150 701 214 q 438 133 478 144 q 386 118 399 122 q 329 89 332 103 q 319 -32 328 78 q 305 -148 313 -121 q 267 -203 297 -175 q 189 -235 231 -235 q 122 -215 158 -235 q 43 -68 43 -171 q 68 283 43 -7 q 114 814 104 692 q 135 1038 131 1018 q 189 1096 142 1074 z "},"h":{"ha":1126,"x_min":43,"x_max":1086,"o":"m 864 44 q 829 60 846 60 q 797 44 811 60 q 783 7 783 28 q 790 -17 783 -8 q 821 -49 796 -26 q 864 -103 861 -86 l 868 -124 l 888 -96 q 936 -56 906 -69 q 974 -25 968 -42 q 976 -7 976 -19 q 954 38 976 22 q 935 47 943 47 q 910 40 931 47 q 885 33 889 33 q 864 44 876 33 m 869 240 q 840 253 856 253 q 815 242 825 253 q 804 213 804 231 q 835 168 804 194 q 865 124 865 139 l 865 106 l 888 132 q 932 167 908 154 q 954 197 953 176 l 954 207 q 921 242 954 242 q 890 233 899 242 q 869 240 885 228 m 911 400 q 901 399 908 399 q 883 404 894 399 q 867 410 872 410 q 850 401 857 410 q 842 388 842 393 q 863 357 842 381 q 883 326 883 333 q 896 326 883 313 l 900 332 q 924 351 907 344 q 943 379 943 360 q 922 403 943 403 q 911 400 919 403 m 546 408 q 511 422 531 422 q 476 408 492 422 q 461 375 461 394 q 467 351 461 363 q 501 317 476 333 q 544 250 544 286 q 564 267 544 240 q 611 307 585 293 q 644 327 636 319 q 653 347 651 335 l 653 358 q 613 411 653 411 q 579 401 601 411 q 563 397 568 396 q 546 408 557 397 m 210 419 q 171 426 185 426 q 151 415 151 426 q 165 393 151 407 l 182 375 l 200 389 q 210 419 231 413 m 915 485 q 931 510 932 497 q 901 524 929 522 l 888 524 q 865 515 865 524 q 882 490 865 510 l 897 472 l 915 485 m 201 565 q 167 564 183 581 q 158 549 158 556 q 178 519 158 539 q 199 492 199 499 q 210 486 199 476 q 215 494 213 489 q 239 515 224 508 q 258 544 258 525 q 239 567 258 567 q 226 564 235 567 q 201 565 213 558 m 246 747 q 214 750 225 738 q 185 763 203 763 q 154 749 165 763 q 144 724 144 733 q 163 692 144 708 q 210 636 204 653 q 214 626 211 626 q 235 644 219 629 q 276 678 260 669 q 300 699 297 689 q 301 710 301 701 q 282 747 301 735 q 246 747 268 757 m 242 971 q 206 988 228 988 q 172 973 186 988 q 157 938 157 958 q 193 883 157 918 q 235 826 232 849 l 239 803 l 258 832 q 306 871 274 856 q 350 925 350 890 q 338 958 350 942 q 304 974 325 974 q 272 965 289 974 q 256 960 260 958 q 242 971 251 961 m 189 1096 q 242 1107 215 1107 q 320 1085 283 1107 q 375 1028 357 1064 q 394 918 394 990 q 381 668 394 844 q 365 424 363 426 q 563 468 367 422 q 761 517 758 514 q 769 597 764 519 q 786 890 786 843 q 819 1019 786 975 q 917 1064 853 1064 l 925 1064 q 989 1050 967 1061 q 1037 1014 1013 1039 q 1074 963 1061 989 q 1086 879 1086 938 q 1068 676 1086 818 q 1053 519 1053 551 q 1058 483 1053 493 q 1074 404 1074 453 q 1072 385 1074 390 q 1047 331 1069 368 q 1030 293 1033 308 q 1026 229 1026 278 q 1031 26 1026 136 q 1035 -78 1035 -51 q 1024 -132 1035 -110 q 968 -191 1004 -169 q 892 -212 932 -212 q 838 -201 860 -212 q 793 -167 817 -192 q 760 -121 769 -142 q 745 -62 749 -96 q 738 78 742 -28 q 731 214 732 213 l 729 214 q 496 150 701 214 q 438 133 478 144 q 386 118 399 122 q 329 89 332 103 q 319 -32 328 78 q 305 -148 313 -121 q 267 -203 297 -175 q 189 -235 231 -235 q 122 -215 158 -235 q 43 -68 43 -171 q 68 283 43 -7 q 114 814 104 692 q 135 1038 131 1018 q 189 1096 142 1074 z "},"I":{"ha":443,"x_min":40,"x_max":403,"o":"m 74 1301 q 143 1349 97 1349 q 217 1311 183 1349 l 238 1290 l 271 1307 q 324 1325 304 1325 q 381 1295 358 1325 q 403 1221 403 1265 q 390 1169 403 1186 q 335 1132 376 1151 q 281 1100 296 1114 q 244 1051 267 1086 q 214 1017 224 1017 q 203 1033 207 1017 q 178 1097 194 1072 q 122 1153 161 1122 q 61 1256 61 1201 q 74 1301 61 1278 m 211 51 q 175 65 208 65 q 151 54 151 65 q 169 28 151 46 l 186 11 l 200 25 q 211 51 214 39 m 200 228 q 181 228 186 222 q 162 235 175 233 q 144 231 149 236 q 139 215 139 225 q 158 179 139 194 q 179 154 176 167 q 182 148 181 150 q 185 146 183 146 q 190 149 188 146 q 197 157 192 151 q 224 181 213 175 q 236 204 236 186 q 214 232 236 232 q 200 228 206 232 m 179 435 q 156 446 167 446 q 131 432 144 446 q 117 401 117 418 q 131 372 117 385 q 189 307 186 328 q 200 307 190 292 q 206 315 203 310 q 244 356 222 340 q 272 383 269 374 q 273 388 272 385 q 274 393 274 392 q 251 432 274 417 q 217 432 236 442 q 196 425 201 425 q 179 435 190 425 m 189 681 q 156 696 174 696 q 110 663 121 696 q 107 646 107 651 q 153 578 107 614 q 182 551 174 563 q 197 517 190 540 q 214 528 200 506 q 219 536 217 531 q 260 579 235 565 q 291 602 283 592 q 299 635 299 613 q 285 672 299 657 q 253 688 272 688 q 221 678 236 688 l 203 665 l 189 681 m 75 860 q 129 913 90 889 q 208 936 168 936 q 260 924 235 936 q 319 879 292 908 q 354 822 346 850 q 364 754 364 786 q 353 632 364 724 q 318 178 318 360 q 324 -22 318 76 q 328 -107 328 -85 q 317 -156 328 -133 q 179 -233 278 -233 q 51 -158 90 -233 q 42 -101 43 -144 q 40 144 40 -58 q 51 564 40 404 q 61 768 61 697 q 75 860 61 833 z "},"i":{"ha":443,"x_min":40,"x_max":403,"o":"m 74 1301 q 143 1349 97 1349 q 217 1311 183 1349 l 238 1290 l 271 1307 q 324 1325 304 1325 q 381 1295 358 1325 q 403 1221 403 1265 q 390 1169 403 1186 q 335 1132 376 1151 q 281 1100 296 1114 q 244 1051 267 1086 q 214 1017 224 1017 q 203 1033 207 1017 q 178 1097 194 1072 q 122 1153 161 1122 q 61 1256 61 1201 q 74 1301 61 1278 m 211 51 q 175 65 208 65 q 151 54 151 65 q 169 28 151 46 l 186 11 l 200 25 q 211 51 214 39 m 200 228 q 181 228 186 222 q 162 235 175 233 q 144 231 149 236 q 139 215 139 225 q 158 179 139 194 q 179 154 176 167 q 182 148 181 150 q 185 146 183 146 q 190 149 188 146 q 197 157 192 151 q 224 181 213 175 q 236 204 236 186 q 214 232 236 232 q 200 228 206 232 m 179 435 q 156 446 167 446 q 131 432 144 446 q 117 401 117 418 q 131 372 117 385 q 189 307 186 328 q 200 307 190 292 q 206 315 203 310 q 244 356 222 340 q 272 383 269 374 q 273 388 272 385 q 274 393 274 392 q 251 432 274 417 q 217 432 236 442 q 196 425 201 425 q 179 435 190 425 m 189 681 q 156 696 174 696 q 110 663 121 696 q 107 646 107 651 q 153 578 107 614 q 182 551 174 563 q 197 517 190 540 q 214 528 200 506 q 219 536 217 531 q 260 579 235 565 q 291 602 283 592 q 299 635 299 613 q 285 672 299 657 q 253 688 272 688 q 221 678 236 688 l 203 665 l 189 681 m 75 860 q 129 913 90 889 q 208 936 168 936 q 260 924 235 936 q 319 879 292 908 q 354 822 346 850 q 364 754 364 786 q 353 632 364 724 q 318 178 318 360 q 324 -22 318 76 q 328 -107 328 -85 q 317 -156 328 -133 q 179 -233 278 -233 q 51 -158 90 -233 q 42 -101 43 -144 q 40 144 40 -58 q 51 564 40 404 q 61 768 61 697 q 75 860 61 833 z "},"J":{"ha":1132,"x_min":42,"x_max":1092,"o":"m 794 544 q 778 546 788 556 q 788 508 763 531 q 800 499 797 499 q 814 507 803 499 q 828 532 828 518 q 825 542 828 540 q 813 543 822 544 q 794 544 796 540 m 782 710 q 765 714 778 714 q 747 710 751 714 q 743 697 743 706 q 758 664 743 679 q 779 639 775 647 q 799 643 782 629 q 810 651 803 646 q 833 686 833 674 q 828 701 833 697 q 808 704 824 704 q 782 710 788 704 m 753 906 q 726 918 740 918 q 706 908 715 918 q 694 883 694 894 q 722 835 694 863 q 749 797 749 811 q 772 806 749 774 q 807 832 789 825 q 833 874 833 843 q 821 898 833 888 q 794 908 808 908 q 775 900 783 908 q 753 906 768 893 m 525 914 q 494 925 514 925 q 463 914 474 925 q 453 878 453 901 q 457 853 453 861 q 482 828 461 844 q 521 779 515 799 l 529 754 l 546 781 q 589 817 563 806 q 619 836 615 831 q 624 858 624 844 q 613 901 624 888 q 578 914 600 914 q 558 907 563 914 q 525 914 549 890 m 903 1032 q 872 1047 885 1047 q 843 1032 858 1047 q 833 996 828 1017 q 850 958 836 979 q 871 938 864 938 q 887 919 876 938 q 900 886 897 901 l 904 868 l 921 893 q 967 933 939 919 q 1000 958 994 947 q 1003 979 1003 965 q 990 1018 1003 1003 q 964 1033 978 1033 q 938 1025 954 1033 q 919 1020 925 1019 q 903 1032 914 1021 m 882 1086 q 982 1106 953 1106 q 1047 1078 1015 1106 q 1092 976 1092 1036 q 1089 950 1092 958 q 944 835 1071 881 q 907 813 907 822 l 908 810 q 908 806 908 807 q 929 456 929 711 q 925 335 929 378 q 738 -154 893 -10 q 546 -224 667 -224 l 522 -224 q 257 -133 392 -217 q 71 56 122 -50 q 42 182 42 111 q 43 201 42 196 q 85 278 50 249 q 174 313 121 308 q 183 313 178 313 q 192 314 189 314 q 269 281 240 314 q 298 231 283 265 q 313 179 313 197 q 362 117 313 164 q 447 53 411 71 q 507 36 483 36 q 583 90 547 36 q 671 578 671 225 q 665 722 671 719 l 664 722 q 604 707 656 722 q 524 690 549 690 q 485 699 506 690 q 388 850 393 736 l 388 868 q 415 951 388 924 q 507 986 443 979 q 882 1086 563 992 z "},"j":{"ha":1132,"x_min":42,"x_max":1092,"o":"m 794 544 q 778 546 788 556 q 788 508 763 531 q 800 499 797 499 q 814 507 803 499 q 828 532 828 518 q 825 542 828 540 q 813 543 822 544 q 794 544 796 540 m 782 710 q 765 714 778 714 q 747 710 751 714 q 743 697 743 706 q 758 664 743 679 q 779 639 775 647 q 799 643 782 629 q 810 651 803 646 q 833 686 833 674 q 828 701 833 697 q 808 704 824 704 q 782 710 788 704 m 753 906 q 726 918 740 918 q 706 908 715 918 q 694 883 694 894 q 722 835 694 863 q 749 797 749 811 q 772 806 749 774 q 807 832 789 825 q 833 874 833 843 q 821 898 833 888 q 794 908 808 908 q 775 900 783 908 q 753 906 768 893 m 525 914 q 494 925 514 925 q 463 914 474 925 q 453 878 453 901 q 457 853 453 861 q 482 828 461 844 q 521 779 515 799 l 529 754 l 546 781 q 589 817 563 806 q 619 836 615 831 q 624 858 624 844 q 613 901 624 888 q 578 914 600 914 q 558 907 563 914 q 525 914 549 890 m 903 1032 q 872 1047 885 1047 q 843 1032 858 1047 q 833 996 828 1017 q 850 958 836 979 q 871 938 864 938 q 887 919 876 938 q 900 886 897 901 l 904 868 l 921 893 q 967 933 939 919 q 1000 958 994 947 q 1003 979 1003 965 q 990 1018 1003 1003 q 964 1033 978 1033 q 938 1025 954 1033 q 919 1020 925 1019 q 903 1032 914 1021 m 882 1086 q 982 1106 953 1106 q 1047 1078 1015 1106 q 1092 976 1092 1036 q 1089 950 1092 958 q 944 835 1071 881 q 907 813 907 822 l 908 810 q 908 806 908 807 q 929 456 929 711 q 925 335 929 378 q 738 -154 893 -10 q 546 -224 667 -224 l 522 -224 q 257 -133 392 -217 q 71 56 122 -50 q 42 182 42 111 q 43 201 42 196 q 85 278 50 249 q 174 313 121 308 q 183 313 178 313 q 192 314 189 314 q 269 281 240 314 q 298 231 283 265 q 313 179 313 197 q 362 117 313 164 q 447 53 411 71 q 507 36 483 36 q 583 90 547 36 q 671 578 671 225 q 665 722 671 719 l 664 722 q 604 707 656 722 q 524 690 549 690 q 485 699 506 690 q 388 850 393 736 l 388 868 q 415 951 388 924 q 507 986 443 979 q 882 1086 563 992 z "},"K":{"ha":1119,"x_min":40,"x_max":1079,"o":"m 897 19 q 860 35 881 35 q 827 20 840 35 q 814 -18 814 6 q 850 -74 814 -40 q 892 -132 889 -110 l 896 -156 l 917 -126 q 963 -85 939 -96 q 1007 -31 1007 -64 q 1006 -26 1007 -29 q 1006 -21 1006 -24 q 960 24 997 24 q 931 14 944 24 q 897 19 917 4 m 776 214 q 750 228 761 228 q 726 217 739 228 q 710 188 710 204 q 738 142 710 167 q 774 96 768 111 l 782 76 l 794 97 q 835 131 808 119 q 867 169 867 146 q 863 188 867 178 q 831 215 851 215 q 826 215 829 215 q 821 214 822 214 q 806 208 814 213 q 794 204 799 204 q 776 214 786 204 m 644 322 q 611 322 626 339 q 603 304 603 314 q 622 271 603 289 q 644 242 644 249 q 675 261 644 236 q 704 300 704 286 q 696 317 704 308 q 669 319 688 325 q 644 322 654 314 m 156 364 q 133 364 144 375 q 129 354 129 360 q 146 325 129 339 l 163 308 l 179 324 q 194 347 194 336 q 176 360 194 360 q 156 364 160 360 m 554 374 q 547 374 551 374 q 535 376 542 375 q 524 378 528 378 q 514 379 519 379 q 500 369 500 379 q 515 343 500 358 l 533 325 l 549 338 q 565 364 565 350 q 554 374 565 374 m 175 514 q 161 520 172 521 q 143 513 150 519 q 136 496 136 506 q 157 460 136 478 q 178 431 178 439 q 196 439 178 422 q 226 465 214 457 q 235 493 242 475 q 226 507 231 504 q 204 508 221 510 q 175 514 179 508 m 181 719 q 153 731 168 731 q 129 719 140 731 q 117 693 117 707 q 144 644 117 672 q 178 600 171 618 l 185 579 l 200 601 q 239 636 215 622 q 263 654 258 647 q 268 679 268 661 q 235 718 268 718 q 211 713 222 718 q 181 719 197 706 m 179 957 q 139 976 157 976 q 103 954 118 976 q 92 926 92 939 q 132 867 92 906 q 172 817 172 829 q 178 793 172 793 q 197 814 185 793 q 240 854 215 840 q 278 879 269 869 q 286 907 286 889 q 272 946 286 931 q 239 961 258 961 q 208 951 222 961 q 195 945 199 944 q 179 957 192 946 m 696 1075 q 740 1083 713 1083 q 792 1074 767 1083 q 863 1008 832 1057 q 897 906 893 958 q 898 895 897 901 q 899 886 899 889 q 865 796 899 867 q 783 654 838 739 q 685 514 729 569 q 666 491 676 504 q 650 470 656 478 q 643 461 644 463 l 642 460 q 683 429 642 453 q 957 174 847 340 q 1021 60 986 129 q 1071 -53 1056 -8 q 1079 -85 1079 -76 q 1072 -118 1079 -93 q 1019 -197 1058 -167 q 932 -226 979 -226 q 864 -210 897 -226 q 806 -160 828 -192 q 761 -67 783 -129 q 674 86 731 18 q 550 186 618 154 q 470 217 522 200 q 407 235 418 235 q 357 218 393 235 q 322 195 331 207 q 313 156 313 183 q 328 21 313 125 q 335 -57 335 -31 q 319 -132 335 -101 q 207 -199 285 -199 q 119 -164 156 -199 q 40 85 50 -99 l 40 117 q 52 604 40 253 q 69 971 64 956 q 119 1031 85 1010 q 197 1053 154 1053 q 272 1033 238 1053 q 324 976 307 1014 q 353 774 353 911 q 338 571 353 668 l 333 547 l 353 565 q 453 692 382 592 q 569 871 525 793 q 603 944 583 893 q 644 1028 624 994 q 696 1075 665 1063 z "},"k":{"ha":1119,"x_min":40,"x_max":1079,"o":"m 897 19 q 860 35 881 35 q 827 20 840 35 q 814 -18 814 6 q 850 -74 814 -40 q 892 -132 889 -110 l 896 -156 l 917 -126 q 963 -85 939 -96 q 1007 -31 1007 -64 q 1006 -26 1007 -29 q 1006 -21 1006 -24 q 960 24 997 24 q 931 14 944 24 q 897 19 917 4 m 776 214 q 750 228 761 228 q 726 217 739 228 q 710 188 710 204 q 738 142 710 167 q 774 96 768 111 l 782 76 l 794 97 q 835 131 808 119 q 867 169 867 146 q 863 188 867 178 q 831 215 851 215 q 826 215 829 215 q 821 214 822 214 q 806 208 814 213 q 794 204 799 204 q 776 214 786 204 m 644 322 q 611 322 626 339 q 603 304 603 314 q 622 271 603 289 q 644 242 644 249 q 675 261 644 236 q 704 300 704 286 q 696 317 704 308 q 669 319 688 325 q 644 322 654 314 m 156 364 q 133 364 144 375 q 129 354 129 360 q 146 325 129 339 l 163 308 l 179 324 q 194 347 194 336 q 176 360 194 360 q 156 364 160 360 m 554 374 q 547 374 551 374 q 535 376 542 375 q 524 378 528 378 q 514 379 519 379 q 500 369 500 379 q 515 343 500 358 l 533 325 l 549 338 q 565 364 565 350 q 554 374 565 374 m 175 514 q 161 520 172 521 q 143 513 150 519 q 136 496 136 506 q 157 460 136 478 q 178 431 178 439 q 196 439 178 422 q 226 465 214 457 q 235 493 242 475 q 226 507 231 504 q 204 508 221 510 q 175 514 179 508 m 181 719 q 153 731 168 731 q 129 719 140 731 q 117 693 117 707 q 144 644 117 672 q 178 600 171 618 l 185 579 l 200 601 q 239 636 215 622 q 263 654 258 647 q 268 679 268 661 q 235 718 268 718 q 211 713 222 718 q 181 719 197 706 m 179 957 q 139 976 157 976 q 103 954 118 976 q 92 926 92 939 q 132 867 92 906 q 172 817 172 829 q 178 793 172 793 q 197 814 185 793 q 240 854 215 840 q 278 879 269 869 q 286 907 286 889 q 272 946 286 931 q 239 961 258 961 q 208 951 222 961 q 195 945 199 944 q 179 957 192 946 m 696 1075 q 740 1083 713 1083 q 792 1074 767 1083 q 863 1008 832 1057 q 897 906 893 958 q 898 895 897 901 q 899 886 899 889 q 865 796 899 867 q 783 654 838 739 q 685 514 729 569 q 666 491 676 504 q 650 470 656 478 q 643 461 644 463 l 642 460 q 683 429 642 453 q 957 174 847 340 q 1021 60 986 129 q 1071 -53 1056 -8 q 1079 -85 1079 -76 q 1072 -118 1079 -93 q 1019 -197 1058 -167 q 932 -226 979 -226 q 864 -210 897 -226 q 806 -160 828 -192 q 761 -67 783 -129 q 674 86 731 18 q 550 186 618 154 q 470 217 522 200 q 407 235 418 235 q 357 218 393 235 q 322 195 331 207 q 313 156 313 183 q 328 21 313 125 q 335 -57 335 -31 q 319 -132 335 -101 q 207 -199 285 -199 q 119 -164 156 -199 q 40 85 50 -99 l 40 117 q 52 604 40 253 q 69 971 64 956 q 119 1031 85 1010 q 197 1053 154 1053 q 272 1033 238 1053 q 324 976 307 1014 q 353 774 353 911 q 338 571 353 668 l 333 547 l 353 565 q 453 692 382 592 q 569 871 525 793 q 603 944 583 893 q 644 1028 624 994 q 696 1075 665 1063 z "},"L":{"ha":992,"x_min":42,"x_max":954,"o":"m 242 336 q 199 349 235 349 q 181 343 182 349 q 182 326 178 338 q 192 314 186 314 q 201 303 196 314 q 204 297 203 299 q 208 295 206 294 q 215 299 211 296 q 226 308 218 301 q 242 336 247 325 m 239 500 q 206 506 222 496 q 191 510 194 511 q 179 501 188 510 q 167 483 167 489 q 192 447 167 478 q 218 422 213 422 q 226 428 221 422 q 253 449 233 438 q 269 478 269 460 q 246 500 269 500 l 239 500 m 249 699 q 214 704 232 689 q 188 719 196 719 q 166 708 178 719 q 151 686 154 697 q 151 682 151 685 q 150 678 150 679 q 186 622 150 654 q 214 581 210 600 l 218 560 l 232 582 q 265 614 249 607 q 306 663 306 633 q 295 692 306 676 q 274 707 285 707 q 249 699 268 707 m 221 946 q 183 961 204 961 q 153 947 165 961 q 142 908 142 933 q 147 882 142 892 q 175 851 153 872 q 222 776 217 814 q 236 786 224 764 q 306 849 254 817 q 329 889 328 863 l 329 897 q 289 947 329 947 q 263 940 279 947 q 242 933 246 933 q 221 946 238 933 m 182 1071 q 236 1081 203 1081 q 290 1071 269 1081 q 341 1031 315 1061 q 379 968 367 1000 q 394 849 394 931 q 371 529 394 753 q 336 94 336 211 q 346 83 336 83 q 639 211 381 83 q 833 290 797 290 q 879 276 851 290 q 954 131 954 239 q 921 35 954 74 q 806 -39 888 -3 q 770 -55 797 -43 q 697 -87 743 -67 q 619 -121 650 -107 q 428 -201 482 -182 q 332 -224 374 -221 q 319 -224 328 -224 q 307 -225 311 -225 q 163 -171 244 -225 q 93 -113 113 -136 q 58 -49 74 -90 q 42 63 42 0 q 60 301 42 135 q 99 804 99 696 q 98 831 99 814 q 97 856 97 847 q 96 913 96 879 q 103 981 96 953 q 134 1033 111 1007 q 182 1071 157 1060 z "},"l":{"ha":992,"x_min":42,"x_max":954,"o":"m 242 336 q 199 349 235 349 q 181 343 182 349 q 182 326 178 338 q 192 314 186 314 q 201 303 196 314 q 204 297 203 299 q 208 295 206 294 q 215 299 211 296 q 226 308 218 301 q 242 336 247 325 m 239 500 q 206 506 222 496 q 191 510 194 511 q 179 501 188 510 q 167 483 167 489 q 192 447 167 478 q 218 422 213 422 q 226 428 221 422 q 253 449 233 438 q 269 478 269 460 q 246 500 269 500 l 239 500 m 249 699 q 214 704 232 689 q 188 719 196 719 q 166 708 178 719 q 151 686 154 697 q 151 682 151 685 q 150 678 150 679 q 186 622 150 654 q 214 581 210 600 l 218 560 l 232 582 q 265 614 249 607 q 306 663 306 633 q 295 692 306 676 q 274 707 285 707 q 249 699 268 707 m 221 946 q 183 961 204 961 q 153 947 165 961 q 142 908 142 933 q 147 882 142 892 q 175 851 153 872 q 222 776 217 814 q 236 786 224 764 q 306 849 254 817 q 329 889 328 863 l 329 897 q 289 947 329 947 q 263 940 279 947 q 242 933 246 933 q 221 946 238 933 m 182 1071 q 236 1081 203 1081 q 290 1071 269 1081 q 341 1031 315 1061 q 379 968 367 1000 q 394 849 394 931 q 371 529 394 753 q 336 94 336 211 q 346 83 336 83 q 639 211 381 83 q 833 290 797 290 q 879 276 851 290 q 954 131 954 239 q 921 35 954 74 q 806 -39 888 -3 q 770 -55 797 -43 q 697 -87 743 -67 q 619 -121 650 -107 q 428 -201 482 -182 q 332 -224 374 -221 q 319 -224 328 -224 q 307 -225 311 -225 q 163 -171 244 -225 q 93 -113 113 -136 q 58 -49 74 -90 q 42 63 42 0 q 60 301 42 135 q 99 804 99 696 q 98 831 99 814 q 97 856 97 847 q 96 913 96 879 q 103 981 96 953 q 134 1033 111 1007 q 182 1071 157 1060 z "},"M":{"ha":1422,"x_min":43,"x_max":1386,"o":"m 836 444 q 819 446 828 442 q 806 450 811 450 q 794 438 794 450 q 808 408 794 424 l 824 392 l 842 406 q 860 426 860 421 q 851 440 860 433 q 836 444 842 447 m 288 501 q 274 506 285 508 q 263 496 263 504 q 274 471 263 488 q 292 454 286 454 q 313 467 294 454 q 326 489 326 479 q 311 500 326 500 l 306 500 q 288 501 289 497 m 888 614 q 867 622 878 622 q 847 607 854 622 q 844 596 844 599 q 863 569 844 588 q 885 535 885 547 q 886 528 885 528 q 899 539 888 526 q 929 564 911 553 q 944 590 946 575 q 921 617 940 617 q 910 613 917 617 q 888 614 900 607 m 329 638 q 308 646 317 646 q 292 635 299 646 q 286 618 286 625 q 306 592 286 610 q 329 560 326 574 q 336 557 331 549 l 344 568 q 372 596 360 590 q 385 619 385 603 q 367 646 385 646 q 353 639 363 646 q 329 638 342 628 m 983 792 q 954 807 965 807 q 931 797 944 807 q 914 771 914 785 q 949 718 914 753 q 982 671 982 682 l 983 663 l 997 679 q 1032 711 1011 701 q 1072 753 1072 731 q 1060 782 1072 765 q 1035 799 1047 799 q 1011 790 1025 799 q 983 792 993 782 m 414 833 q 386 846 400 846 q 358 825 371 846 q 351 786 344 801 q 367 768 360 768 q 394 746 376 768 q 413 713 413 724 q 432 721 413 700 l 439 728 q 474 756 464 756 q 494 769 485 756 q 503 796 503 782 q 492 824 503 814 q 465 835 481 835 q 442 828 456 835 q 414 833 428 822 m 1133 957 q 1106 967 1119 967 q 1073 952 1086 967 q 1060 915 1060 938 q 1066 892 1060 901 q 1097 858 1072 882 q 1139 801 1136 824 l 1142 779 l 1161 807 q 1211 850 1181 835 q 1254 900 1254 872 q 1247 928 1254 911 q 1210 951 1236 951 q 1182 946 1194 951 q 1160 940 1167 940 q 1133 957 1157 940 m 599 979 q 561 989 585 974 q 526 1004 538 1004 q 497 986 515 1004 q 479 956 479 968 q 488 926 479 944 q 501 907 496 907 q 533 880 510 907 q 557 843 557 853 q 564 828 557 828 q 590 850 572 828 q 639 889 614 879 q 666 908 660 899 q 672 942 672 918 q 660 974 672 963 q 628 986 647 986 q 599 979 615 986 m 1132 1081 q 1181 1089 1157 1089 q 1300 1029 1256 1089 q 1339 935 1331 986 q 1357 678 1347 883 q 1379 229 1358 654 q 1386 36 1386 79 q 1367 -83 1386 -44 q 1254 -153 1331 -153 q 1215 -147 1232 -153 q 1164 -112 1193 -140 q 1121 -58 1135 -85 l 1106 -28 l 1104 297 q 1097 622 1104 622 q 1055 550 1092 622 q 986 401 1018 478 q 949 316 978 383 q 907 221 919 249 q 822 -21 844 81 q 753 -169 794 -135 q 681 -186 729 -186 q 635 -183 646 -186 q 606 -168 624 -181 q 546 -86 561 -137 q 540 35 540 -65 q 547 296 540 169 q 563 675 563 597 q 560 717 563 711 q 556 719 557 719 q 529 679 550 719 q 346 -1 411 451 q 322 -144 329 -118 q 296 -187 315 -169 q 201 -225 257 -225 q 111 -196 153 -225 q 51 -119 69 -167 q 43 -68 43 -101 q 44 -18 43 -40 q 124 396 51 149 q 279 788 196 643 q 397 953 333 882 q 514 1049 461 1024 q 597 1068 553 1068 q 679 1049 640 1068 q 782 961 747 1018 q 813 892 804 926 q 824 789 821 858 l 826 704 l 864 774 q 1132 1081 1004 1035 z "},"m":{"ha":1422,"x_min":43,"x_max":1386,"o":"m 836 444 q 819 446 828 442 q 806 450 811 450 q 794 438 794 450 q 808 408 794 424 l 824 392 l 842 406 q 860 426 860 421 q 851 440 860 433 q 836 444 842 447 m 288 501 q 274 506 285 508 q 263 496 263 504 q 274 471 263 488 q 292 454 286 454 q 313 467 294 454 q 326 489 326 479 q 311 500 326 500 l 306 500 q 288 501 289 497 m 888 614 q 867 622 878 622 q 847 607 854 622 q 844 596 844 599 q 863 569 844 588 q 885 535 885 547 q 886 528 885 528 q 899 539 888 526 q 929 564 911 553 q 944 590 946 575 q 921 617 940 617 q 910 613 917 617 q 888 614 900 607 m 329 638 q 308 646 317 646 q 292 635 299 646 q 286 618 286 625 q 306 592 286 610 q 329 560 326 574 q 336 557 331 549 l 344 568 q 372 596 360 590 q 385 619 385 603 q 367 646 385 646 q 353 639 363 646 q 329 638 342 628 m 983 792 q 954 807 965 807 q 931 797 944 807 q 914 771 914 785 q 949 718 914 753 q 982 671 982 682 l 983 663 l 997 679 q 1032 711 1011 701 q 1072 753 1072 731 q 1060 782 1072 765 q 1035 799 1047 799 q 1011 790 1025 799 q 983 792 993 782 m 414 833 q 386 846 400 846 q 358 825 371 846 q 351 786 344 801 q 367 768 360 768 q 394 746 376 768 q 413 713 413 724 q 432 721 413 700 l 439 728 q 474 756 464 756 q 494 769 485 756 q 503 796 503 782 q 492 824 503 814 q 465 835 481 835 q 442 828 456 835 q 414 833 428 822 m 1133 957 q 1106 967 1119 967 q 1073 952 1086 967 q 1060 915 1060 938 q 1066 892 1060 901 q 1097 858 1072 882 q 1139 801 1136 824 l 1142 779 l 1161 807 q 1211 850 1181 835 q 1254 900 1254 872 q 1247 928 1254 911 q 1210 951 1236 951 q 1182 946 1194 951 q 1160 940 1167 940 q 1133 957 1157 940 m 599 979 q 561 989 585 974 q 526 1004 538 1004 q 497 986 515 1004 q 479 956 479 968 q 488 926 479 944 q 501 907 496 907 q 533 880 510 907 q 557 843 557 853 q 564 828 557 828 q 590 850 572 828 q 639 889 614 879 q 666 908 660 899 q 672 942 672 918 q 660 974 672 963 q 628 986 647 986 q 599 979 615 986 m 1132 1081 q 1181 1089 1157 1089 q 1300 1029 1256 1089 q 1339 935 1331 986 q 1357 678 1347 883 q 1379 229 1358 654 q 1386 36 1386 79 q 1367 -83 1386 -44 q 1254 -153 1331 -153 q 1215 -147 1232 -153 q 1164 -112 1193 -140 q 1121 -58 1135 -85 l 1106 -28 l 1104 297 q 1097 622 1104 622 q 1055 550 1092 622 q 986 401 1018 478 q 949 316 978 383 q 907 221 919 249 q 822 -21 844 81 q 753 -169 794 -135 q 681 -186 729 -186 q 635 -183 646 -186 q 606 -168 624 -181 q 546 -86 561 -137 q 540 35 540 -65 q 547 296 540 169 q 563 675 563 597 q 560 717 563 711 q 556 719 557 719 q 529 679 550 719 q 346 -1 411 451 q 322 -144 329 -118 q 296 -187 315 -169 q 201 -225 257 -225 q 111 -196 153 -225 q 51 -119 69 -167 q 43 -68 43 -101 q 44 -18 43 -40 q 124 396 51 149 q 279 788 196 643 q 397 953 333 882 q 514 1049 461 1024 q 597 1068 553 1068 q 679 1049 640 1068 q 782 961 747 1018 q 813 892 804 926 q 824 789 821 858 l 826 704 l 864 774 q 1132 1081 1004 1035 z "},"N":{"ha":1206,"x_min":43,"x_max":1167,"o":"m 906 51 q 869 65 890 65 q 837 51 850 65 q 824 14 824 38 q 856 -35 824 -7 q 903 -107 897 -69 q 925 -92 904 -121 q 978 -47 946 -62 q 1017 -3 1017 -29 q 1015 14 1017 7 q 969 53 1007 53 q 939 44 953 53 q 906 51 924 35 m 160 236 q 146 240 157 243 q 135 229 135 238 q 147 204 135 221 q 164 188 158 188 q 185 200 167 188 q 199 222 199 213 q 183 233 199 233 l 178 233 q 160 236 163 231 m 958 246 q 928 258 944 258 q 906 249 914 258 q 893 222 893 235 q 926 171 893 203 q 957 128 957 142 q 960 118 957 118 q 982 140 965 122 q 1018 168 1007 168 q 1038 181 1029 168 q 1047 208 1047 194 q 1036 236 1047 225 q 1010 247 1025 247 q 986 240 1000 247 q 958 246 972 235 m 210 381 q 201 379 207 379 q 183 385 194 379 q 165 390 171 390 q 153 385 158 390 q 146 368 146 378 q 168 328 146 351 l 192 303 l 206 317 q 231 336 221 332 q 242 356 242 339 q 222 383 242 383 q 210 381 218 383 m 1015 407 q 1006 406 1013 406 q 988 410 999 406 q 971 415 976 415 q 958 410 964 415 q 951 393 951 403 q 974 351 951 375 l 997 326 l 1011 340 q 1036 360 1026 356 q 1049 379 1049 364 q 1042 400 1049 390 q 1025 410 1035 410 q 1015 407 1021 410 m 574 426 q 542 440 558 440 q 508 424 525 440 q 490 392 490 406 q 529 333 490 372 q 569 281 569 293 q 576 264 569 264 q 596 283 583 264 q 635 318 614 308 q 683 374 683 340 q 640 425 683 425 q 614 419 626 425 q 596 414 597 414 q 574 426 590 414 m 1029 525 q 1022 526 1026 525 q 1010 528 1017 526 q 1000 529 1004 529 q 990 531 996 531 q 976 521 976 531 q 992 494 976 510 l 1008 476 l 1025 489 q 1040 514 1040 500 q 1029 525 1040 525 m 215 604 q 185 617 206 617 q 154 603 164 617 q 144 579 144 589 q 175 535 144 564 q 210 488 204 506 l 215 469 l 229 490 q 269 525 242 511 q 303 564 303 539 q 296 586 303 572 q 260 604 285 604 q 238 599 247 604 q 215 604 225 593 m 263 861 q 226 876 247 876 q 195 863 208 876 q 182 826 182 850 q 200 786 182 803 q 225 768 221 768 q 244 747 231 768 q 260 713 257 726 l 263 694 l 283 722 q 329 763 301 750 q 372 811 372 781 q 369 829 372 822 q 329 865 358 865 q 296 856 314 865 q 278 850 283 849 q 263 861 274 851 m 917 1138 q 971 1149 936 1149 q 1028 1140 1000 1149 q 1104 1075 1069 1126 q 1153 956 1139 1024 q 1167 750 1167 886 q 1119 160 1167 493 q 1069 -83 1094 -17 q 988 -182 1044 -149 q 906 -199 957 -199 q 829 -185 856 -199 q 754 -124 803 -172 q 408 386 586 44 q 364 460 369 460 q 363 456 363 460 q 336 138 363 399 q 303 -143 310 -124 q 275 -183 296 -161 q 238 -211 254 -204 q 196 -219 219 -219 q 79 -160 125 -219 q 51 -110 58 -133 q 43 -35 43 -87 q 75 397 43 38 q 111 810 110 792 q 261 982 125 982 q 400 924 326 982 q 472 838 435 896 q 588 632 510 779 q 754 329 682 453 q 838 206 826 206 l 839 206 q 867 453 847 214 q 872 760 872 553 q 869 1022 872 858 l 869 1050 q 883 1106 869 1086 q 917 1138 900 1128 z "},"n":{"ha":1206,"x_min":43,"x_max":1167,"o":"m 906 51 q 869 65 890 65 q 837 51 850 65 q 824 14 824 38 q 856 -35 824 -7 q 903 -107 897 -69 q 925 -92 904 -121 q 978 -47 946 -62 q 1017 -3 1017 -29 q 1015 14 1017 7 q 969 53 1007 53 q 939 44 953 53 q 906 51 924 35 m 160 236 q 146 240 157 243 q 135 229 135 238 q 147 204 135 221 q 164 188 158 188 q 185 200 167 188 q 199 222 199 213 q 183 233 199 233 l 178 233 q 160 236 163 231 m 958 246 q 928 258 944 258 q 906 249 914 258 q 893 222 893 235 q 926 171 893 203 q 957 128 957 142 q 960 118 957 118 q 982 140 965 122 q 1018 168 1007 168 q 1038 181 1029 168 q 1047 208 1047 194 q 1036 236 1047 225 q 1010 247 1025 247 q 986 240 1000 247 q 958 246 972 235 m 210 381 q 201 379 207 379 q 183 385 194 379 q 165 390 171 390 q 153 385 158 390 q 146 368 146 378 q 168 328 146 351 l 192 303 l 206 317 q 231 336 221 332 q 242 356 242 339 q 222 383 242 383 q 210 381 218 383 m 1015 407 q 1006 406 1013 406 q 988 410 999 406 q 971 415 976 415 q 958 410 964 415 q 951 393 951 403 q 974 351 951 375 l 997 326 l 1011 340 q 1036 360 1026 356 q 1049 379 1049 364 q 1042 400 1049 390 q 1025 410 1035 410 q 1015 407 1021 410 m 574 426 q 542 440 558 440 q 508 424 525 440 q 490 392 490 406 q 529 333 490 372 q 569 281 569 293 q 576 264 569 264 q 596 283 583 264 q 635 318 614 308 q 683 374 683 340 q 640 425 683 425 q 614 419 626 425 q 596 414 597 414 q 574 426 590 414 m 1029 525 q 1022 526 1026 525 q 1010 528 1017 526 q 1000 529 1004 529 q 990 531 996 531 q 976 521 976 531 q 992 494 976 510 l 1008 476 l 1025 489 q 1040 514 1040 500 q 1029 525 1040 525 m 215 604 q 185 617 206 617 q 154 603 164 617 q 144 579 144 589 q 175 535 144 564 q 210 488 204 506 l 215 469 l 229 490 q 269 525 242 511 q 303 564 303 539 q 296 586 303 572 q 260 604 285 604 q 238 599 247 604 q 215 604 225 593 m 263 861 q 226 876 247 876 q 195 863 208 876 q 182 826 182 850 q 200 786 182 803 q 225 768 221 768 q 244 747 231 768 q 260 713 257 726 l 263 694 l 283 722 q 329 763 301 750 q 372 811 372 781 q 369 829 372 822 q 329 865 358 865 q 296 856 314 865 q 278 850 283 849 q 263 861 274 851 m 917 1138 q 971 1149 936 1149 q 1028 1140 1000 1149 q 1104 1075 1069 1126 q 1153 956 1139 1024 q 1167 750 1167 886 q 1119 160 1167 493 q 1069 -83 1094 -17 q 988 -182 1044 -149 q 906 -199 957 -199 q 829 -185 856 -199 q 754 -124 803 -172 q 408 386 586 44 q 364 460 369 460 q 363 456 363 460 q 336 138 363 399 q 303 -143 310 -124 q 275 -183 296 -161 q 238 -211 254 -204 q 196 -219 219 -219 q 79 -160 125 -219 q 51 -110 58 -133 q 43 -35 43 -87 q 75 397 43 38 q 111 810 110 792 q 261 982 125 982 q 400 924 326 982 q 472 838 435 896 q 588 632 510 779 q 754 329 682 453 q 838 206 826 206 l 839 206 q 867 453 847 214 q 872 760 872 553 q 869 1022 872 858 l 869 1050 q 883 1106 869 1086 q 917 1138 900 1128 z "},"O":{"ha":1139,"x_min":42,"x_max":1099,"o":"m 472 14 q 435 29 456 29 q 402 15 415 29 q 389 -24 389 0 q 395 -47 389 -37 q 422 -76 401 -56 q 468 -151 468 -121 l 468 -168 l 481 -153 q 544 -90 511 -107 q 583 -43 583 -72 q 583 -35 583 -40 q 582 -29 582 -31 q 539 17 575 17 q 508 8 525 17 q 472 14 490 -1 m 713 47 q 683 60 703 60 q 653 46 664 60 q 643 21 643 31 q 674 -28 643 1 q 707 -75 704 -56 l 711 -93 l 729 -68 q 768 -35 747 -43 q 800 10 800 -22 q 779 46 800 31 q 743 46 764 57 q 724 39 729 39 q 713 47 719 39 m 856 160 q 828 163 831 157 q 811 169 825 168 q 793 164 797 169 q 789 151 789 160 q 810 107 789 131 q 832 76 832 79 q 847 89 832 71 q 874 111 865 110 q 890 135 890 115 q 886 151 890 143 q 856 160 881 164 m 922 283 q 915 284 919 283 q 905 286 911 285 q 894 288 899 288 q 890 288 893 288 q 886 289 888 289 q 871 278 871 289 q 885 251 871 269 l 901 231 l 918 244 q 933 272 933 256 q 922 283 933 283 m 253 607 q 228 611 240 607 q 215 608 222 614 q 208 596 208 603 q 222 572 208 589 l 238 556 l 257 568 q 274 593 274 581 q 253 607 274 607 m 296 743 q 282 750 292 750 q 257 736 261 750 q 254 724 254 728 q 276 690 254 708 q 293 664 293 674 q 296 654 293 654 q 314 671 299 653 q 340 692 329 689 q 353 713 353 696 q 326 742 353 742 q 322 741 325 742 q 317 740 319 740 q 296 743 300 738 m 736 785 q 704 804 711 804 q 683 783 699 804 q 582 736 647 736 q 547 740 564 736 l 515 749 l 501 729 q 388 519 443 650 q 318 243 318 353 q 468 61 318 72 l 486 61 q 658 128 579 61 q 786 317 736 196 q 825 546 825 414 q 814 651 825 613 q 736 785 789 744 m 404 906 q 374 918 388 918 q 340 876 340 918 q 368 828 340 856 q 401 781 397 799 l 404 760 l 421 786 q 454 818 439 811 q 492 865 492 835 q 481 897 492 885 q 456 908 471 908 q 432 900 444 908 q 404 906 421 894 m 607 994 q 571 1010 588 1010 q 543 997 556 1010 q 525 957 525 978 q 565 894 525 929 q 603 844 596 868 l 610 818 l 629 844 q 675 886 644 868 q 710 911 703 901 q 718 940 718 921 q 706 981 718 965 q 674 996 693 996 q 647 989 664 996 q 628 982 631 982 q 607 994 624 982 m 453 1082 q 503 1089 476 1089 q 583 1075 546 1089 q 619 1064 613 1064 q 640 1068 628 1064 q 699 1076 667 1076 q 833 1043 769 1076 q 907 985 861 1028 q 979 904 953 942 q 1067 732 1039 822 q 1099 504 1099 636 q 1064 254 1099 367 q 841 -89 999 42 q 490 -219 683 -219 q 220 -132 333 -219 q 58 117 107 -44 q 42 278 42 171 q 50 417 42 367 q 88 558 58 467 q 188 781 122 665 q 331 986 254 897 q 453 1082 400 1067 m 471 611 q 514 622 489 622 q 553 614 536 622 q 589 583 567 608 l 608 561 l 644 579 q 703 597 679 597 q 740 585 722 597 q 786 490 786 551 q 756 417 786 442 q 714 396 740 404 q 603 290 654 375 l 574 244 l 571 283 q 549 355 568 326 q 479 422 529 383 q 421 511 426 463 l 421 524 q 471 611 421 582 z "},"o":{"ha":1139,"x_min":42,"x_max":1099,"o":"m 472 14 q 435 29 456 29 q 402 15 415 29 q 389 -24 389 0 q 395 -47 389 -37 q 422 -76 401 -56 q 468 -151 468 -121 l 468 -168 l 481 -153 q 544 -90 511 -107 q 583 -43 583 -72 q 583 -35 583 -40 q 582 -29 582 -31 q 539 17 575 17 q 508 8 525 17 q 472 14 490 -1 m 713 47 q 683 60 703 60 q 653 46 664 60 q 643 21 643 31 q 674 -28 643 1 q 707 -75 704 -56 l 711 -93 l 729 -68 q 768 -35 747 -43 q 800 10 800 -22 q 779 46 800 31 q 743 46 764 57 q 724 39 729 39 q 713 47 719 39 m 856 160 q 828 163 831 157 q 811 169 825 168 q 793 164 797 169 q 789 151 789 160 q 810 107 789 131 q 832 76 832 79 q 847 89 832 71 q 874 111 865 110 q 890 135 890 115 q 886 151 890 143 q 856 160 881 164 m 922 283 q 915 284 919 283 q 905 286 911 285 q 894 288 899 288 q 890 288 893 288 q 886 289 888 289 q 871 278 871 289 q 885 251 871 269 l 901 231 l 918 244 q 933 272 933 256 q 922 283 933 283 m 253 607 q 228 611 240 607 q 215 608 222 614 q 208 596 208 603 q 222 572 208 589 l 238 556 l 257 568 q 274 593 274 581 q 253 607 274 607 m 296 743 q 282 750 292 750 q 257 736 261 750 q 254 724 254 728 q 276 690 254 708 q 293 664 293 674 q 296 654 293 654 q 314 671 299 653 q 340 692 329 689 q 353 713 353 696 q 326 742 353 742 q 322 741 325 742 q 317 740 319 740 q 296 743 300 738 m 736 785 q 704 804 711 804 q 683 783 699 804 q 582 736 647 736 q 547 740 564 736 l 515 749 l 501 729 q 388 519 443 650 q 318 243 318 353 q 468 61 318 72 l 486 61 q 658 128 579 61 q 786 317 736 196 q 825 546 825 414 q 814 651 825 613 q 736 785 789 744 m 404 906 q 374 918 388 918 q 340 876 340 918 q 368 828 340 856 q 401 781 397 799 l 404 760 l 421 786 q 454 818 439 811 q 492 865 492 835 q 481 897 492 885 q 456 908 471 908 q 432 900 444 908 q 404 906 421 894 m 607 994 q 571 1010 588 1010 q 543 997 556 1010 q 525 957 525 978 q 565 894 525 929 q 603 844 596 868 l 610 818 l 629 844 q 675 886 644 868 q 710 911 703 901 q 718 940 718 921 q 706 981 718 965 q 674 996 693 996 q 647 989 664 996 q 628 982 631 982 q 607 994 624 982 m 453 1082 q 503 1089 476 1089 q 583 1075 546 1089 q 619 1064 613 1064 q 640 1068 628 1064 q 699 1076 667 1076 q 833 1043 769 1076 q 907 985 861 1028 q 979 904 953 942 q 1067 732 1039 822 q 1099 504 1099 636 q 1064 254 1099 367 q 841 -89 999 42 q 490 -219 683 -219 q 220 -132 333 -219 q 58 117 107 -44 q 42 278 42 171 q 50 417 42 367 q 88 558 58 467 q 188 781 122 665 q 331 986 254 897 q 453 1082 400 1067 m 471 611 q 514 622 489 622 q 553 614 536 622 q 589 583 567 608 l 608 561 l 644 579 q 703 597 679 597 q 740 585 722 597 q 786 490 786 551 q 756 417 786 442 q 714 396 740 404 q 603 290 654 375 l 574 244 l 571 283 q 549 355 568 326 q 479 422 529 383 q 421 511 426 463 l 421 524 q 471 611 421 582 z "},"P":{"ha":1094,"x_min":43,"x_max":1054,"o":"m 658 758 q 511 768 613 768 q 442 764 458 768 q 428 734 433 763 q 407 600 422 706 q 394 496 394 518 q 401 478 394 478 q 564 524 432 478 q 771 628 710 574 q 799 661 799 654 q 794 676 799 667 q 658 758 768 738 m 851 814 q 832 817 835 811 q 819 822 829 822 q 808 813 808 821 q 819 786 808 804 q 836 768 831 768 q 857 782 840 768 q 872 804 872 794 q 858 814 872 814 l 851 814 m 694 901 q 676 907 690 907 q 656 900 663 907 q 649 888 649 893 q 669 858 649 878 q 690 831 690 838 q 721 844 690 821 q 751 878 751 867 q 743 894 751 888 q 724 901 735 901 q 719 901 722 901 q 715 900 717 900 q 694 901 697 894 m 514 956 q 492 966 497 965 q 475 961 488 967 q 449 925 449 950 q 482 886 449 919 q 515 839 515 856 q 517 831 515 831 q 535 847 519 831 q 576 881 556 874 q 604 904 600 889 q 606 915 606 908 q 594 943 606 932 q 568 954 583 954 q 549 950 558 954 q 514 956 535 943 m 269 971 q 236 985 250 985 q 211 976 225 985 q 188 939 188 964 q 217 892 188 913 q 267 825 267 854 l 267 807 l 293 838 q 339 875 318 867 q 382 919 382 893 q 357 965 382 953 q 339 971 347 971 q 315 965 331 971 q 293 960 303 960 q 269 971 285 960 m 236 1113 q 282 1118 258 1118 q 329 1113 301 1118 q 390 1071 350 1106 l 428 1036 l 506 1029 q 778 970 668 1014 q 967 849 889 926 q 1049 697 1033 782 q 1054 635 1054 658 q 1038 535 1054 564 q 949 428 1010 481 q 810 336 889 375 q 481 229 678 269 q 381 207 425 218 q 372 180 374 204 q 368 57 369 156 q 365 -74 367 -51 q 351 -122 363 -97 q 221 -218 306 -218 l 208 -218 q 99 -147 139 -214 q 75 -69 75 -110 q 82 -17 75 -49 q 101 237 90 17 q 115 486 111 457 q 124 570 124 540 q 128 629 125 600 q 138 710 138 704 q 137 717 138 714 q 135 724 136 721 q 132 728 135 726 q 128 731 129 731 q 122 734 126 732 q 115 738 118 736 q 63 794 82 756 q 43 874 43 832 q 54 929 43 906 q 85 969 64 950 q 129 996 107 989 q 154 1022 149 1001 q 185 1079 163 1054 q 236 1113 208 1104 z "},"p":{"ha":1094,"x_min":43,"x_max":1054,"o":"m 658 758 q 511 768 613 768 q 442 764 458 768 q 428 734 433 763 q 407 600 422 706 q 394 496 394 518 q 401 478 394 478 q 564 524 432 478 q 771 628 710 574 q 799 661 799 654 q 794 676 799 667 q 658 758 768 738 m 851 814 q 832 817 835 811 q 819 822 829 822 q 808 813 808 821 q 819 786 808 804 q 836 768 831 768 q 857 782 840 768 q 872 804 872 794 q 858 814 872 814 l 851 814 m 694 901 q 676 907 690 907 q 656 900 663 907 q 649 888 649 893 q 669 858 649 878 q 690 831 690 838 q 721 844 690 821 q 751 878 751 867 q 743 894 751 888 q 724 901 735 901 q 719 901 722 901 q 715 900 717 900 q 694 901 697 894 m 514 956 q 492 966 497 965 q 475 961 488 967 q 449 925 449 950 q 482 886 449 919 q 515 839 515 856 q 517 831 515 831 q 535 847 519 831 q 576 881 556 874 q 604 904 600 889 q 606 915 606 908 q 594 943 606 932 q 568 954 583 954 q 549 950 558 954 q 514 956 535 943 m 269 971 q 236 985 250 985 q 211 976 225 985 q 188 939 188 964 q 217 892 188 913 q 267 825 267 854 l 267 807 l 293 838 q 339 875 318 867 q 382 919 382 893 q 357 965 382 953 q 339 971 347 971 q 315 965 331 971 q 293 960 303 960 q 269 971 285 960 m 236 1113 q 282 1118 258 1118 q 329 1113 301 1118 q 390 1071 350 1106 l 428 1036 l 506 1029 q 778 970 668 1014 q 967 849 889 926 q 1049 697 1033 782 q 1054 635 1054 658 q 1038 535 1054 564 q 949 428 1010 481 q 810 336 889 375 q 481 229 678 269 q 381 207 425 218 q 372 180 374 204 q 368 57 369 156 q 365 -74 367 -51 q 351 -122 363 -97 q 221 -218 306 -218 l 208 -218 q 99 -147 139 -214 q 75 -69 75 -110 q 82 -17 75 -49 q 101 237 90 17 q 115 486 111 457 q 124 570 124 540 q 128 629 125 600 q 138 710 138 704 q 137 717 138 714 q 135 724 136 721 q 132 728 135 726 q 128 731 129 731 q 122 734 126 732 q 115 738 118 736 q 63 794 82 756 q 43 874 43 832 q 54 929 43 906 q 85 969 64 950 q 129 996 107 989 q 154 1022 149 1001 q 185 1079 163 1054 q 236 1113 208 1104 z "},"Q":{"ha":1146,"x_min":40,"x_max":1104,"o":"m 625 157 q 589 172 608 172 q 557 157 569 172 q 544 119 544 142 q 550 92 544 101 q 581 60 556 82 q 614 22 606 35 q 625 -15 622 10 q 643 0 626 -25 q 646 4 644 1 q 693 47 665 33 q 738 103 738 69 q 737 107 738 104 q 736 113 736 110 q 689 158 729 158 q 657 149 672 158 q 643 144 647 143 q 625 157 639 144 m 829 288 q 801 301 817 301 q 775 286 788 301 q 763 257 763 272 q 790 213 763 236 q 826 165 819 186 l 833 143 l 847 165 q 886 200 858 183 q 919 244 919 219 q 914 264 919 254 q 885 288 900 288 q 864 282 875 288 q 844 276 847 275 q 829 288 840 276 m 921 432 q 903 440 913 440 q 885 433 893 440 q 878 415 878 426 q 899 379 878 403 q 921 350 921 351 q 950 369 921 344 q 979 407 979 393 q 968 426 979 417 q 942 431 957 438 q 921 432 928 424 m 947 569 q 933 572 940 576 q 926 553 926 567 q 942 525 926 540 l 957 511 l 972 525 q 986 550 986 538 q 968 565 986 565 q 947 569 951 565 m 221 653 q 206 658 218 660 q 192 650 194 657 q 206 621 189 640 l 221 600 l 238 611 q 254 639 254 624 q 251 651 254 649 q 239 651 249 654 q 221 653 222 649 m 288 783 q 268 792 278 792 q 246 769 251 792 q 263 733 242 756 q 285 697 285 706 q 297 703 285 685 q 328 729 308 718 q 344 756 344 738 q 324 785 344 785 q 313 782 321 785 q 288 783 299 776 m 733 794 q 669 814 707 813 l 660 814 q 464 715 563 814 q 353 541 394 646 q 311 342 311 436 q 361 193 311 238 q 396 173 372 183 q 429 163 419 163 l 433 164 q 424 208 436 167 q 413 275 413 249 q 461 376 413 336 q 529 397 485 396 l 543 397 q 621 374 590 397 q 683 294 651 351 l 700 265 l 722 289 q 807 442 775 349 q 831 579 831 515 q 733 794 831 725 m 404 924 q 376 938 386 938 q 353 924 367 938 q 339 894 339 910 q 368 844 339 875 q 403 796 401 808 l 407 781 l 425 806 q 463 838 442 829 q 487 853 482 844 q 492 883 492 861 q 482 913 492 901 q 457 925 472 925 q 433 917 446 925 q 404 924 422 908 m 593 1032 q 557 1051 574 1051 q 528 1038 544 1051 q 508 996 508 1019 q 514 970 508 979 q 542 940 519 961 q 578 899 569 914 q 588 867 588 885 l 588 850 l 599 865 q 667 929 636 918 q 701 979 701 944 q 700 993 701 989 q 656 1035 692 1035 q 624 1025 643 1035 q 608 1021 613 1019 q 593 1032 604 1022 m 518 1111 q 583 1119 551 1119 q 669 1104 628 1119 q 747 1079 708 1089 q 931 978 858 1050 q 1043 804 997 911 q 1101 581 1089 697 q 1104 524 1104 561 q 983 156 1104 333 q 886 42 949 107 l 818 -29 l 838 -61 q 924 -165 856 -94 q 981 -228 968 -210 q 999 -267 993 -246 q 1003 -300 1003 -283 q 951 -403 1003 -361 q 840 -446 900 -446 q 781 -431 806 -446 q 680 -331 739 -406 q 575 -169 621 -256 l 554 -128 l 486 -128 q 296 -89 374 -128 q 148 38 211 -46 q 56 232 85 122 q 40 381 40 289 q 60 554 40 476 q 125 731 79 632 q 276 957 188 865 q 518 1111 394 1082 z "},"q":{"ha":1146,"x_min":40,"x_max":1104,"o":"m 625 157 q 589 172 608 172 q 557 157 569 172 q 544 119 544 142 q 550 92 544 101 q 581 60 556 82 q 614 22 606 35 q 625 -15 622 10 q 643 0 626 -25 q 646 4 644 1 q 693 47 665 33 q 738 103 738 69 q 737 107 738 104 q 736 113 736 110 q 689 158 729 158 q 657 149 672 158 q 643 144 647 143 q 625 157 639 144 m 829 288 q 801 301 817 301 q 775 286 788 301 q 763 257 763 272 q 790 213 763 236 q 826 165 819 186 l 833 143 l 847 165 q 886 200 858 183 q 919 244 919 219 q 914 264 919 254 q 885 288 900 288 q 864 282 875 288 q 844 276 847 275 q 829 288 840 276 m 921 432 q 903 440 913 440 q 885 433 893 440 q 878 415 878 426 q 899 379 878 403 q 921 350 921 351 q 950 369 921 344 q 979 407 979 393 q 968 426 979 417 q 942 431 957 438 q 921 432 928 424 m 947 569 q 933 572 940 576 q 926 553 926 567 q 942 525 926 540 l 957 511 l 972 525 q 986 550 986 538 q 968 565 986 565 q 947 569 951 565 m 221 653 q 206 658 218 660 q 192 650 194 657 q 206 621 189 640 l 221 600 l 238 611 q 254 639 254 624 q 251 651 254 649 q 239 651 249 654 q 221 653 222 649 m 288 783 q 268 792 278 792 q 246 769 251 792 q 263 733 242 756 q 285 697 285 706 q 297 703 285 685 q 328 729 308 718 q 344 756 344 738 q 324 785 344 785 q 313 782 321 785 q 288 783 299 776 m 733 794 q 669 814 707 813 l 660 814 q 464 715 563 814 q 353 541 394 646 q 311 342 311 436 q 361 193 311 238 q 396 173 372 183 q 429 163 419 163 l 433 164 q 424 208 436 167 q 413 275 413 249 q 461 376 413 336 q 529 397 485 396 l 543 397 q 621 374 590 397 q 683 294 651 351 l 700 265 l 722 289 q 807 442 775 349 q 831 579 831 515 q 733 794 831 725 m 404 924 q 376 938 386 938 q 353 924 367 938 q 339 894 339 910 q 368 844 339 875 q 403 796 401 808 l 407 781 l 425 806 q 463 838 442 829 q 487 853 482 844 q 492 883 492 861 q 482 913 492 901 q 457 925 472 925 q 433 917 446 925 q 404 924 422 908 m 593 1032 q 557 1051 574 1051 q 528 1038 544 1051 q 508 996 508 1019 q 514 970 508 979 q 542 940 519 961 q 578 899 569 914 q 588 867 588 885 l 588 850 l 599 865 q 667 929 636 918 q 701 979 701 944 q 700 993 701 989 q 656 1035 692 1035 q 624 1025 643 1035 q 608 1021 613 1019 q 593 1032 604 1022 m 518 1111 q 583 1119 551 1119 q 669 1104 628 1119 q 747 1079 708 1089 q 931 978 858 1050 q 1043 804 997 911 q 1101 581 1089 697 q 1104 524 1104 561 q 983 156 1104 333 q 886 42 949 107 l 818 -29 l 838 -61 q 924 -165 856 -94 q 981 -228 968 -210 q 999 -267 993 -246 q 1003 -300 1003 -283 q 951 -403 1003 -361 q 840 -446 900 -446 q 781 -431 806 -446 q 680 -331 739 -406 q 575 -169 621 -256 l 554 -128 l 486 -128 q 296 -89 374 -128 q 148 38 211 -46 q 56 232 85 122 q 40 381 40 289 q 60 554 40 476 q 125 731 79 632 q 276 957 188 865 q 518 1111 394 1082 z "},"R":{"ha":1110,"x_min":42,"x_max":1069,"o":"m 875 19 q 839 33 860 33 q 806 19 819 33 q 792 -17 792 6 q 799 -40 792 -31 q 831 -76 806 -50 q 869 -133 869 -114 q 876 -153 869 -153 q 882 -147 882 -153 q 908 -112 882 -137 q 950 -82 933 -87 q 978 -62 971 -74 q 985 -28 985 -51 q 969 8 985 -7 q 940 22 956 22 q 911 14 928 22 q 893 8 897 7 q 875 19 889 8 m 794 188 q 757 192 772 179 q 729 204 742 204 q 707 193 718 204 q 694 165 694 181 q 724 115 694 144 q 758 69 754 85 l 763 53 l 776 74 q 817 108 790 93 q 847 151 847 125 q 843 169 847 161 q 815 192 833 192 q 794 188 807 192 m 621 300 q 596 301 610 310 q 585 279 585 296 q 599 250 585 260 q 621 225 614 243 q 627 213 625 215 q 631 213 629 211 q 639 221 633 214 q 665 243 650 233 q 681 274 682 253 q 676 290 679 288 q 654 293 672 293 q 621 300 628 293 m 510 360 q 486 364 490 360 q 472 364 479 368 q 464 351 464 360 q 479 324 464 342 l 494 307 l 513 321 q 531 346 531 333 q 510 360 531 360 m 169 417 q 159 422 167 422 q 147 418 151 422 q 157 381 135 407 l 171 364 l 188 376 q 204 404 204 390 q 201 416 204 414 q 189 415 199 418 q 169 417 172 413 m 201 571 q 178 574 182 567 q 163 580 174 581 q 144 572 151 579 q 138 557 138 565 q 158 522 138 543 q 179 490 179 501 q 193 496 179 481 q 224 522 207 513 q 242 547 242 532 q 233 565 242 557 q 211 572 224 572 q 206 572 210 572 q 201 571 203 571 m 196 774 q 167 786 181 786 q 138 772 150 786 q 125 740 125 758 q 158 699 125 732 q 193 649 190 667 l 194 632 l 208 654 q 242 686 225 679 q 282 731 282 707 q 272 762 282 750 q 244 774 261 774 q 221 767 235 774 q 196 774 211 761 m 610 781 q 506 789 578 789 q 371 774 386 789 q 358 676 367 769 q 350 547 350 583 l 350 539 l 353 525 l 394 547 q 551 650 479 592 q 639 743 624 708 q 643 760 643 753 q 610 781 643 771 m 215 1013 q 182 1028 196 1028 q 153 1014 167 1028 q 138 975 138 1000 q 142 950 138 958 q 165 925 147 942 q 215 850 215 881 q 217 838 215 838 q 236 863 219 838 q 285 906 257 893 q 329 958 329 928 q 328 972 329 968 q 306 1006 324 993 q 288 1015 294 1015 q 261 1008 282 1015 l 235 997 l 215 1013 m 132 1088 q 186 1094 150 1094 q 274 1083 233 1094 q 338 1074 311 1074 q 408 1078 358 1074 q 489 1081 438 1081 q 746 1028 639 1081 q 883 911 835 986 q 933 750 933 832 q 740 436 933 581 q 693 393 693 400 l 700 388 q 721 372 707 382 q 744 354 735 361 q 1015 43 872 258 q 1069 -87 1069 -37 q 1069 -96 1069 -90 q 1068 -104 1068 -101 q 1023 -197 1061 -161 q 932 -232 985 -232 q 847 -199 883 -232 q 739 -61 810 -165 q 467 208 600 149 q 415 222 435 222 q 392 221 401 222 q 343 214 357 218 q 324 28 335 211 q 313 -130 317 -99 q 297 -181 308 -161 q 257 -224 282 -206 q 186 -240 231 -240 q 114 -224 138 -240 q 46 -117 63 -190 q 42 -53 42 -96 q 56 289 42 17 q 68 622 67 535 q 71 744 71 736 q 58 838 71 792 q 44 932 44 885 q 132 1088 44 1057 z "},"r":{"ha":1110,"x_min":42,"x_max":1069,"o":"m 875 19 q 839 33 860 33 q 806 19 819 33 q 792 -17 792 6 q 799 -40 792 -31 q 831 -76 806 -50 q 869 -133 869 -114 q 876 -153 869 -153 q 882 -147 882 -153 q 908 -112 882 -137 q 950 -82 933 -87 q 978 -62 971 -74 q 985 -28 985 -51 q 969 8 985 -7 q 940 22 956 22 q 911 14 928 22 q 893 8 897 7 q 875 19 889 8 m 794 188 q 757 192 772 179 q 729 204 742 204 q 707 193 718 204 q 694 165 694 181 q 724 115 694 144 q 758 69 754 85 l 763 53 l 776 74 q 817 108 790 93 q 847 151 847 125 q 843 169 847 161 q 815 192 833 192 q 794 188 807 192 m 621 300 q 596 301 610 310 q 585 279 585 296 q 599 250 585 260 q 621 225 614 243 q 627 213 625 215 q 631 213 629 211 q 639 221 633 214 q 665 243 650 233 q 681 274 682 253 q 676 290 679 288 q 654 293 672 293 q 621 300 628 293 m 510 360 q 486 364 490 360 q 472 364 479 368 q 464 351 464 360 q 479 324 464 342 l 494 307 l 513 321 q 531 346 531 333 q 510 360 531 360 m 169 417 q 159 422 167 422 q 147 418 151 422 q 157 381 135 407 l 171 364 l 188 376 q 204 404 204 390 q 201 416 204 414 q 189 415 199 418 q 169 417 172 413 m 201 571 q 178 574 182 567 q 163 580 174 581 q 144 572 151 579 q 138 557 138 565 q 158 522 138 543 q 179 490 179 501 q 193 496 179 481 q 224 522 207 513 q 242 547 242 532 q 233 565 242 557 q 211 572 224 572 q 206 572 210 572 q 201 571 203 571 m 196 774 q 167 786 181 786 q 138 772 150 786 q 125 740 125 758 q 158 699 125 732 q 193 649 190 667 l 194 632 l 208 654 q 242 686 225 679 q 282 731 282 707 q 272 762 282 750 q 244 774 261 774 q 221 767 235 774 q 196 774 211 761 m 610 781 q 506 789 578 789 q 371 774 386 789 q 358 676 367 769 q 350 547 350 583 l 350 539 l 353 525 l 394 547 q 551 650 479 592 q 639 743 624 708 q 643 760 643 753 q 610 781 643 771 m 215 1013 q 182 1028 196 1028 q 153 1014 167 1028 q 138 975 138 1000 q 142 950 138 958 q 165 925 147 942 q 215 850 215 881 q 217 838 215 838 q 236 863 219 838 q 285 906 257 893 q 329 958 329 928 q 328 972 329 968 q 306 1006 324 993 q 288 1015 294 1015 q 261 1008 282 1015 l 235 997 l 215 1013 m 132 1088 q 186 1094 150 1094 q 274 1083 233 1094 q 338 1074 311 1074 q 408 1078 358 1074 q 489 1081 438 1081 q 746 1028 639 1081 q 883 911 835 986 q 933 750 933 832 q 740 436 933 581 q 693 393 693 400 l 700 388 q 721 372 707 382 q 744 354 735 361 q 1015 43 872 258 q 1069 -87 1069 -37 q 1069 -96 1069 -90 q 1068 -104 1068 -101 q 1023 -197 1061 -161 q 932 -232 985 -232 q 847 -199 883 -232 q 739 -61 810 -165 q 467 208 600 149 q 415 222 435 222 q 392 221 401 222 q 343 214 357 218 q 324 28 335 211 q 313 -130 317 -99 q 297 -181 308 -161 q 257 -224 282 -206 q 186 -240 231 -240 q 114 -224 138 -240 q 46 -117 63 -190 q 42 -53 42 -96 q 56 289 42 17 q 68 622 67 535 q 71 744 71 736 q 58 838 71 792 q 44 932 44 885 q 132 1088 44 1057 z "},"S":{"ha":967,"x_min":43,"x_max":928,"o":"m 260 689 q 229 693 258 689 q 214 694 217 696 q 211 682 211 693 q 225 654 211 668 l 239 640 l 256 653 q 271 678 271 663 q 260 689 271 689 m 260 810 q 281 780 260 803 q 301 751 301 757 q 319 757 301 740 q 349 779 340 775 q 363 799 363 786 q 354 819 363 807 q 326 825 344 831 q 301 826 308 818 q 283 835 294 835 q 260 810 260 835 m 442 950 q 413 961 431 961 q 386 950 397 961 q 375 926 375 939 q 408 875 375 908 q 442 828 442 844 l 443 818 q 457 836 446 819 q 499 871 475 858 q 531 910 531 886 q 525 931 531 921 q 488 949 514 949 q 467 944 475 949 q 442 950 456 939 m 650 1046 q 611 1063 625 1063 q 593 1057 607 1063 q 565 1014 565 1043 q 589 968 565 988 q 644 900 636 928 l 650 881 l 668 906 q 717 947 686 933 q 749 968 742 958 q 756 1000 756 978 q 742 1034 756 1021 q 710 1047 729 1047 q 682 1040 699 1047 q 650 1046 667 1033 m 574 1103 q 660 1111 619 1111 q 846 1043 769 1111 q 910 907 910 986 q 894 843 910 867 q 806 799 865 799 q 719 814 772 799 q 664 825 682 825 q 636 822 647 825 q 482 740 564 808 q 403 658 444 708 q 363 594 363 608 l 363 581 l 503 582 l 578 582 q 693 567 647 582 q 865 449 801 531 q 928 268 928 368 q 851 24 928 154 q 664 -181 774 -107 q 406 -261 542 -261 q 378 -260 386 -261 q 233 -221 304 -253 q 117 -143 163 -189 q 43 1 43 -69 q 71 68 43 40 q 121 89 92 89 q 218 63 153 89 q 371 24 317 24 q 383 24 375 24 q 397 25 392 25 q 640 240 560 38 q 651 279 651 271 q 632 299 651 290 q 475 307 613 307 l 432 307 q 319 313 351 307 q 244 339 286 318 q 121 447 165 378 q 76 596 76 517 q 86 667 76 633 q 202 865 110 760 q 411 1040 294 971 q 574 1103 489 1088 z "},"s":{"ha":967,"x_min":43,"x_max":928,"o":"m 260 689 q 229 693 258 689 q 214 694 217 696 q 211 682 211 693 q 225 654 211 668 l 239 640 l 256 653 q 271 678 271 663 q 260 689 271 689 m 260 810 q 281 780 260 803 q 301 751 301 757 q 319 757 301 740 q 349 779 340 775 q 363 799 363 786 q 354 819 363 807 q 326 825 344 831 q 301 826 308 818 q 283 835 294 835 q 260 810 260 835 m 442 950 q 413 961 431 961 q 386 950 397 961 q 375 926 375 939 q 408 875 375 908 q 442 828 442 844 l 443 818 q 457 836 446 819 q 499 871 475 858 q 531 910 531 886 q 525 931 531 921 q 488 949 514 949 q 467 944 475 949 q 442 950 456 939 m 650 1046 q 611 1063 625 1063 q 593 1057 607 1063 q 565 1014 565 1043 q 589 968 565 988 q 644 900 636 928 l 650 881 l 668 906 q 717 947 686 933 q 749 968 742 958 q 756 1000 756 978 q 742 1034 756 1021 q 710 1047 729 1047 q 682 1040 699 1047 q 650 1046 667 1033 m 574 1103 q 660 1111 619 1111 q 846 1043 769 1111 q 910 907 910 986 q 894 843 910 867 q 806 799 865 799 q 719 814 772 799 q 664 825 682 825 q 636 822 647 825 q 482 740 564 808 q 403 658 444 708 q 363 594 363 608 l 363 581 l 503 582 l 578 582 q 693 567 647 582 q 865 449 801 531 q 928 268 928 368 q 851 24 928 154 q 664 -181 774 -107 q 406 -261 542 -261 q 378 -260 386 -261 q 233 -221 304 -253 q 117 -143 163 -189 q 43 1 43 -69 q 71 68 43 40 q 121 89 92 89 q 218 63 153 89 q 371 24 317 24 q 383 24 375 24 q 397 25 392 25 q 640 240 560 38 q 651 279 651 271 q 632 299 651 290 q 475 307 613 307 l 432 307 q 319 313 351 307 q 244 339 286 318 q 121 447 165 378 q 76 596 76 517 q 86 667 76 633 q 202 865 110 760 q 411 1040 294 971 q 574 1103 489 1088 z "},"T":{"ha":1218,"x_min":40,"x_max":1179,"o":"m 564 333 q 544 331 556 342 q 538 318 538 324 q 554 294 538 308 l 571 279 l 588 292 q 603 317 603 303 q 585 329 603 329 q 564 333 568 329 m 571 489 q 556 496 567 496 q 531 483 538 496 q 526 471 526 478 q 551 436 526 458 q 568 413 568 419 q 571 406 568 408 q 577 406 574 404 q 583 413 581 408 q 608 435 588 419 q 628 465 628 449 q 603 488 628 488 q 592 486 596 488 q 571 489 575 483 m 582 701 q 551 717 567 717 q 528 706 539 717 q 513 676 513 690 q 544 626 513 658 q 578 579 576 592 l 581 563 l 599 586 q 636 619 617 613 q 664 640 656 626 q 668 658 668 649 q 649 699 668 683 q 614 700 635 707 q 582 701 593 690 m 581 964 q 546 979 563 979 q 515 965 528 979 q 501 926 501 950 q 507 900 501 910 q 538 867 513 890 q 579 808 576 828 l 582 786 l 604 814 q 656 858 628 844 q 681 874 675 868 q 690 894 688 881 q 693 913 693 906 q 668 960 693 943 q 653 967 657 967 q 625 958 646 967 l 597 949 l 581 964 m 706 1086 q 839 1092 750 1092 l 892 1092 q 1059 1078 1013 1089 q 1136 1032 1106 1067 q 1178 931 1174 989 q 1178 921 1178 926 q 1179 913 1179 915 q 1140 817 1179 853 q 1068 793 1113 793 q 1019 796 1058 793 q 888 800 974 800 q 763 796 800 800 l 731 792 l 735 744 l 735 719 q 729 581 735 649 q 704 40 708 319 q 702 -92 703 -54 q 696 -160 701 -129 q 685 -197 690 -190 q 663 -215 679 -203 q 575 -243 624 -243 q 500 -221 531 -243 q 428 -121 444 -181 q 424 -37 424 -106 q 438 326 424 114 q 451 656 451 554 q 447 701 451 701 q 311 629 426 701 q 188 582 235 582 q 156 586 172 582 q 98 618 126 593 q 56 674 69 643 q 40 753 40 707 q 50 808 40 789 q 186 918 72 854 q 706 1086 417 1050 z "},"t":{"ha":1218,"x_min":40,"x_max":1179,"o":"m 564 333 q 544 331 556 342 q 538 318 538 324 q 554 294 538 308 l 571 279 l 588 292 q 603 317 603 303 q 585 329 603 329 q 564 333 568 329 m 571 489 q 556 496 567 496 q 531 483 538 496 q 526 471 526 478 q 551 436 526 458 q 568 413 568 419 q 571 406 568 408 q 577 406 574 404 q 583 413 581 408 q 608 435 588 419 q 628 465 628 449 q 603 488 628 488 q 592 486 596 488 q 571 489 575 483 m 582 701 q 551 717 567 717 q 528 706 539 717 q 513 676 513 690 q 544 626 513 658 q 578 579 576 592 l 581 563 l 599 586 q 636 619 617 613 q 664 640 656 626 q 668 658 668 649 q 649 699 668 683 q 614 700 635 707 q 582 701 593 690 m 581 964 q 546 979 563 979 q 515 965 528 979 q 501 926 501 950 q 507 900 501 910 q 538 867 513 890 q 579 808 576 828 l 582 786 l 604 814 q 656 858 628 844 q 681 874 675 868 q 690 894 688 881 q 693 913 693 906 q 668 960 693 943 q 653 967 657 967 q 625 958 646 967 l 597 949 l 581 964 m 706 1086 q 839 1092 750 1092 l 892 1092 q 1059 1078 1013 1089 q 1136 1032 1106 1067 q 1178 931 1174 989 q 1178 921 1178 926 q 1179 913 1179 915 q 1140 817 1179 853 q 1068 793 1113 793 q 1019 796 1058 793 q 888 800 974 800 q 763 796 800 800 l 731 792 l 735 744 l 735 719 q 729 581 735 649 q 704 40 708 319 q 702 -92 703 -54 q 696 -160 701 -129 q 685 -197 690 -190 q 663 -215 679 -203 q 575 -243 624 -243 q 500 -221 531 -243 q 428 -121 444 -181 q 424 -37 424 -106 q 438 326 424 114 q 451 656 451 554 q 447 701 451 701 q 311 629 426 701 q 188 582 235 582 q 156 586 172 582 q 98 618 126 593 q 56 674 69 643 q 40 753 40 707 q 50 808 40 789 q 186 918 72 854 q 706 1086 417 1050 z "},"U":{"ha":1076,"x_min":42,"x_max":1038,"o":"m 671 111 q 635 126 656 126 q 603 113 617 126 q 590 75 590 99 q 596 51 590 60 q 626 18 601 42 q 665 -35 660 -14 q 671 -57 671 -54 q 688 -42 671 -61 q 693 -33 690 -37 q 743 10 715 -3 q 782 57 782 28 q 778 79 782 67 q 739 114 767 114 q 706 104 728 114 q 688 99 693 99 q 671 111 682 100 m 178 244 q 154 250 176 244 q 146 253 149 253 q 136 240 136 253 q 150 211 136 226 l 164 194 l 182 207 q 196 229 196 219 q 178 244 196 243 m 786 308 q 757 322 772 322 q 733 313 744 322 q 717 285 717 300 q 747 236 717 265 q 782 190 778 206 l 786 174 l 803 196 q 844 229 819 215 q 874 268 874 244 q 869 286 874 278 q 838 311 861 311 q 817 306 831 311 q 786 308 800 296 m 169 397 q 155 404 165 404 q 138 397 144 404 q 131 382 131 390 q 151 346 131 367 q 172 315 172 325 q 186 321 172 306 q 217 346 199 335 q 235 371 235 356 q 226 390 235 382 q 203 397 217 397 q 199 397 201 397 q 194 396 196 396 q 169 397 174 392 m 857 488 q 839 496 849 496 q 822 488 829 496 q 814 469 814 481 q 838 431 814 457 l 861 406 l 875 419 q 900 439 890 435 q 913 461 913 444 q 903 483 913 475 q 892 486 900 486 q 879 485 888 486 q 868 483 871 483 q 857 488 860 483 m 196 604 q 168 615 185 615 q 142 604 153 615 q 129 581 129 592 q 164 525 129 560 q 197 476 197 489 q 199 469 197 469 q 214 488 201 469 q 256 524 232 513 q 286 563 286 539 q 281 583 286 574 q 249 603 269 603 q 226 599 239 603 q 196 604 208 592 m 917 649 q 886 663 915 661 l 876 663 q 854 651 854 663 q 868 628 854 642 l 883 610 l 901 622 q 917 649 919 635 m 196 868 q 171 876 181 876 q 140 858 158 876 q 125 831 125 842 q 126 818 125 824 q 164 765 131 796 q 204 711 197 735 l 213 689 l 232 717 q 278 756 249 742 q 318 811 318 772 q 305 846 318 833 q 272 858 292 858 q 239 850 258 858 q 217 850 219 840 q 196 868 211 861 m 799 1089 q 853 1100 825 1100 q 904 1089 882 1100 q 974 1022 942 1071 q 1024 910 1006 972 q 1038 750 1038 863 q 1014 456 1038 594 q 888 88 978 247 q 747 -93 831 -14 q 578 -210 664 -172 q 551 -222 564 -215 q 535 -231 539 -229 q 521 -236 531 -233 q 499 -240 511 -239 q 461 -242 486 -240 l 440 -242 q 203 -167 303 -242 q 64 43 104 -93 q 42 235 42 121 q 64 514 42 344 q 82 724 82 639 q 79 783 82 747 q 76 840 76 825 q 131 986 76 949 q 201 1008 161 1008 q 306 971 254 1008 q 349 925 335 950 q 375 857 364 900 q 383 796 383 824 q 356 594 383 753 q 331 438 335 478 q 328 299 328 399 q 335 140 328 183 q 367 71 342 96 q 403 53 383 53 q 414 53 406 53 q 428 54 422 54 q 474 64 468 57 q 504 83 476 67 q 584 153 540 103 q 658 263 628 204 q 754 628 729 401 q 760 724 760 676 q 747 867 760 779 q 738 969 738 940 q 799 1089 738 1060 z "},"u":{"ha":1076,"x_min":42,"x_max":1038,"o":"m 671 111 q 635 126 656 126 q 603 113 617 126 q 590 75 590 99 q 596 51 590 60 q 626 18 601 42 q 665 -35 660 -14 q 671 -57 671 -54 q 688 -42 671 -61 q 693 -33 690 -37 q 743 10 715 -3 q 782 57 782 28 q 778 79 782 67 q 739 114 767 114 q 706 104 728 114 q 688 99 693 99 q 671 111 682 100 m 178 244 q 154 250 176 244 q 146 253 149 253 q 136 240 136 253 q 150 211 136 226 l 164 194 l 182 207 q 196 229 196 219 q 178 244 196 243 m 786 308 q 757 322 772 322 q 733 313 744 322 q 717 285 717 300 q 747 236 717 265 q 782 190 778 206 l 786 174 l 803 196 q 844 229 819 215 q 874 268 874 244 q 869 286 874 278 q 838 311 861 311 q 817 306 831 311 q 786 308 800 296 m 169 397 q 155 404 165 404 q 138 397 144 404 q 131 382 131 390 q 151 346 131 367 q 172 315 172 325 q 186 321 172 306 q 217 346 199 335 q 235 371 235 356 q 226 390 235 382 q 203 397 217 397 q 199 397 201 397 q 194 396 196 396 q 169 397 174 392 m 857 488 q 839 496 849 496 q 822 488 829 496 q 814 469 814 481 q 838 431 814 457 l 861 406 l 875 419 q 900 439 890 435 q 913 461 913 444 q 903 483 913 475 q 892 486 900 486 q 879 485 888 486 q 868 483 871 483 q 857 488 860 483 m 196 604 q 168 615 185 615 q 142 604 153 615 q 129 581 129 592 q 164 525 129 560 q 197 476 197 489 q 199 469 197 469 q 214 488 201 469 q 256 524 232 513 q 286 563 286 539 q 281 583 286 574 q 249 603 269 603 q 226 599 239 603 q 196 604 208 592 m 917 649 q 886 663 915 661 l 876 663 q 854 651 854 663 q 868 628 854 642 l 883 610 l 901 622 q 917 649 919 635 m 196 868 q 171 876 181 876 q 140 858 158 876 q 125 831 125 842 q 126 818 125 824 q 164 765 131 796 q 204 711 197 735 l 213 689 l 232 717 q 278 756 249 742 q 318 811 318 772 q 305 846 318 833 q 272 858 292 858 q 239 850 258 858 q 217 850 219 840 q 196 868 211 861 m 799 1089 q 853 1100 825 1100 q 904 1089 882 1100 q 974 1022 942 1071 q 1024 910 1006 972 q 1038 750 1038 863 q 1014 456 1038 594 q 888 88 978 247 q 747 -93 831 -14 q 578 -210 664 -172 q 551 -222 564 -215 q 535 -231 539 -229 q 521 -236 531 -233 q 499 -240 511 -239 q 461 -242 486 -240 l 440 -242 q 203 -167 303 -242 q 64 43 104 -93 q 42 235 42 121 q 64 514 42 344 q 82 724 82 639 q 79 783 82 747 q 76 840 76 825 q 131 986 76 949 q 201 1008 161 1008 q 306 971 254 1008 q 349 925 335 950 q 375 857 364 900 q 383 796 383 824 q 356 594 383 753 q 331 438 335 478 q 328 299 328 399 q 335 140 328 183 q 367 71 342 96 q 403 53 383 53 q 414 53 406 53 q 428 54 422 54 q 474 64 468 57 q 504 83 476 67 q 584 153 540 103 q 658 263 628 204 q 754 628 729 401 q 760 724 760 676 q 747 867 760 779 q 738 969 738 940 q 799 1089 738 1060 z "},"V":{"ha":1106,"x_min":43,"x_max":1064,"o":"m 299 357 q 288 363 296 363 q 276 358 281 363 q 272 349 272 354 q 286 319 272 335 l 300 303 l 317 315 q 333 342 333 328 q 331 355 333 353 q 318 356 328 357 q 299 357 301 353 m 778 411 q 767 417 775 417 q 754 413 758 417 q 750 403 750 408 q 764 374 750 389 l 778 358 l 794 371 q 811 397 811 385 q 808 409 811 407 q 796 410 806 411 q 778 411 779 407 m 278 511 q 260 519 269 519 q 242 513 251 519 q 233 497 233 507 q 253 463 233 488 q 274 432 272 438 q 290 438 278 421 q 318 460 306 456 q 333 483 333 465 q 313 511 333 511 q 300 508 308 511 q 278 511 285 503 m 843 547 q 814 551 818 547 q 797 556 810 556 q 779 551 783 556 q 774 539 774 546 q 799 490 774 518 q 812 476 807 481 q 820 469 817 471 q 825 470 824 468 q 829 476 826 472 q 853 497 838 490 q 868 525 868 506 q 865 544 868 542 q 843 547 861 547 m 233 717 q 207 731 218 731 q 185 717 197 731 q 169 689 169 701 q 203 639 169 672 q 236 589 236 607 l 238 578 q 254 597 240 578 q 296 635 272 622 q 326 674 326 650 q 319 694 326 683 q 292 718 306 718 q 271 713 282 718 q 251 706 257 706 q 233 717 244 707 m 869 761 q 842 774 857 774 q 815 761 826 774 q 803 731 803 749 q 832 686 803 710 q 865 640 861 661 l 869 621 l 883 643 q 922 678 899 667 q 951 697 944 689 q 957 724 957 706 q 947 752 957 742 q 919 763 936 763 q 894 756 908 763 q 869 761 883 749 m 181 953 q 143 968 161 968 q 110 953 124 968 q 96 915 96 939 q 103 892 96 903 q 136 857 110 882 q 175 800 175 819 q 181 782 175 782 q 201 807 185 782 q 244 847 221 836 q 281 872 274 861 q 290 903 290 886 q 275 940 290 925 q 244 956 260 956 q 215 947 232 956 q 181 953 199 938 m 903 986 q 867 1001 886 1001 q 836 987 849 1001 q 824 950 824 972 q 829 924 824 933 q 860 890 835 914 q 901 832 899 851 l 906 810 l 926 839 q 976 882 946 867 q 1017 933 1017 901 q 1015 946 1017 942 q 1000 975 1010 965 q 965 986 989 986 q 935 978 947 986 q 922 974 926 972 q 903 986 917 975 m 863 1092 q 924 1100 885 1100 q 986 1092 965 1100 q 1064 954 1064 1060 q 1060 906 1064 931 q 997 643 1049 851 q 926 374 944 435 q 722 -87 856 138 q 633 -204 672 -172 q 538 -236 593 -236 l 524 -236 q 328 -106 418 -231 q 229 78 264 -19 q 157 381 194 176 q 65 818 90 742 q 44 904 47 874 q 43 926 43 913 q 80 1024 43 986 q 171 1063 117 1063 q 257 1038 214 1063 q 372 789 351 982 q 431 399 393 603 q 496 135 469 194 l 508 104 l 524 129 q 668 489 599 247 q 772 932 746 761 q 790 1019 783 1003 q 819 1063 799 1043 q 863 1092 839 1083 z "},"v":{"ha":1106,"x_min":43,"x_max":1064,"o":"m 299 357 q 288 363 296 363 q 276 358 281 363 q 272 349 272 354 q 286 319 272 335 l 300 303 l 317 315 q 333 342 333 328 q 331 355 333 353 q 318 356 328 357 q 299 357 301 353 m 778 411 q 767 417 775 417 q 754 413 758 417 q 750 403 750 408 q 764 374 750 389 l 778 358 l 794 371 q 811 397 811 385 q 808 409 811 407 q 796 410 806 411 q 778 411 779 407 m 278 511 q 260 519 269 519 q 242 513 251 519 q 233 497 233 507 q 253 463 233 488 q 274 432 272 438 q 290 438 278 421 q 318 460 306 456 q 333 483 333 465 q 313 511 333 511 q 300 508 308 511 q 278 511 285 503 m 843 547 q 814 551 818 547 q 797 556 810 556 q 779 551 783 556 q 774 539 774 546 q 799 490 774 518 q 812 476 807 481 q 820 469 817 471 q 825 470 824 468 q 829 476 826 472 q 853 497 838 490 q 868 525 868 506 q 865 544 868 542 q 843 547 861 547 m 233 717 q 207 731 218 731 q 185 717 197 731 q 169 689 169 701 q 203 639 169 672 q 236 589 236 607 l 238 578 q 254 597 240 578 q 296 635 272 622 q 326 674 326 650 q 319 694 326 683 q 292 718 306 718 q 271 713 282 718 q 251 706 257 706 q 233 717 244 707 m 869 761 q 842 774 857 774 q 815 761 826 774 q 803 731 803 749 q 832 686 803 710 q 865 640 861 661 l 869 621 l 883 643 q 922 678 899 667 q 951 697 944 689 q 957 724 957 706 q 947 752 957 742 q 919 763 936 763 q 894 756 908 763 q 869 761 883 749 m 181 953 q 143 968 161 968 q 110 953 124 968 q 96 915 96 939 q 103 892 96 903 q 136 857 110 882 q 175 800 175 819 q 181 782 175 782 q 201 807 185 782 q 244 847 221 836 q 281 872 274 861 q 290 903 290 886 q 275 940 290 925 q 244 956 260 956 q 215 947 232 956 q 181 953 199 938 m 903 986 q 867 1001 886 1001 q 836 987 849 1001 q 824 950 824 972 q 829 924 824 933 q 860 890 835 914 q 901 832 899 851 l 906 810 l 926 839 q 976 882 946 867 q 1017 933 1017 901 q 1015 946 1017 942 q 1000 975 1010 965 q 965 986 989 986 q 935 978 947 986 q 922 974 926 972 q 903 986 917 975 m 863 1092 q 924 1100 885 1100 q 986 1092 965 1100 q 1064 954 1064 1060 q 1060 906 1064 931 q 997 643 1049 851 q 926 374 944 435 q 722 -87 856 138 q 633 -204 672 -172 q 538 -236 593 -236 l 524 -236 q 328 -106 418 -231 q 229 78 264 -19 q 157 381 194 176 q 65 818 90 742 q 44 904 47 874 q 43 926 43 913 q 80 1024 43 986 q 171 1063 117 1063 q 257 1038 214 1063 q 372 789 351 982 q 431 399 393 603 q 496 135 469 194 l 508 104 l 524 129 q 668 489 599 247 q 772 932 746 761 q 790 1019 783 1003 q 819 1063 799 1043 q 863 1092 839 1083 z "},"W":{"ha":1392,"x_min":42,"x_max":1353,"o":"m 206 381 q 176 383 196 381 q 172 384 175 383 q 167 385 168 385 q 153 374 153 385 q 168 349 153 364 l 185 332 l 201 344 q 217 369 217 356 q 206 381 217 381 m 1228 396 q 1197 408 1226 407 l 1188 408 q 1163 397 1163 408 q 1178 374 1163 389 l 1196 357 l 1213 371 q 1228 396 1231 386 m 203 519 q 185 526 199 526 q 164 518 171 525 q 157 504 157 511 q 178 472 157 492 q 199 443 199 454 q 218 451 199 432 q 246 471 235 471 q 258 494 258 471 q 253 511 258 506 q 226 517 246 521 q 203 519 207 514 m 1221 558 q 1196 561 1200 554 q 1181 568 1192 568 q 1164 561 1171 568 q 1157 546 1157 554 q 1178 514 1157 533 q 1199 483 1199 493 q 1213 490 1199 475 q 1243 517 1226 507 q 1260 540 1260 528 q 1232 560 1260 560 q 1221 558 1225 560 m 232 708 q 204 719 222 719 q 172 706 183 719 q 164 685 164 693 q 196 638 164 668 q 229 592 229 606 l 231 583 q 244 597 233 583 q 249 601 247 600 q 289 633 267 625 q 318 669 318 646 q 314 688 318 679 q 285 711 300 711 q 264 706 275 711 q 244 699 249 699 q 232 708 239 700 m 1200 768 q 1168 779 1185 779 q 1142 767 1150 779 q 1132 743 1132 753 q 1160 703 1132 726 q 1193 661 1185 682 l 1201 642 l 1219 663 q 1260 694 1238 683 q 1288 732 1288 710 q 1281 753 1288 742 q 1247 768 1272 768 q 1224 763 1233 768 q 1200 768 1214 756 m 258 949 q 221 965 239 965 q 188 951 201 965 q 175 915 175 938 q 179 892 175 904 q 208 864 189 878 q 253 803 246 838 l 257 786 l 275 811 q 328 854 292 838 q 357 871 350 864 q 367 893 364 878 q 368 904 368 897 q 354 938 368 925 q 319 950 340 950 q 289 943 307 950 q 258 949 271 936 m 1189 994 q 1151 1010 1165 1010 q 1122 994 1136 1010 q 1108 961 1108 979 q 1147 904 1108 940 q 1186 851 1186 867 q 1192 836 1186 836 q 1213 858 1196 836 q 1257 897 1229 885 q 1300 950 1300 918 q 1283 986 1300 969 q 1256 997 1272 997 q 1226 989 1243 997 q 1210 983 1215 982 q 1189 994 1204 985 m 1139 1089 q 1197 1101 1167 1101 q 1297 1061 1260 1101 q 1342 958 1332 1025 q 1353 719 1353 892 q 1347 506 1353 574 q 1317 333 1340 439 q 1038 -171 1226 -79 q 994 -188 1010 -185 q 938 -192 978 -192 q 883 -189 897 -192 q 840 -172 868 -186 q 760 -110 801 -154 q 692 -14 719 -65 q 663 35 667 35 q 615 -29 657 35 q 432 -210 524 -164 q 383 -231 397 -228 q 324 -235 368 -235 q 227 -221 261 -235 q 151 -165 193 -207 q 47 90 67 -81 q 42 189 42 136 q 78 519 42 289 q 119 896 113 746 q 125 983 122 967 q 142 1017 128 999 q 246 1069 179 1069 q 356 1025 304 1069 q 418 897 406 978 q 419 888 418 894 q 419 878 419 882 q 365 521 419 786 q 328 207 328 328 l 328 171 q 336 69 331 78 q 343 64 339 64 q 371 89 347 64 q 510 319 442 165 q 608 628 578 472 q 633 713 621 697 q 724 750 661 750 q 806 731 767 750 q 863 678 846 711 q 878 613 878 649 q 871 532 878 590 q 861 392 861 460 q 908 149 861 265 q 940 93 931 93 q 957 108 949 93 q 1006 235 979 146 q 1047 417 1032 324 q 1069 658 1069 549 q 1065 771 1069 708 q 1061 903 1061 850 q 1075 1017 1061 989 q 1139 1089 1104 1071 z "},"w":{"ha":1392,"x_min":42,"x_max":1353,"o":"m 206 381 q 176 383 196 381 q 172 384 175 383 q 167 385 168 385 q 153 374 153 385 q 168 349 153 364 l 185 332 l 201 344 q 217 369 217 356 q 206 381 217 381 m 1228 396 q 1197 408 1226 407 l 1188 408 q 1163 397 1163 408 q 1178 374 1163 389 l 1196 357 l 1213 371 q 1228 396 1231 386 m 203 519 q 185 526 199 526 q 164 518 171 525 q 157 504 157 511 q 178 472 157 492 q 199 443 199 454 q 218 451 199 432 q 246 471 235 471 q 258 494 258 471 q 253 511 258 506 q 226 517 246 521 q 203 519 207 514 m 1221 558 q 1196 561 1200 554 q 1181 568 1192 568 q 1164 561 1171 568 q 1157 546 1157 554 q 1178 514 1157 533 q 1199 483 1199 493 q 1213 490 1199 475 q 1243 517 1226 507 q 1260 540 1260 528 q 1232 560 1260 560 q 1221 558 1225 560 m 232 708 q 204 719 222 719 q 172 706 183 719 q 164 685 164 693 q 196 638 164 668 q 229 592 229 606 l 231 583 q 244 597 233 583 q 249 601 247 600 q 289 633 267 625 q 318 669 318 646 q 314 688 318 679 q 285 711 300 711 q 264 706 275 711 q 244 699 249 699 q 232 708 239 700 m 1200 768 q 1168 779 1185 779 q 1142 767 1150 779 q 1132 743 1132 753 q 1160 703 1132 726 q 1193 661 1185 682 l 1201 642 l 1219 663 q 1260 694 1238 683 q 1288 732 1288 710 q 1281 753 1288 742 q 1247 768 1272 768 q 1224 763 1233 768 q 1200 768 1214 756 m 258 949 q 221 965 239 965 q 188 951 201 965 q 175 915 175 938 q 179 892 175 904 q 208 864 189 878 q 253 803 246 838 l 257 786 l 275 811 q 328 854 292 838 q 357 871 350 864 q 367 893 364 878 q 368 904 368 897 q 354 938 368 925 q 319 950 340 950 q 289 943 307 950 q 258 949 271 936 m 1189 994 q 1151 1010 1165 1010 q 1122 994 1136 1010 q 1108 961 1108 979 q 1147 904 1108 940 q 1186 851 1186 867 q 1192 836 1186 836 q 1213 858 1196 836 q 1257 897 1229 885 q 1300 950 1300 918 q 1283 986 1300 969 q 1256 997 1272 997 q 1226 989 1243 997 q 1210 983 1215 982 q 1189 994 1204 985 m 1139 1089 q 1197 1101 1167 1101 q 1297 1061 1260 1101 q 1342 958 1332 1025 q 1353 719 1353 892 q 1347 506 1353 574 q 1317 333 1340 439 q 1038 -171 1226 -79 q 994 -188 1010 -185 q 938 -192 978 -192 q 883 -189 897 -192 q 840 -172 868 -186 q 760 -110 801 -154 q 692 -14 719 -65 q 663 35 667 35 q 615 -29 657 35 q 432 -210 524 -164 q 383 -231 397 -228 q 324 -235 368 -235 q 227 -221 261 -235 q 151 -165 193 -207 q 47 90 67 -81 q 42 189 42 136 q 78 519 42 289 q 119 896 113 746 q 125 983 122 967 q 142 1017 128 999 q 246 1069 179 1069 q 356 1025 304 1069 q 418 897 406 978 q 419 888 418 894 q 419 878 419 882 q 365 521 419 786 q 328 207 328 328 l 328 171 q 336 69 331 78 q 343 64 339 64 q 371 89 347 64 q 510 319 442 165 q 608 628 578 472 q 633 713 621 697 q 724 750 661 750 q 806 731 767 750 q 863 678 846 711 q 878 613 878 649 q 871 532 878 590 q 861 392 861 460 q 908 149 861 265 q 940 93 931 93 q 957 108 949 93 q 1006 235 979 146 q 1047 417 1032 324 q 1069 658 1069 549 q 1065 771 1069 708 q 1061 903 1061 850 q 1075 1017 1061 989 q 1139 1089 1104 1071 z "},"X":{"ha":1197,"x_min":43,"x_max":1156,"o":"m 639 475 q 614 479 631 475 q 606 482 608 482 q 597 471 597 482 q 611 440 597 456 l 625 424 l 642 438 q 657 461 657 450 q 639 475 657 472 m 557 597 q 540 604 554 604 q 518 597 525 604 q 511 582 511 590 q 532 550 511 569 q 554 521 554 528 q 571 526 554 511 q 601 549 590 543 q 614 572 614 556 q 606 592 614 583 q 578 596 597 600 q 557 597 560 593 m 478 763 q 449 775 467 775 q 418 761 429 775 q 408 736 408 750 q 438 690 408 719 q 472 644 468 660 l 476 629 l 493 653 q 532 683 510 676 q 563 726 563 692 q 542 763 563 750 q 508 760 528 768 q 490 753 494 753 q 478 763 485 754 m 356 950 q 324 968 338 968 q 303 961 314 968 q 275 914 275 947 q 282 890 275 900 q 313 858 289 881 q 353 800 350 824 l 357 776 l 378 807 q 424 847 399 836 q 468 900 468 867 q 456 933 468 917 q 417 950 443 950 q 388 942 400 950 q 374 938 379 936 q 356 950 369 939 m 932 1093 q 986 1101 951 1101 q 1097 1051 1056 1101 q 1138 921 1138 1000 q 1124 829 1138 875 q 1068 703 1106 771 q 928 478 1031 636 l 854 368 l 881 336 q 1153 -76 1132 18 q 1156 -108 1156 -87 q 1124 -197 1156 -158 q 1033 -237 1085 -237 q 853 -115 917 -237 q 754 49 819 -53 q 682 150 689 150 q 624 94 676 150 q 488 -25 576 47 q 343 -133 399 -97 q 183 -197 243 -197 q 154 -194 164 -197 q 74 -144 104 -185 q 43 -47 43 -103 q 60 17 43 -4 q 138 76 76 39 q 421 296 301 176 q 443 318 431 306 q 462 337 456 331 q 476 351 468 343 q 488 365 485 360 q 496 376 492 369 q 501 387 500 382 q 503 397 503 392 q 458 493 503 415 q 350 681 379 636 q 282 769 321 725 q 214 863 235 824 q 196 922 196 900 q 197 932 196 925 q 197 943 197 939 q 218 1011 199 983 q 325 1065 258 1065 q 447 1018 388 1065 q 531 917 485 989 q 667 683 578 846 l 692 639 l 725 694 q 847 968 826 860 q 932 1093 865 1064 z "},"x":{"ha":1197,"x_min":43,"x_max":1156,"o":"m 639 475 q 614 479 631 475 q 606 482 608 482 q 597 471 597 482 q 611 440 597 456 l 625 424 l 642 438 q 657 461 657 450 q 639 475 657 472 m 557 597 q 540 604 554 604 q 518 597 525 604 q 511 582 511 590 q 532 550 511 569 q 554 521 554 528 q 571 526 554 511 q 601 549 590 543 q 614 572 614 556 q 606 592 614 583 q 578 596 597 600 q 557 597 560 593 m 478 763 q 449 775 467 775 q 418 761 429 775 q 408 736 408 750 q 438 690 408 719 q 472 644 468 660 l 476 629 l 493 653 q 532 683 510 676 q 563 726 563 692 q 542 763 563 750 q 508 760 528 768 q 490 753 494 753 q 478 763 485 754 m 356 950 q 324 968 338 968 q 303 961 314 968 q 275 914 275 947 q 282 890 275 900 q 313 858 289 881 q 353 800 350 824 l 357 776 l 378 807 q 424 847 399 836 q 468 900 468 867 q 456 933 468 917 q 417 950 443 950 q 388 942 400 950 q 374 938 379 936 q 356 950 369 939 m 932 1093 q 986 1101 951 1101 q 1097 1051 1056 1101 q 1138 921 1138 1000 q 1124 829 1138 875 q 1068 703 1106 771 q 928 478 1031 636 l 854 368 l 881 336 q 1153 -76 1132 18 q 1156 -108 1156 -87 q 1124 -197 1156 -158 q 1033 -237 1085 -237 q 853 -115 917 -237 q 754 49 819 -53 q 682 150 689 150 q 624 94 676 150 q 488 -25 576 47 q 343 -133 399 -97 q 183 -197 243 -197 q 154 -194 164 -197 q 74 -144 104 -185 q 43 -47 43 -103 q 60 17 43 -4 q 138 76 76 39 q 421 296 301 176 q 443 318 431 306 q 462 337 456 331 q 476 351 468 343 q 488 365 485 360 q 496 376 492 369 q 501 387 500 382 q 503 397 503 392 q 458 493 503 415 q 350 681 379 636 q 282 769 321 725 q 214 863 235 824 q 196 922 196 900 q 197 932 196 925 q 197 943 197 939 q 218 1011 199 983 q 325 1065 258 1065 q 447 1018 388 1065 q 531 917 485 989 q 667 683 578 846 l 692 639 l 725 694 q 847 968 826 860 q 932 1093 865 1064 z "},"Y":{"ha":1131,"x_min":43,"x_max":1090,"o":"m 406 363 q 383 368 394 363 q 371 372 378 372 q 358 357 358 372 q 372 325 358 340 l 385 308 l 406 325 q 422 350 422 338 q 406 363 422 363 m 339 513 q 304 513 322 531 q 297 492 297 506 q 310 461 297 472 q 328 436 324 450 l 333 421 l 353 438 q 379 453 371 453 q 393 481 393 453 q 390 494 393 490 q 365 504 383 504 q 339 513 347 504 m 274 704 q 242 719 258 719 q 217 708 226 719 q 207 676 207 696 q 225 638 207 656 q 261 574 261 604 q 278 579 261 563 q 283 586 279 582 q 325 617 300 607 q 358 660 358 629 q 347 690 358 678 q 319 701 336 701 q 299 696 308 701 q 274 704 286 690 m 183 924 q 144 946 163 946 q 111 929 131 946 q 97 892 97 915 q 131 829 97 867 q 160 793 154 803 q 165 767 165 783 l 165 740 l 175 756 q 247 815 210 804 q 277 834 269 822 q 285 872 285 846 q 274 910 285 899 q 238 921 263 921 q 208 913 219 921 q 183 924 200 906 m 874 1089 q 926 1101 899 1101 q 993 1085 960 1101 q 1090 903 1090 1035 q 1076 810 1090 856 q 1032 697 1060 753 q 900 454 1004 640 q 645 19 749 181 q 410 -312 542 -142 q 285 -455 325 -422 q 197 -487 246 -487 q 135 -472 157 -487 q 67 -336 67 -428 q 78 -275 67 -301 q 200 -104 97 -225 q 317 40 283 -6 l 364 101 l 340 142 q 168 543 258 276 q 92 739 125 672 q 43 914 43 835 q 78 1031 43 989 q 171 1074 113 1074 q 285 1013 231 1074 q 349 909 321 972 q 413 722 376 846 q 517 403 488 468 l 526 379 l 540 403 q 626 553 560 435 q 715 718 692 671 q 792 935 779 849 q 820 1035 801 1000 q 874 1089 839 1071 z "},"y":{"ha":1131,"x_min":43,"x_max":1090,"o":"m 406 363 q 383 368 394 363 q 371 372 378 372 q 358 357 358 372 q 372 325 358 340 l 385 308 l 406 325 q 422 350 422 338 q 406 363 422 363 m 339 513 q 304 513 322 531 q 297 492 297 506 q 310 461 297 472 q 328 436 324 450 l 333 421 l 353 438 q 379 453 371 453 q 393 481 393 453 q 390 494 393 490 q 365 504 383 504 q 339 513 347 504 m 274 704 q 242 719 258 719 q 217 708 226 719 q 207 676 207 696 q 225 638 207 656 q 261 574 261 604 q 278 579 261 563 q 283 586 279 582 q 325 617 300 607 q 358 660 358 629 q 347 690 358 678 q 319 701 336 701 q 299 696 308 701 q 274 704 286 690 m 183 924 q 144 946 163 946 q 111 929 131 946 q 97 892 97 915 q 131 829 97 867 q 160 793 154 803 q 165 767 165 783 l 165 740 l 175 756 q 247 815 210 804 q 277 834 269 822 q 285 872 285 846 q 274 910 285 899 q 238 921 263 921 q 208 913 219 921 q 183 924 200 906 m 874 1089 q 926 1101 899 1101 q 993 1085 960 1101 q 1090 903 1090 1035 q 1076 810 1090 856 q 1032 697 1060 753 q 900 454 1004 640 q 645 19 749 181 q 410 -312 542 -142 q 285 -455 325 -422 q 197 -487 246 -487 q 135 -472 157 -487 q 67 -336 67 -428 q 78 -275 67 -301 q 200 -104 97 -225 q 317 40 283 -6 l 364 101 l 340 142 q 168 543 258 276 q 92 739 125 672 q 43 914 43 835 q 78 1031 43 989 q 171 1074 113 1074 q 285 1013 231 1074 q 349 909 321 972 q 413 722 376 846 q 517 403 488 468 l 526 379 l 540 403 q 626 553 560 435 q 715 718 692 671 q 792 935 779 849 q 820 1035 801 1000 q 874 1089 839 1071 z "},"Z":{"ha":1339,"x_min":43,"x_max":1299,"o":"m 565 -58 q 543 -53 551 -58 q 531 -47 536 -47 q 521 -61 521 -47 q 531 -92 521 -76 l 542 -110 l 561 -97 q 581 -71 581 -86 q 565 -58 581 -58 m 683 -22 q 649 -21 667 -3 q 642 -39 642 -28 q 656 -72 642 -57 q 671 -104 671 -90 q 674 -114 671 -114 q 690 -101 675 -114 q 717 -86 708 -86 q 735 -71 728 -86 q 740 -53 740 -61 q 711 -32 740 -32 q 683 -22 693 -32 m 858 0 q 832 15 843 15 q 808 4 821 15 q 792 -29 792 -8 q 810 -69 792 -50 q 840 -129 840 -104 q 847 -135 840 -140 q 864 -121 851 -132 l 865 -119 q 908 -94 886 -101 q 943 -49 943 -87 q 932 -19 943 -31 q 907 -8 921 -8 q 886 -12 899 -8 q 858 0 874 -18 m 1060 94 q 1022 118 1039 118 q 988 100 1008 118 q 972 67 972 88 q 997 10 972 42 q 1035 -62 1035 -31 l 1035 -82 l 1064 -54 q 1118 -19 1093 -26 q 1161 39 1161 -8 q 1146 76 1161 64 q 1117 89 1131 89 q 1092 82 1108 89 q 1076 80 1081 78 q 1060 94 1071 82 m 1085 886 q 1067 890 1076 886 q 1051 894 1058 894 q 1042 882 1042 894 q 1051 853 1042 868 l 1063 835 l 1082 847 q 1100 874 1100 857 q 1085 886 1100 886 m 939 975 q 906 975 922 993 q 896 957 896 963 q 914 924 896 947 q 932 890 932 897 q 944 896 932 883 q 975 914 953 904 q 997 943 997 922 q 971 967 997 967 l 967 967 q 939 975 950 964 m 735 989 q 706 1003 721 1003 q 678 988 689 1003 q 667 960 667 974 q 689 917 667 939 q 718 860 718 888 q 717 856 718 858 l 717 854 l 717 847 l 740 868 q 779 893 763 890 q 818 942 818 901 q 789 979 817 979 q 783 978 788 979 q 775 978 778 978 q 760 976 769 976 q 735 989 747 976 m 485 997 q 464 1003 474 1003 q 435 986 451 1003 q 417 947 417 968 q 436 903 417 924 q 478 826 478 856 l 478 803 l 510 833 q 564 867 540 863 q 604 910 601 874 l 604 921 q 560 974 604 974 q 525 965 544 974 q 508 976 515 960 q 485 997 503 989 m 614 1067 q 824 1081 719 1081 q 1086 1056 949 1081 q 1279 928 1229 1026 q 1299 847 1299 890 q 1267 747 1299 788 q 1068 561 1235 707 q 981 485 1047 543 q 850 370 915 428 q 735 268 785 313 l 529 86 l 583 81 q 639 78 611 78 q 750 82 689 78 q 896 101 851 89 q 986 147 940 113 q 1125 207 1068 207 q 1206 180 1169 207 q 1253 110 1242 153 q 1257 76 1257 93 q 1197 -40 1257 24 q 950 -187 1094 -149 q 783 -213 871 -208 q 260 -222 696 -218 q 161 -213 193 -222 q 97 -175 129 -204 q 43 -47 43 -125 q 115 113 43 46 q 206 194 133 131 q 574 519 478 435 q 867 789 867 779 l 865 790 l 861 790 q 593 749 789 790 q 463 731 513 731 q 396 743 422 731 q 328 809 354 763 q 300 907 301 856 q 340 1021 300 976 q 429 1057 372 1057 q 458 1056 447 1057 q 469 1055 461 1056 q 481 1054 476 1054 q 614 1067 525 1054 z "},"z":{"ha":1339,"x_min":43,"x_max":1299,"o":"m 565 -58 q 543 -53 551 -58 q 531 -47 536 -47 q 521 -61 521 -47 q 531 -92 521 -76 l 542 -110 l 561 -97 q 581 -71 581 -86 q 565 -58 581 -58 m 683 -22 q 649 -21 667 -3 q 642 -39 642 -28 q 656 -72 642 -57 q 671 -104 671 -90 q 674 -114 671 -114 q 690 -101 675 -114 q 717 -86 708 -86 q 735 -71 728 -86 q 740 -53 740 -61 q 711 -32 740 -32 q 683 -22 693 -32 m 858 0 q 832 15 843 15 q 808 4 821 15 q 792 -29 792 -8 q 810 -69 792 -50 q 840 -129 840 -104 q 847 -135 840 -140 q 864 -121 851 -132 l 865 -119 q 908 -94 886 -101 q 943 -49 943 -87 q 932 -19 943 -31 q 907 -8 921 -8 q 886 -12 899 -8 q 858 0 874 -18 m 1060 94 q 1022 118 1039 118 q 988 100 1008 118 q 972 67 972 88 q 997 10 972 42 q 1035 -62 1035 -31 l 1035 -82 l 1064 -54 q 1118 -19 1093 -26 q 1161 39 1161 -8 q 1146 76 1161 64 q 1117 89 1131 89 q 1092 82 1108 89 q 1076 80 1081 78 q 1060 94 1071 82 m 1085 886 q 1067 890 1076 886 q 1051 894 1058 894 q 1042 882 1042 894 q 1051 853 1042 868 l 1063 835 l 1082 847 q 1100 874 1100 857 q 1085 886 1100 886 m 939 975 q 906 975 922 993 q 896 957 896 963 q 914 924 896 947 q 932 890 932 897 q 944 896 932 883 q 975 914 953 904 q 997 943 997 922 q 971 967 997 967 l 967 967 q 939 975 950 964 m 735 989 q 706 1003 721 1003 q 678 988 689 1003 q 667 960 667 974 q 689 917 667 939 q 718 860 718 888 q 717 856 718 858 l 717 854 l 717 847 l 740 868 q 779 893 763 890 q 818 942 818 901 q 789 979 817 979 q 783 978 788 979 q 775 978 778 978 q 760 976 769 976 q 735 989 747 976 m 485 997 q 464 1003 474 1003 q 435 986 451 1003 q 417 947 417 968 q 436 903 417 924 q 478 826 478 856 l 478 803 l 510 833 q 564 867 540 863 q 604 910 601 874 l 604 921 q 560 974 604 974 q 525 965 544 974 q 508 976 515 960 q 485 997 503 989 m 614 1067 q 824 1081 719 1081 q 1086 1056 949 1081 q 1279 928 1229 1026 q 1299 847 1299 890 q 1267 747 1299 788 q 1068 561 1235 707 q 981 485 1047 543 q 850 370 915 428 q 735 268 785 313 l 529 86 l 583 81 q 639 78 611 78 q 750 82 689 78 q 896 101 851 89 q 986 147 940 113 q 1125 207 1068 207 q 1206 180 1169 207 q 1253 110 1242 153 q 1257 76 1257 93 q 1197 -40 1257 24 q 950 -187 1094 -149 q 783 -213 871 -208 q 260 -222 696 -218 q 161 -213 193 -222 q 97 -175 129 -204 q 43 -47 43 -125 q 115 113 43 46 q 206 194 133 131 q 574 519 478 435 q 867 789 867 779 l 865 790 l 861 790 q 593 749 789 790 q 463 731 513 731 q 396 743 422 731 q 328 809 354 763 q 300 907 301 856 q 340 1021 300 976 q 429 1057 372 1057 q 458 1056 447 1057 q 469 1055 461 1056 q 481 1054 476 1054 q 614 1067 525 1054 z "}," ":{"ha":278,"x_min":0,"x_max":0,"o":""}}}
